<?xml version="1.0" encoding="UTF-8" standalone="no"?>
<!-- Created with Inkscape (http://www.inkscape.org/) -->

<svg version="1.1" id="svg170" width="211.31445" height="110.31512" viewBox="0 0 211.31444 110.31513"
  sodipodi:docname="logo6.svg" xml:space="preserve" inkscape:version="1.2.2 (732a01da63, 2022-12-09)"
  inkscape:export-filename="63329-OB8B615-908.svg" inkscape:export-xdpi="96" inkscape:export-ydpi="96"
  xmlns:inkscape="http://www.inkscape.org/namespaces/inkscape"
  xmlns:sodipodi="http://sodipodi.sourceforge.net/DTD/sodipodi-0.dtd" xmlns="http://www.w3.org/2000/svg"
  xmlns:svg="http://www.w3.org/2000/svg">
  <defs id="defs174" />
  <sodipodi:namedview id="namedview172" pagecolor="#ffffff" bordercolor="#000000" borderopacity="0.25"
    inkscape:showpageshadow="2" inkscape:pageopacity="0.0" inkscape:pagecheckerboard="0" inkscape:deskcolor="#d1d1d1"
    showgrid="false" inkscape:zoom="2.8284271" inkscape:cx="41.896077" inkscape:cy="77.074639"
    inkscape:window-width="1920" inkscape:window-height="1009" inkscape:window-x="-8" inkscape:window-y="-8"
    inkscape:window-maximized="1" inkscape:current-layer="svg170" showguides="false" />
  <g inkscape:groupmode="layer" id="layer9" inkscape:label="Logo10" transform="translate(-6.2319843,34.437856)"
    style="display:inline" inkscape:export-filename="logo6forGreyBG.svg" inkscape:export-xdpi="96"
    inkscape:export-ydpi="96"><a id="a34522" transform="matrix(0.55484943,0,0,0.52097503,69.51508,-27.994769)"
      style="display:inline;fill:#262626">
      <path id="path34514"
        style="display:inline;fill:#262626;fill-opacity:1;stroke:#262626;stroke-width:0;stroke-linecap:butt;stroke-linejoin:miter;stroke-miterlimit:0.7;stroke-dasharray:none;stroke-opacity:1;paint-order:fill markers stroke"
        d="M -113.98062,-3.2526969 V 0.97615259 H 76.136418 c 0.02864,-0.11587663 0.0504,-0.23850323 0.08096,-0.35240413 0.363072,-1.35294351 0.829741,-2.65032776 1.390439,-3.87644536 z m 205.323866,0 c -1.756623,0.7031579 -3.36423,2.2309139 -4.477566,4.22884949 h 8.219432 17.276648 154.39507 V -3.2526969 H 112.36176 109.49992 96.049619 95.085112 Z"
        sodipodi:nodetypes="ccccccccccccccccc" />
      <path
        style="display:inline;fill:#262626;fill-opacity:1;stroke:none;stroke-width:1.21455;stroke-linecap:round;stroke-dasharray:none;stroke-opacity:1;paint-order:normal"
        d="m 101.31167,-1.846464 c -1.23697,-1.6691903 -2.793347,-2.913479 -4.565709,-3.5933168 -1.374634,-0.5272785 -4.01036,-0.6292886 -5.455121,-0.2111419 -4.76775,1.3799193 -8.270674,6.7455268 -8.270674,12.6686819 0,1.713857 0.432618,5.5653338 1.152342,10.2589298 0.391295,2.551907 0.567976,4.23092 0.493098,4.686032 -0.168079,1.021666 -1.260816,2.27321 -2.142896,2.454382 -0.942405,0.193538 -2.18055,-0.457164 -2.648079,-1.391723 -0.367585,-0.734793 -1.214477,-5.784717 -1.803448,-10.753955 -0.523856,-4.4196716 -0.402517,-8.2536749 0.34996,-11.0576636 1.730318,-6.4478222 5.943102,-11.2814034 11.404112,-13.0846714 1.986779,-0.656058 5.532981,-0.662961 7.661417,-0.0143 3.667008,1.116409 7.002818,3.915261 9.115638,7.6482461 0.42876,0.7575529 0.94764,1.9556706 1.40736,3.1926768 -5.81662,-0.6932174 -3.91135,-0.4950255 -6.698,-0.8021729 z"
        id="path35659" inkscape:label="ata" sodipodi:nodetypes="csssssssssscscc" />
      <path
        style="display:inline;fill:#262626;fill-opacity:1;stroke:none;stroke-width:0.743985;stroke-dasharray:none;stroke-opacity:1"
        d="m 50.12721,93.499753 c -0.443889,-0.14524 -1.15906,-0.50621 -1.589231,-0.80195 -1.109778,-0.76293 -27.933286,-31.877114 -28.379726,-32.919316 -0.85417,-1.993996 -0.856719,-4.544953 -0.0061,-6.521083 0.235503,-0.547398 7.121319,-8.64906 20.337023,-23.928021 L 60.470149,6.2290022 61.441334,6.0722802 c 1.145413,-0.184786 10.019865,-0.165791 12.184176,0.02605 l 1.500934,0.133087 0.02815,2.584034 c 0.01588,1.4486458 0.187916,3.7440248 0.391713,5.2240978 0.356217,2.587211 0.356887,2.652606 0.03279,3.266081 -0.892708,1.689746 -1.136302,4.489967 -0.572286,6.578663 0.989182,3.663183 3.706886,5.984579 7.006281,5.984579 2.592108,0 4.680126,-1.274182 6.091319,-3.717152 1.175902,-2.035682 1.544587,-4.621379 0.997371,-6.995268 -0.346843,-1.504587 -0.758521,-2.30755 -1.883324,-3.673444 l -1.009395,-1.225709 -0.290268,-2.245442 c -0.272943,-2.1113888 -0.414824,-4.7257808 -0.26491,-4.8812998 0.118234,-0.122578 5.339935,0.693176 5.982852,0.934661 1.889563,0.709726 2.082996,1.407206 2.905939,10.4788258 0.873548,9.629277 1.04782,12.8415 1.057648,19.494467 0.0062,3.53656 -0.05507,6.79753 -0.134239,7.246616 -0.130217,0.739564 -2.035218,3.004399 -20.208895,24.026356 -18.015122,20.83854 -20.168903,23.26369 -21.081021,23.73688 -1.225027,0.63553 -2.911584,0.82354 -4.048608,0.45129 z M 48.468479,65.187941 c 0.0972,0 0.467152,0.228258 0.822309,0.507249 1.287057,1.01101 3.773253,1.921552 5.283497,1.935038 2.144886,0.01923 4.27615,-0.971061 5.798082,-2.693871 1.750799,-1.981874 2.462858,-3.641025 2.610138,-6.081948 0.123075,-2.040644 -0.313282,-4.004492 -1.78158,-8.016775 -1.736419,-4.744938 -1.96304,-5.87643 -1.434663,-7.163577 0.547905,-1.334765 2.086612,-1.738926 3.483695,-0.914983 1.605405,0.946793 3.72678,4.011675 4.822641,6.967613 0.281297,0.75872 0.556491,1.355818 0.611564,1.326849 0.880704,-0.463255 4.587735,-3.123901 4.587622,-3.292669 -5.36e-4,-0.79769 -1.805465,-4.305925 -3.059127,-5.945858 l -0.624194,-0.816536 1.488571,-1.739137 1.488555,-1.739149 -1.677522,-1.93118 -1.677525,-1.931168 -1.633382,1.865673 -1.633381,1.86566 -0.705446,-0.526429 c -1.864941,-1.391724 -4.392016,-2.065272 -6.395764,-1.704659 -2.511603,0.452039 -4.864141,2.47235 -5.942532,5.103405 -0.522001,1.273562 -0.552683,1.48125 -0.545909,3.696867 0.0087,2.702978 0.205256,3.511016 1.99175,8.169652 1.579425,4.118695 1.720601,5.818267 0.597619,7.194432 -0.895827,1.097822 -2.258718,1.124831 -3.807627,0.07556 -1.974513,-1.337668 -4.383448,-5.168317 -5.311816,-8.446743 -0.27677,-0.977339 -0.33433,-1.051022 -0.66254,-0.847962 -0.463021,0.286471 -4.446684,3.060601 -4.538974,3.160847 -0.146235,0.158955 0.731257,2.460414 1.531627,4.017148 0.458678,0.892129 1.239007,2.186398 1.734074,2.876162 l 0.900114,1.254121 -1.578953,1.916081 -1.578961,1.91607 1.646716,1.911577 1.646725,1.91154 1.684009,-1.939418 c 0.926201,-1.066692 1.763465,-1.93943 1.860588,-1.93943 z"
        id="path34518" inkscape:label="dolar"
        sodipodi:nodetypes="csscccccccssssssscscssccsscccscscssssssscccccccssscsscsscsscccccscc" />
    </a>
    <path id="path34566"
      style="font-style:normal;font-variant:normal;font-weight:normal;font-stretch:normal;font-size:85.9094px;font-family:'Kenyan Coffee';-inkscape-font-specification:'Kenyan Coffee';display:inline;fill:#262626;fill-opacity:1;stroke:none;stroke-width:11.0687;stroke-linecap:butt;stroke-linejoin:round;stroke-miterlimit:0.7;stroke-dasharray:none;stroke-opacity:1;paint-order:markers stroke fill"
      d="m 222.24142,-8.4177938 c -2.7491,0 -5.0125,0.1725715 -6.78796,0.5162087 -1.71819,0.2863644 -3.09307,0.9451292 -4.12398,1.9760409 -1.03091,0.9736389 -1.74599,2.4052127 -2.1469,4.2952177 -0.34364,1.89000489 -0.51709,4.3810035 -0.51709,7.4737388 V 60.310203 h 9.62178 v -15.12055 h 8.33413 v 15.12055 h 9.88032 V 5.8434123 c 0,-3.0927353 -0.19982,-5.55522283 -0.60073,-7.3879549 -0.40091,-1.8900049 -1.14743,-3.3215787 -2.23562,-4.2952176 -1.03091,-1.0309118 -2.48998,-1.7181876 -4.37998,-2.0618249 -1.83273,-0.3436372 -4.18033,-0.5162087 -7.04397,-0.5162087 z m -41.23725,0.8593446 v 8.24729938 h 7.47233 V 60.310203 h 9.88031 V 0.68885018 h 7.38869 V -7.5584492 Z m 59.10445,0 7.21632,32.3014212 -7.73087,35.567231 h 9.88031 l 5.4978,-30.32538 5.67015,30.32538 h 10.2225 l -8.0756,-35.567231 6.87414,-32.3014212 h -9.1934 l -4.81089,26.0301622 -5.41161,-26.0301622 z m 35.13873,0 V 60.310203 h 9.87778 V -7.5584492 Z m -52.8361,7.98994752 c 0.85909,0 1.5767,0.0855332 2.14943,0.25735186 0.57273,0.11454576 1.00127,0.37265042 1.28764,0.77356062 0.28636,0.3436372 0.48618,0.8868527 0.60072,1.6314001 0.11455,0.6872745 0.17236,1.6041439 0.17236,2.7496014 V 37.113921 h -8.33413 V 5.8434123 c 0,-1.1454575 0.0289,-2.0623269 0.0862,-2.7496014 0.11454,-0.7445474 0.31689,-1.2877629 0.60326,-1.6314001 0.34364,-0.4009102 0.77218,-0.65901486 1.28763,-0.77356062 0.57273,-0.17181863 1.28781,-0.25735186 2.14691,-0.25735186 z"
      transform="matrix(0.7705506,0,0,1.2977733,-2.1569,-2.874133)" inkscape:label="taxi" />
    <path id="path34568"
      style="font-style:normal;font-variant:normal;font-weight:normal;font-stretch:normal;font-size:56.945px;font-family:'Kenyan Coffee';-inkscape-font-specification:'Kenyan Coffee';display:inline;fill:#262626;fill-opacity:1;stroke:none;stroke-width:7.33697;stroke-linecap:butt;stroke-linejoin:round;stroke-miterlimit:0.7;stroke-dasharray:none;stroke-opacity:1;paint-order:markers stroke fill"
      inkscape:label="cat"
      d="m 36.891339,-22.570397 -5.809533,9.453355 h 4.101365 l 4.155955,-6.206202 4.157716,6.206202 h 4.099603 l -5.751419,-9.453355 z M 16.90225,-11.4079 c -1.860201,0 -3.397228,0.112316 -4.612053,0.340095 -1.214826,0.189817 -2.182583,0.62722 -2.9038861,1.3105594 -0.6833393,0.645376 -1.1571433,1.5936155 -1.4228864,2.8464042 -0.265743,1.2527888 -0.3997465,2.9062781 -0.3997465,4.9562961 V 25.207603 c 0,2.087981 0.1138538,3.757663 0.3416336,5.010451 0.2657431,1.252789 0.7413081,2.221553 1.4246474,2.904892 0.683339,0.645376 1.630947,1.062255 2.845773,1.252072 1.214825,0.22778 2.79039,0.342261 4.726518,0.342261 1.822239,0 3.322488,-0.114481 4.49935,-0.342261 1.176862,-0.189817 2.107843,-0.606696 2.791182,-1.252072 0.683339,-0.645376 1.138755,-1.595781 1.366535,-2.84857 0.265743,-1.252789 0.397985,-2.940828 0.397985,-5.066773 V 14.785951 H 19.63708 v 10.421652 c 0,0.797229 -0.03854,1.443072 -0.114465,1.936595 -0.03796,0.455559 -0.170205,0.815197 -0.397985,1.08094 -0.189817,0.265743 -0.474451,0.455824 -0.854084,0.569714 -0.34167,0.07593 -0.798846,0.112643 -1.368296,0.112643 -0.607412,0 -1.099605,-0.03672 -1.479238,-0.112643 -0.34167,-0.11389 -0.626304,-0.303971 -0.854084,-0.569714 -0.189816,-0.265743 -0.32382,-0.625381 -0.399747,-1.08094 -0.03796,-0.493523 -0.05635,-1.139366 -0.05635,-1.936595 V -1.9545453 c 0,-0.7213027 0.01839,-1.3099043 0.05635,-1.7654639 0.07593,-0.4935228 0.209931,-0.8736851 0.399747,-1.1394282 0.22778,-0.265743 0.512414,-0.4374659 0.854084,-0.5133925 0.379633,-0.1138899 0.871826,-0.1711309 1.479238,-0.1711309 0.56945,0 1.026626,0.057241 1.368296,0.1711309 0.379633,0.075927 0.664267,0.2476495 0.854084,0.5133925 0.22778,0.2277798 0.360022,0.5874176 0.397985,1.0809405 0.07593,0.4555595 0.114465,1.0646856 0.114465,1.8239516 V 8.2374882 h 6.320222 V -1.9545453 c 0,-2.0879813 -0.132242,-3.7414706 -0.397985,-4.9562961 -0.22778,-1.2527887 -0.683196,-2.2010282 -1.366535,-2.8464042 -0.683339,-0.6833394 -1.61432,-1.1207424 -2.791182,-1.3105594 -1.176862,-0.227779 -2.677111,-0.340095 -4.49935,-0.340095 z m 22.209707,0 c -1.822238,0 -3.322488,0.112316 -4.49935,0.340095 -1.138899,0.189817 -2.049729,0.62722 -2.733069,1.3105594 -0.683339,0.645376 -1.157143,1.5936155 -1.422886,2.8464042 -0.22778,1.2527888 -0.341634,2.9062781 -0.341634,4.9562961 V 34.147565 h 6.376574 V 24.124496 h 5.524251 v 10.023069 h 6.549151 V -1.9545453 c 0,-2.050018 -0.134003,-3.6829829 -0.399746,-4.8978083 -0.265743,-1.2527887 -0.757936,-2.2031945 -1.479239,-2.8485705 -0.683339,-0.6833389 -1.652857,-1.1391009 -2.905646,-1.3668809 -1.214826,-0.227779 -2.770241,-0.340095 -4.668406,-0.340095 z m 11.388374,0.569714 v 5.4653561 h 4.953688 V 34.147565 H 62.00317 V -5.3728299 h 4.897335 v -5.4653561 z m -11.27567,5.2942252 c 0.569449,0 1.045014,0.057241 1.424647,0.1711309 0.379633,0.075927 0.664268,0.2476495 0.854084,0.5133925 0.189817,0.2277798 0.322059,0.5874176 0.397986,1.0809405 0.07593,0.4555595 0.114465,1.0646856 0.114465,1.8239516 V 18.771783 H 36.491592 V -1.9545453 c 0,-0.759266 0.02015,-1.3683921 0.05811,-1.8239516 0.07593,-0.4935229 0.208169,-0.8531607 0.397986,-1.0809405 0.227779,-0.265743 0.512414,-0.4374659 0.854084,-0.5133925 0.379633,-0.1138899 0.853437,-0.1711309 1.422886,-0.1711309 z"
      transform="matrix(1.1091012,0,0,0.90163097,-2.1569,-2.874133)" />
    <path id="path34570"
      style="font-style:normal;font-variant:normal;font-weight:normal;font-stretch:normal;font-size:57.0119px;font-family:'Kenyan Coffee';-inkscape-font-specification:'Kenyan Coffee';display:inline;fill:#262626;fill-opacity:1;stroke:none;stroke-width:7.34559;stroke-linecap:butt;stroke-linejoin:round;stroke-miterlimit:0.7;stroke-dasharray:none;stroke-opacity:1;paint-order:markers stroke fill"
      inkscape:label="costa"
      d="m 92.365217,29.767974 c 0,3.306687 0.779138,5.68184 2.337462,7.12614 1.558323,1.4443 3.572636,2.167228 6.043151,2.167228 2.47051,0 4.48482,-0.722928 6.04315,-2.167228 1.55832,-1.4443 2.33746,-3.819453 2.33746,-7.12614 h -3.64743 c -0.038,1.216253 -0.1912,2.204386 -0.45725,2.964544 -0.22805,0.760157 -0.55115,1.369735 -0.96924,1.82583 -0.38008,0.418087 -0.8546,0.701463 -1.42472,0.853494 -0.57012,0.152032 -1.19783,0.229039 -1.88197,0.229039 -0.68414,0 -1.310092,-0.07701 -1.880211,-0.229039 -0.53211,-0.152031 -1.0084,-0.435407 -1.426487,-0.853494 -0.418087,-0.456095 -0.759673,-1.065673 -1.025728,-1.82583 -0.228048,-0.760158 -0.360985,-1.748291 -0.398993,-2.964544 z M 16.996218,40.943351 c -1.862387,0 -3.402175,0.113351 -4.618428,0.341398 -1.216252,0.19004 -2.185552,0.627431 -2.9077024,1.311573 -0.6841421,0.646134 -1.1586661,1.595763 -1.4247214,2.850023 -0.2660553,1.254261 -0.3989926,2.908646 -0.3989926,4.961072 v 27.192985 c 0,2.090435 0.1126853,3.762991 0.3407326,5.017252 0.2660553,1.254261 0.7423448,2.224222 1.4264869,2.908364 0.6841419,0.646134 1.6331899,1.063193 2.8494429,1.253232 1.216253,0.228048 2.79478,0.343559 4.733182,0.343559 1.824379,0 3.325429,-0.115511 4.503674,-0.343559 1.178244,-0.190039 2.108806,-0.607098 2.792948,-1.253232 0.684142,-0.646135 1.140179,-1.595763 1.368227,-2.850024 0.266055,-1.254261 0.398992,-2.947149 0.398992,-5.075592 v -10.43208 h -6.327387 v 10.43208 c 0,0.798166 -0.03874,1.446247 -0.114754,1.94035 -0.03801,0.456095 -0.170946,0.816478 -0.398993,1.082534 -0.19004,0.266055 -0.474401,0.456413 -0.85448,0.570436 -0.342071,0.07602 -0.798108,0.112359 -1.368227,0.112359 -0.608126,0 -1.102902,-0.03634 -1.482981,-0.112359 -0.342071,-0.114023 -0.626433,-0.304381 -0.85448,-0.570436 -0.190039,-0.266056 -0.322977,-0.626439 -0.398993,-1.082534 -0.03801,-0.494103 -0.05826,-1.142184 -0.05826,-1.94035 V 50.407417 c 0,-0.72215 0.02025,-1.311395 0.05826,-1.76749 0.07602,-0.494102 0.208954,-0.874818 0.398993,-1.140873 0.228047,-0.266056 0.512409,-0.436081 0.85448,-0.512097 0.380079,-0.114024 0.874855,-0.17286 1.482981,-0.17286 0.570119,0 1.026156,0.05884 1.368227,0.17286 0.380079,0.07602 0.66444,0.246041 0.85448,0.512097 0.228047,0.228047 0.360985,0.588431 0.398993,1.082533 0.07602,0.456095 0.114754,1.065673 0.114754,1.82583 V 60.61262 h 6.327387 V 50.407417 c 0,-2.090434 -0.132937,-3.744819 -0.398992,-4.961072 -0.228048,-1.25426 -0.684085,-2.203889 -1.368227,-2.850023 -0.684142,-0.684142 -1.614704,-1.121533 -2.792948,-1.311573 -1.178245,-0.228047 -2.679295,-0.341398 -4.503674,-0.341398 z m 22.461872,0 c -1.938402,0 -3.515164,0.113351 -4.731417,0.341398 -1.216252,0.19004 -2.167066,0.627431 -2.851208,1.311573 -0.684142,0.646134 -1.158666,1.595763 -1.424721,2.850023 -0.228048,1.216253 -0.342498,2.870638 -0.342498,4.961072 v 27.192985 c 0,2.090435 0.11445,3.762991 0.342498,5.017252 0.266055,1.254261 0.740579,2.224222 1.424721,2.908364 0.684142,0.646134 1.634956,1.063193 2.851208,1.253232 1.216253,0.228048 2.793015,0.343559 4.731417,0.343559 1.938403,0 3.515164,-0.115511 4.731417,-0.343559 1.216253,-0.190039 2.167066,-0.607098 2.851208,-1.253232 0.72215,-0.684142 1.196674,-1.654103 1.424722,-2.908364 0.266055,-1.254261 0.398992,-2.926817 0.398992,-5.017252 V 50.407417 c 0,-2.090434 -0.132937,-3.744819 -0.398992,-4.961072 -0.228048,-1.25426 -0.702572,-2.203889 -1.424722,-2.850023 C 46.356573,41.91218 45.40576,41.474789 44.189507,41.284749 42.973254,41.056702 41.396493,40.943351 39.45809,40.943351 Z m 22.520132,0 c -1.938403,0 -3.515164,0.113351 -4.731417,0.341398 -1.178244,0.19004 -2.110571,0.627431 -2.794713,1.311573 -0.646135,0.684142 -1.102172,1.654103 -1.368227,2.908363 -0.228048,1.254261 -0.342498,2.924657 -0.342498,5.015091 v 4.334456 c 0,1.064221 0.03874,1.957175 0.114754,2.679325 0.07602,0.72215 0.22744,1.36807 0.455487,1.938189 0.266055,0.570118 0.627894,1.102688 1.083989,1.596791 0.494103,0.456095 1.140303,0.950161 1.938469,1.482271 0.53211,0.342072 1.121085,0.702455 1.767219,1.082534 0.684142,0.380079 1.348829,0.760795 1.994963,1.140874 0.646134,0.342071 1.255361,0.684283 1.82548,1.026354 0.570118,0.304063 1.044642,0.587439 1.424721,0.853495 0.72215,0.494102 1.159701,1.008501 1.311732,1.540611 0.152032,0.532111 0.227744,1.406893 0.227744,2.623146 v 6.78258 c 0,1.558324 -0.171676,2.566789 -0.513747,3.022884 -0.304063,0.456094 -1.064714,0.682795 -2.280967,0.682795 -0.608126,0 -1.101137,-0.03634 -1.481216,-0.112359 -0.342071,-0.114023 -0.607945,-0.304381 -0.797985,-0.570436 -0.190039,-0.266056 -0.322977,-0.626439 -0.398993,-1.082534 -0.03801,-0.494103 -0.05826,-1.142184 -0.05826,-1.94035 v -8.949808 h -6.383881 v 8.949808 c 0,2.128443 0.132937,3.821331 0.398992,5.075592 0.266055,1.254261 0.740579,2.203889 1.424722,2.850024 0.684142,0.646134 1.614703,1.063193 2.792948,1.253232 1.178245,0.228048 2.699546,0.343559 4.561933,0.343559 1.938403,0 3.515164,-0.115511 4.731417,-0.343559 1.216253,-0.190039 2.167066,-0.607098 2.851208,-1.253232 0.684143,-0.684142 1.14018,-1.654103 1.368227,-2.908364 0.266056,-1.254261 0.398993,-2.926817 0.398993,-5.017252 v -7.238498 c 0,-1.25426 -0.05722,-2.301229 -0.171249,-3.137403 -0.07602,-0.836173 -0.266179,-1.55694 -0.570242,-2.165067 -0.266055,-0.608126 -0.703606,-1.158868 -1.311732,-1.65297 -0.570119,-0.494103 -1.329004,-1.047005 -2.279201,-1.655131 -1.292269,-0.798166 -2.49047,-1.462258 -3.592699,-1.994369 -1.064221,-0.53211 -1.919071,-1.008005 -2.565205,-1.426092 -0.760158,-0.456095 -1.234682,-0.893486 -1.424722,-1.311573 -0.190039,-0.456094 -0.286003,-1.140519 -0.286003,-2.052708 v -4.446815 c 0,-0.798166 0.01849,-1.444086 0.05649,-1.938189 0.07602,-0.494102 0.208954,-0.854486 0.398993,-1.082533 0.19004,-0.266056 0.45768,-0.436081 0.799751,-0.512097 0.380079,-0.114024 0.891576,-0.17286 1.53771,-0.17286 0.608127,0 1.102903,0.05884 1.482982,0.17286 0.380079,0.07602 0.666205,0.246041 0.856245,0.512097 0.190039,0.228047 0.302725,0.588431 0.340732,1.082533 0.07602,0.494103 0.114755,1.140023 0.114755,1.938189 v 5.587689 h 6.385647 v -5.587689 c 0,-2.090434 -0.132937,-3.76083 -0.398992,-5.015091 -0.228048,-1.25426 -0.684085,-2.224221 -1.368227,-2.908363 -0.684142,-0.684142 -1.634956,-1.121533 -2.851208,-1.311573 -1.178245,-0.228047 -2.73652,-0.341398 -4.674923,-0.341398 z m 38.539858,0 c -1.824375,0 -3.325424,0.113351 -4.503669,0.341398 -1.140237,0.19004 -2.052312,0.627431 -2.736454,1.311573 -0.684142,0.646134 -1.158666,1.595763 -1.424721,2.850023 -0.228048,1.254261 -0.342498,2.908646 -0.342498,4.961072 v 36.144955 h 6.385647 V 76.517869 h 5.529405 v 10.034503 h 6.55689 V 50.407417 c 0,-2.052426 -0.13293,-3.686479 -0.39899,-4.902732 -0.26605,-1.25426 -0.76083,-2.20605 -1.48298,-2.852184 -0.68414,-0.684142 -1.65344,-1.139705 -2.9077,-1.367752 -1.21626,-0.228047 -2.77453,-0.341398 -4.67493,-0.341398 z m -27.366299,0.570437 v 5.473169 h 4.960926 v 39.565415 h 6.556896 V 46.986957 h 4.902666 v -5.473169 z m -33.637196,5.300309 c 0.570118,0 1.026156,0.05884 1.368227,0.17286 0.380079,0.07602 0.666205,0.246041 0.856245,0.512097 0.228047,0.228047 0.360985,0.588431 0.398992,1.082533 0.07602,0.456095 0.11299,1.065673 0.11299,1.82583 v 27.192985 c 0,0.760158 -0.03697,1.387907 -0.11299,1.88201 -0.03801,0.456095 -0.170945,0.83681 -0.398992,1.140874 -0.19004,0.266055 -0.476166,0.456413 -0.856245,0.570436 -0.380079,0.07602 -0.87309,0.112359 -1.481216,0.112359 -0.570119,0 -1.044643,-0.03634 -1.424722,-0.112359 -0.342071,-0.114023 -0.628198,-0.304381 -0.856245,-0.570436 -0.190039,-0.266056 -0.322977,-0.626439 -0.398993,-1.082534 -0.03801,-0.494103 -0.05649,-1.142184 -0.05649,-1.94035 V 50.407417 c 0,-1.482307 0.169911,-2.452268 0.511982,-2.908363 0.342071,-0.456095 1.121208,-0.684957 2.337461,-0.684957 z m 61.118255,0 c 0.57012,0 1.04464,0.05884 1.42472,0.17286 0.38008,0.07602 0.66444,0.246041 0.85448,0.512097 0.19004,0.228047 0.32298,0.588431 0.39899,1.082533 0.076,0.456095 0.11476,1.065673 0.11476,1.82583 V 71.159219 H 97.896385 V 50.407417 c 0,-0.760157 0.01849,-1.369735 0.05649,-1.82583 0.07602,-0.494102 0.208954,-0.854486 0.398993,-1.082533 0.228047,-0.266056 0.512409,-0.436081 0.85448,-0.512097 0.380079,-0.114024 0.856372,-0.17286 1.426492,-0.17286 z"
      transform="matrix(1.1063018,0,0,0.90391247,-2.1569,-2.874133)" />
  </g>
</svg>