<?xml version="1.0" encoding="UTF-8" standalone="no"?>
<!-- Created with Inkscape (http://www.inkscape.org/) -->

<svg version="1.1" id="svg170" width="529.52319" height="209.77992" viewBox="0 0 529.52315 209.77995"
  sodipodi:docname="63329-OB8B61-908.svg" xml:space="preserve" inkscape:version="1.2.2 (732a01da63, 2022-12-09)"
  inkscape:export-filename="63329-OB8B615-908.svg" inkscape:export-xdpi="96" inkscape:export-ydpi="96"
  xmlns:inkscape="http://www.inkscape.org/namespaces/inkscape"
  xmlns:sodipodi="http://sodipodi.sourceforge.net/DTD/sodipodi-0.dtd" xmlns="http://www.w3.org/2000/svg"
  xmlns:svg="http://www.w3.org/2000/svg">
  <defs id="defs174" />
  <sodipodi:namedview id="namedview172" pagecolor="#134e4a" bordercolor="#000000" borderopacity="0.25"
    inkscape:showpageshadow="2" inkscape:pageopacity="0.0" inkscape:pagecheckerboard="0" inkscape:deskcolor="#d1d1d1"
    showgrid="false" inkscape:zoom="4.6313529" inkscape:cx="93.60116" inkscape:cy="63.91221"
    inkscape:window-width="1920" inkscape:window-height="1009" inkscape:window-x="1912" inkscape:window-y="-8"
    inkscape:window-maximized="1" inkscape:current-layer="g178" showguides="false" />
  <g id="g178" inkscape:groupmode="layer" inkscape:label="Page 1"
    transform="matrix(1.3333333,0,0,-1.3333333,158.40602,1087.0463)" style="display:inline">

    <path id="text1373-5"
      style="font-style:normal;font-variant:normal;font-weight:normal;font-stretch:normal;font-size:56px;font-family:'Kenyan Coffee';-inkscape-font-specification:'Kenyan Coffee';display:inline;fill:#134e4a;fill-opacity:1;stroke-width:0.75"
      d="m -70.034006,759.66315 -5.711425,-9.2959 h 4.03125 l 4.088379,6.104 4.088379,-6.104 h 4.03125 l -5.655762,9.2959 z m 109.592288,0 c 0,-3.248 0.764745,-5.58183 2.295411,-7.00049 1.530665,-1.41867 3.510347,-2.12842 5.937011,-2.12842 2.426665,0 4.404882,0.70975 5.935547,2.12842 1.530666,1.41866 2.295411,3.75249 2.295411,7.00049 h -3.583008 c -0.03733,-1.19467 -0.186909,-2.16545 -0.448242,-2.91211 -0.224,-0.74667 -0.541483,-1.34351 -0.952149,-1.79151 -0.373333,-0.41066 -0.840391,-0.69148 -1.400391,-0.84082 -0.559999,-0.14933 -1.175168,-0.22412 -1.847168,-0.22412 -0.671999,0 -1.288633,0.0748 -1.848632,0.22412 -0.522667,0.14934 -0.989725,0.43016 -1.400391,0.84082 -0.410666,0.448 -0.74648,1.04484 -1.007813,1.79151 -0.223999,0.74666 -0.35378,1.71744 -0.391113,2.91211 z m 82.208498,-0.84082 v -5.82276 h 5.65576 v 5.82276 z M -55.193673,758.31842 V 748.1275 h -2.072754 v -4.64795 h 2.072754 V 721.6944 c 0,-1.232 0.12978,-2.2959 0.391113,-3.1919 0.261333,-0.896 0.710061,-1.64241 1.344727,-2.23974 0.634666,-0.56 1.474199,-0.98893 2.519531,-1.2876 1.045332,-0.26133 2.333593,-0.39258 3.864258,-0.39258 h 1.456055 v 4.87207 h -1.063477 c -1.119999,0 -1.866413,0.20603 -2.239746,0.6167 -0.373333,0.41067 -0.561035,1.19374 -0.561035,2.35107 v 21.05713 h 3.919922 v 4.64795 h -3.919922 v 10.19092 z m 82.208498,0 V 748.1275 h -2.072754 v -4.64795 h 2.072754 V 721.6944 c 0,-1.232 0.12978,-2.2959 0.391113,-3.1919 0.261333,-0.896 0.710061,-1.64241 1.344727,-2.23974 0.634666,-0.56 1.474199,-0.98893 2.519531,-1.2876 1.045332,-0.26133 2.333593,-0.39258 3.864258,-0.39258 h 1.456055 v 4.87207 h -1.064942 c -1.119998,0 -1.866413,0.20603 -2.239746,0.6167 -0.373333,0.41067 -0.55957,1.19374 -0.55957,2.35107 v 21.05713 h 3.919922 v 4.64795 h -3.919922 v 10.19092 z m 42.670895,0 V 748.1275 h -2.071285 v -4.64795 H 69.68572 V 721.6944 c 0,-1.232 0.13125,-2.2959 0.39258,-3.1919 0.26134,-0.896 0.7086,-1.64241 1.34326,-2.23974 0.63467,-0.56 1.47567,-0.98893 2.521,-1.2876 1.04533,-0.26133 2.33359,-0.39258 3.86426,-0.39258 h 1.45605 v 4.87207 h -1.06494 c -1.12,0 -1.86641,0.20603 -2.23974,0.6167 -0.37334,0.41067 -0.55957,1.19374 -0.55957,2.35107 v 21.05713 h 3.91992 v 4.64795 h -3.91992 v 10.19092 z m -156.911132,-9.63135 c -1.567999,0 -2.856259,-0.0931 -3.864258,-0.27978 -1.007999,-0.14933 -1.79254,-0.48515 -2.35254,-1.00781 -0.56,-0.48534 -0.95227,-1.19509 -1.17627,-2.12842 -0.224,-0.93333 -0.33545,-2.16514 -0.33545,-3.6958 v -20.44043 c 0,-1.53067 0.0931,-2.76247 0.27979,-3.6958 0.224,-0.93334 0.6346,-1.66142 1.23193,-2.18409 0.59733,-0.48533 1.400205,-0.80281 2.408204,-0.95214 1.045332,-0.18667 2.408381,-0.27979 4.088379,-0.27979 1.493332,0 2.725135,0.0748 3.695801,0.22412 0.970665,0.14933 1.735411,0.46682 2.29541,0.95215 0.597333,0.48533 1.007934,1.19362 1.231934,2.12695 0.223999,0.97067 0.336914,2.2406 0.336914,3.8086 v 9.24023 h -5.208985 v -8.68066 c 0,-0.93334 -0.148111,-1.56684 -0.446777,-1.90283 -0.298667,-0.336 -0.971758,-0.50538 -2.01709,-0.50538 -0.970666,0 -1.604166,0.14958 -1.902832,0.44825 -0.298666,0.336 -0.448242,0.98929 -0.448242,1.95996 v 19.26416 c 0,0.97066 0.12978,1.60563 0.391113,1.90429 0.298666,0.29867 0.990088,0.44825 2.072754,0.44825 0.970666,0 1.60563,-0.14958 1.904297,-0.44825 0.298666,-0.29866 0.446777,-0.93363 0.446777,-1.90429 v -5.26319 h 5.208985 v 5.87989 c 0,1.49333 -0.09312,2.7068 -0.279785,3.64013 -0.186667,0.93334 -0.560607,1.66142 -1.120606,2.18409 -0.559999,0.52266 -1.362871,0.85848 -2.408203,1.00781 -1.007999,0.18666 -2.351252,0.27978 -4.03125,0.27978 z m 19.26416,0 c -1.567998,0 -2.837928,-0.0748 -3.808593,-0.22412 -0.970666,-0.14933 -1.735411,-0.46681 -2.295411,-0.95215 -0.559999,-0.48533 -0.952269,-1.21341 -1.176269,-2.18408 -0.186667,-0.93333 -0.279785,-2.18346 -0.279785,-3.75146 v -3.97705 h 5.207519 v 3.30468 c 0,1.15734 0.131245,1.92208 0.392578,2.29541 0.298667,0.41067 0.988624,0.6167 2.07129,0.6167 0.970665,0 1.60563,-0.18623 1.904296,-0.55957 0.298667,-0.37333 0.448243,-1.15787 0.448243,-2.35254 v -6.94336 c -0.261333,0.14934 -0.653604,0.26079 -1.17627,0.33545 -0.522666,0.112 -1.418656,0.16846 -2.687988,0.16846 h -1.064942 c -1.866664,0 -3.191587,-0.46706 -3.975586,-1.40039 -0.746666,-0.93333 -1.11914,-2.40783 -1.11914,-4.42383 v -8.11963 c 0,-1.456 0.09312,-2.61448 0.279785,-3.47314 0.224,-0.85867 0.61627,-1.51196 1.176269,-1.95996 0.56,-0.448 1.324745,-0.72736 2.295411,-0.83936 1.007999,-0.14933 2.296259,-0.22412 3.864257,-0.22412 1.829332,0 3.43361,0.0565 4.814942,0.16846 1.418665,0.0747 2.464231,0.20444 3.136231,0.39111 v 26.99268 c 0,1.568 -0.11145,2.81813 -0.33545,3.75146 -0.223999,0.93333 -0.634601,1.64309 -1.231933,2.12842 -0.56,0.52267 -1.362871,0.85848 -2.408204,1.00781 -1.045332,0.14934 -2.388585,0.22412 -4.03125,0.22412 z m 42.839357,0 c -1.567998,0 -2.856259,-0.0931 -3.864258,-0.27978 -1.007999,-0.14933 -1.791075,-0.48515 -2.351074,-1.00781 -0.56,-0.48534 -0.95227,-1.19509 -1.17627,-2.12842 -0.224,-0.93333 -0.336914,-2.16514 -0.336914,-3.6958 v -20.44043 c 0,-1.53067 0.09458,-2.76247 0.28125,-3.6958 0.224,-0.93334 0.634601,-1.66142 1.231934,-2.18409 0.597332,-0.48533 1.398739,-0.80281 2.406738,-0.95214 1.045332,-0.18667 2.408381,-0.27979 4.088379,-0.27979 1.493332,0 2.725135,0.0748 3.695801,0.22412 0.970666,0.14933 1.736876,0.46682 2.296875,0.95215 0.597333,0.48533 1.007934,1.19362 1.231934,2.12695 0.223999,0.97067 0.335449,2.2406 0.335449,3.8086 v 9.24023 h -5.20752 v -8.68066 c 0,-0.93334 -0.149576,-1.56684 -0.448242,-1.90283 -0.298666,-0.336 -0.970293,-0.50538 -2.015625,-0.50538 -0.970666,0 -1.605631,0.14958 -1.904297,0.44825 -0.298666,0.336 -0.448242,0.98929 -0.448242,1.95996 v 19.26416 c 0,0.97066 0.131245,1.60563 0.392578,1.90429 0.298666,0.29867 0.988624,0.44825 2.071289,0.44825 0.970666,0 1.605631,-0.14958 1.904297,-0.44825 0.298666,-0.29866 0.448242,-0.93363 0.448242,-1.90429 v -5.26319 h 5.20752 v 5.87989 c 0,1.49333 -0.09312,2.7068 -0.279785,3.64013 -0.186667,0.93334 -0.560606,1.66142 -1.120606,2.18409 -0.559999,0.52266 -1.361406,0.85848 -2.406738,1.00781 -1.007999,0.18666 -2.352717,0.27978 -4.032715,0.27978 z m 19.712403,0 c -1.642665,0 -2.987383,-0.0748 -4.032715,-0.22412 -1.045332,-0.14933 -1.866535,-0.48514 -2.463867,-1.00781 -0.597333,-0.48533 -1.007934,-1.19509 -1.231934,-2.12842 -0.186667,-0.93333 -0.279785,-2.18346 -0.279785,-3.75146 v -20.44043 c 0,-1.568 0.09312,-2.81814 0.279785,-3.75147 0.224,-0.93333 0.634601,-1.66141 1.231934,-2.18408 0.597332,-0.48533 1.418535,-0.80282 2.463867,-0.95215 1.045332,-0.14933 2.39005,-0.22412 4.032715,-0.22412 1.642665,0 2.9859179,0.0748 4.0312499,0.22412 1.04533204,0.14933 1.84820404,0.46682 2.4082031,0.95215 0.597333,0.52267 1.007934,1.25075 1.231934,2.18408 0.224,0.93333 0.336914,2.18347 0.336914,3.75147 v 20.44043 c 0,1.568 -0.112914,2.81813 -0.336914,3.75146 -0.224,0.93333 -0.634601,1.64309 -1.231934,2.12842 -0.55999906,0.52267 -1.36287106,0.85848 -2.4082031,1.00781 -1.045332,0.14934 -2.3885849,0.22412 -4.0312499,0.22412 z m 19.992188,0 c -1.679999,0 -3.043047,-0.0748 -4.088379,-0.22412 -1.045332,-0.14933 -1.866535,-0.48514 -2.463867,-1.00781 -0.56,-0.48533 -0.95227,-1.21342 -1.17627,-2.18408 -0.224,-0.93333 -0.335449,-2.18347 -0.335449,-3.75147 v -4.08838 c 0,-0.896 0.03666,-1.66221 0.111328,-2.29687 0.112,-0.59733 0.298237,-1.13772 0.55957,-1.62305 0.261333,-0.448 0.616942,-0.8586 1.064942,-1.23193 0.447999,-0.37333 1.026507,-0.74727 1.73584,-1.12061 0.447999,-0.26133 0.8586,-0.48569 1.231933,-0.67236 0.373333,-0.14933 0.727477,-0.29744 1.063477,-0.44678 0.373333,-0.112 0.747272,-0.24324 1.120605,-0.39258 0.373333,-0.14933 0.783934,-0.33557 1.231934,-0.55957 0.522666,-0.224 0.933267,-0.44836 1.231933,-0.67236 0.298667,-0.18667 0.523031,-0.3927 0.672364,-0.6167 0.186666,-0.224 0.298116,-0.48502 0.335449,-0.78369 0.07467,-0.29867 0.111328,-0.67114 0.111328,-1.11914 v -4.08838 c 0,-0.97067 -0.12978,-1.62396 -0.391113,-1.95996 -0.261333,-0.336 -0.93296,-0.50391 -2.015625,-0.50391 -1.045333,0 -1.718424,0.14958 -2.01709,0.44825 -0.298666,0.33599 -0.446777,1.00762 -0.446777,2.01562 v 4.53516 H 6.518731 v -5.15186 c 0,-1.568 0.111449,-2.83646 0.335449,-3.80713 0.224,-0.93333 0.634601,-1.66141 1.231934,-2.18408 0.597332,-0.48533 1.418535,-0.80282 2.463867,-0.95215 1.045332,-0.14933 2.39005,-0.22412 4.032715,-0.22412 1.679998,0 3.023251,0.0748 4.03125,0.22412 1.045332,0.14933 1.848204,0.46682 2.408203,0.95215 0.597333,0.52267 0.989603,1.25075 1.17627,2.18408 0.223999,0.97067 0.335449,2.23913 0.335449,3.80713 v 6.2168 c 0,0.63466 -0.03666,1.19484 -0.111328,1.68017 -0.07467,0.52267 -0.224243,0.98826 -0.448242,1.39893 -0.224,0.448 -0.559813,0.8586 -1.007813,1.23193 -0.448,0.37334 -1.046303,0.76561 -1.792969,1.17627 -0.261333,0.14934 -0.615477,0.31724 -1.063476,0.50391 -0.410667,0.18667 -0.839599,0.37437 -1.287598,0.56103 -0.410666,0.224 -0.802937,0.41024 -1.17627,0.55957 -0.335999,0.14934 -0.560363,0.26079 -0.672363,0.33545 -0.634666,0.26134 -1.138386,0.4857 -1.511719,0.67237 -0.373333,0.224 -0.652689,0.44836 -0.839355,0.67236 -0.186667,0.26133 -0.317912,0.54069 -0.392578,0.83936 -0.07467,0.29866 -0.111328,0.70926 -0.111328,1.23193 v 2.68799 c 0,0.97066 0.12978,1.60563 0.391113,1.90429 0.261333,0.336 0.932959,0.50391 2.015625,0.50391 1.082665,0 1.755757,-0.16791 2.01709,-0.50391 0.298666,-0.29866 0.446777,-0.93363 0.446777,-1.90429 v -2.51953 h 5.544434 v 3.08056 c 0,1.568 -0.11145,2.81814 -0.335449,3.75147 -0.186667,0.97066 -0.578937,1.69875 -1.17627,2.18408 -0.559999,0.52267 -1.362871,0.85848 -2.408203,1.00781 -1.045332,0.14934 -2.388585,0.22412 -4.03125,0.22412 z m 32.871094,0 c -1.567998,0 -2.836463,-0.0748 -3.807129,-0.22412 -0.970665,-0.14933 -1.736875,-0.46681 -2.296875,-0.95215 -0.559999,-0.48533 -0.95227,-1.21341 -1.176269,-2.18408 -0.186667,-0.93333 -0.279785,-2.18346 -0.279785,-3.75146 v -3.97705 h 5.208984 v 3.30468 c 0,1.15734 0.12978,1.92208 0.391113,2.29541 0.298667,0.41067 0.990089,0.6167 2.072754,0.6167 0.970666,0 1.604166,-0.18623 1.902832,-0.55957 0.298667,-0.37333 0.448243,-1.15787 0.448243,-2.35254 v -6.94336 c -0.261333,0.14934 -0.652139,0.26079 -1.174805,0.33545 -0.522666,0.112 -1.420121,0.16846 -2.689453,0.16846 h -1.063477 c -1.866665,0 -3.191587,-0.46706 -3.975586,-1.40039 -0.746666,-0.93333 -1.120605,-2.40783 -1.120605,-4.42383 v -8.11963 c 0,-1.456 0.09312,-2.61448 0.279785,-3.47314 0.223999,-0.85867 0.61627,-1.51196 1.176269,-1.95996 0.56,-0.448 1.32621,-0.72736 2.296875,-0.83936 1.007999,-0.14933 2.294795,-0.22412 3.862793,-0.22412 1.829332,0 3.435075,0.0565 4.816407,0.16846 1.418665,0.0747 2.464231,0.20444 3.13623,0.39111 v 26.99268 c 0,1.568 -0.111449,2.81813 -0.335449,3.75146 -0.224,0.93333 -0.634601,1.64309 -1.231934,2.12842 -0.559999,0.52267 -1.36287,0.85848 -2.408203,1.00781 -1.045332,0.14934 -2.39005,0.22412 -4.032715,0.22412 z m 42.67237,0 c -1.568,0 -2.83793,-0.0748 -3.8086,-0.22412 -0.97066,-0.14933 -1.73541,-0.46681 -2.29541,-0.95215 -0.56,-0.48533 -0.95227,-1.21341 -1.17627,-2.18408 -0.18666,-0.93333 -0.27978,-2.18346 -0.27978,-3.75146 v -3.97705 h 5.20752 v 3.30468 c 0,1.15734 0.13124,1.92208 0.39257,2.29541 0.29867,0.41067 0.98863,0.6167 2.07129,0.6167 0.97067,0 1.60563,-0.18623 1.9043,-0.55957 0.29867,-0.37333 0.44824,-1.15787 0.44824,-2.35254 v -6.94336 c -0.26133,0.14934 -0.6536,0.26079 -1.17627,0.33545 -0.52266,0.112 -1.41865,0.16846 -2.68799,0.16846 h -1.06347 c -1.86667,0 -3.19159,-0.46706 -3.97559,-1.40039 -0.74666,-0.93333 -1.1206,-2.40783 -1.1206,-4.42383 v -8.11963 c 0,-1.456 0.0931,-2.61448 0.27978,-3.47314 0.224,-0.85867 0.61627,-1.51196 1.17627,-1.95996 0.56,-0.448 1.32475,-0.72736 2.29541,-0.83936 1.008,-0.14933 2.29626,-0.22412 3.86426,-0.22412 1.82933,0 3.43507,0.0565 4.81641,0.16846 1.41866,0.0747 2.46423,0.20444 3.13623,0.39111 v 26.99268 c 0,1.568 -0.11292,2.81813 -0.33692,3.75146 -0.224,0.93333 -0.6346,1.64309 -1.23193,2.12842 -0.56,0.52267 -1.36141,0.85848 -2.40674,1.00781 -1.04533,0.14934 -2.39005,0.22412 -4.03271,0.22412 z m 10.80761,-0.55957 4.36817,-15.84814 -4.64795,-17.69678 h 5.76855 l 3.1919,14.896 3.24756,-14.896 h 5.99267 l -4.64795,17.58399 3.97559,15.96093 h -5.37598 l -2.85644,-12.8247 -3.07911,12.8247 z m 20.83301,0 v -33.54492 h 5.65576 V 748.1275 Z M -5.298164,743.3111 c 0.970666,0 1.605631,-0.14958 1.904297,-0.44825 0.298666,-0.29866 0.448242,-0.93363 0.448242,-1.90429 V 721.6944 c 0,-0.93334 -0.149576,-1.56684 -0.448242,-1.90283 -0.261333,-0.336 -0.932959,-0.50538 -2.015625,-0.50538 -1.045332,0 -1.718424,0.14958 -2.01709,0.44825 -0.298666,0.336 -0.446777,0.98929 -0.446777,1.95996 v 19.26416 c 0,0.97066 0.148111,1.60563 0.446777,1.90429 0.336,0.29867 1.045752,0.44825 2.128418,0.44825 z m -62.327638,-13.16016 c 0.410666,0 0.802936,-0.0183 1.176269,-0.0557 0.373333,-0.0373 0.690816,-0.13046 0.952149,-0.27979 v -10.97607 c -0.298667,-0.0747 -0.990089,-0.1128 -2.072754,-0.1128 -0.634666,0 -1.138386,0.0381 -1.511719,0.1128 -0.373333,0.0747 -0.652689,0.22277 -0.839356,0.44677 -0.186666,0.224 -0.29958,0.54149 -0.336914,0.95215 -0.03733,0.41067 -0.05566,0.97085 -0.05566,1.68018 v 5.26465 c 0,0.59733 0.01833,1.08272 0.05566,1.45605 0.03733,0.41067 0.150248,0.72815 0.336914,0.95215 0.186667,0.224 0.447692,0.37358 0.783692,0.44824 0.373333,0.0747 0.877053,0.11133 1.511719,0.11133 z m 115.416506,0 c 0.410667,0 0.801472,-0.0183 1.174805,-0.0557 0.373333,-0.0373 0.690816,-0.13046 0.952149,-0.27979 v -10.97607 c -0.298667,-0.0747 -0.988624,-0.1128 -2.07129,-0.1128 -0.634666,0 -1.138385,0.0381 -1.511718,0.1128 -0.373333,0.0747 -0.654154,0.22277 -0.840821,0.44677 -0.186666,0.224 -0.298116,0.54149 -0.335449,0.95215 -0.03733,0.41067 -0.05566,0.97085 -0.05566,1.68018 v 5.26465 c 0,0.59733 0.01833,1.08272 0.05566,1.45605 0.03733,0.41067 0.148783,0.72815 0.335449,0.95215 0.186667,0.224 0.447692,0.37358 0.783692,0.44824 0.373333,0.0747 0.878517,0.11133 1.513183,0.11133 z m 42.670896,0 c 0.41067,0 0.80294,-0.0183 1.17627,-0.0557 0.37334,-0.0373 0.69082,-0.13046 0.95215,-0.27979 v -10.97607 c -0.29866,-0.0747 -0.98862,-0.1128 -2.07129,-0.1128 -0.63466,0 -1.13985,0.0381 -1.51318,0.1128 -0.37333,0.0747 -0.65269,0.22277 -0.83936,0.44677 -0.18666,0.224 -0.29811,0.54149 -0.33545,0.95215 -0.0373,0.41067 -0.0571,0.97085 -0.0571,1.68018 v 5.26465 c 0,0.59733 0.0198,1.08272 0.0571,1.45605 0.0373,0.41067 0.14879,0.72815 0.33545,0.95215 0.18667,0.224 0.4477,0.37358 0.7837,0.44824 0.37333,0.0747 0.87705,0.11133 1.51171,0.11133 z" />
  </g>
  <g inkscape:groupmode="layer" id="layer2" inkscape:label="Money" style="display:inline"
    transform="translate(158.40602,20.37964)">
    <path style="display:none;fill:#134e4a;fill-opacity:1;stroke-width:0.196934"
      d="m 152.26501,115.56929 c -7.62213,-1.66645 -13.10605,-8.44138 -13.48875,-16.664161 -0.24396,-5.24214 1.36349,-9.85641 4.71236,-13.52716 3.16625,-3.47058 6.8242,-5.19595 11.49192,-5.42043 l 2.42935,-0.11682 -0.007,-11.04316 c -0.005,-8.03752 0.0541,-11.16937 0.21636,-11.50683 0.68579,-1.42595 3.40773,-2.65882 7.52381,-3.40779 9.23644,-1.6807 22.08957,-0.50455 25.59226,2.34186 1.29398,1.05156 1.2139,-0.39828 1.2139,21.97358 0,20.02393 -0.006,20.28408 -0.39118,21.13444 -1.27269,2.801061 -6.34172,4.278561 -15.44449,4.501701 l -4.48359,0.10991 -0.88819,1.9524 c -2.26559,4.98046 -6.55565,8.4846 -11.85964,9.68702 -1.58973,0.36041 -4.93619,0.35305 -6.6175,-0.0146 z m 7.92501,-2.76314 c 5.16341,-1.8242 8.89845,-6.38338 9.92854,-12.11929 1.21594,-6.771071 -2.04731,-13.666521 -7.97209,-16.845431 -2.15046,-1.15381 -3.91903,-1.58124 -6.54261,-1.58124 -1.78129,0 -2.61947,0.0993 -3.77605,0.44723 -5.10351,1.53542 -9.03171,5.72024 -10.47251,11.15664 -0.59168,2.23259 -0.59187,5.81614 0,8.047821 1.56371,5.89999 5.84808,10.16878 11.48248,11.44067 0.78744,0.17775 2.00927,0.25154 3.3471,0.20214 1.74707,-0.0645 2.43124,-0.19236 4.00556,-0.74854 z m -7.63882,-3.20254 c -3.89869,-1.19572 -7.00007,-4.6264 -8.01037,-8.86089 -0.15897,-0.66636 -0.28905,-1.950631 -0.28905,-2.853971 0,-6.70584 5.05808,-12.0949 11.35208,-12.0949 3.08005,0 5.84211,1.22041 8.00735,3.53808 2.26803,2.42759 3.34475,5.18214 3.34475,8.55682 0,3.380511 -1.08608,6.182911 -3.3175,8.560361 -1.49098,1.58858 -3.24912,2.67221 -5.21677,3.21546 -1.53324,0.42328 -4.3882,0.39364 -5.87049,-0.061 z m 5.07924,-1.33528 c 5.0664,-1.14416 8.55108,-6.39656 7.83031,-11.802511 -0.85218,-6.39194 -6.96292,-10.56169 -12.72668,-8.6843 -7.39434,2.40849 -9.46965,12.487711 -3.70679,18.002801 2.39903,2.29587 5.48754,3.18763 8.60316,2.48401 z m -3.33032,-2.07916 c -0.07,-0.0745 -0.1272,-0.47169 -0.1272,-0.88257 0,-0.68644 -0.058,-0.76588 -0.71546,-0.97936 -1.02643,-0.33327 -1.95561,-0.99067 -1.95561,-1.38355 0,-0.60426 0.82042,-2.75343 1.09372,-2.86517 0.14634,-0.0598 0.71257,0.13192 1.25833,0.4261 1.35788,0.73198 2.41773,0.69606 2.41773,-0.082 0,-0.25775 -0.39092,-0.565671 -1.28784,-1.014411 -1.79048,-0.89579 -2.51148,-1.5297 -2.95509,-2.59818 -0.72305,-1.74153 -0.002,-4.10643 1.4834,-4.86076 0.56144,-0.28526 0.66082,-0.43911 0.66082,-1.02295 0,-1.22701 0.25387,-1.47355 1.51744,-1.47355 1.54411,0 1.72601,0.10435 1.72601,0.99014 0,0.71311 0.0466,0.76525 1.14477,1.2824 0.86149,0.40566 1.14475,0.64201 1.14475,0.95511 0,0.6601 -0.77306,2.68414 -1.07177,2.80627 -0.14923,0.061 -0.70527,-0.0879 -1.23553,-0.33096 -0.96443,-0.44204 -1.87845,-0.49552 -1.92867,-0.11288 -0.0147,0.1118 0.6253,0.56948 1.42216,1.01705 1.56556,0.87933 2.32968,1.53803 2.71102,2.337 0.95151,1.993541 0.13153,4.641211 -1.75742,5.674481 -0.31718,0.17347 -0.42931,0.41444 -0.42931,0.92251 0,1.25343 -0.0936,1.33076 -1.61033,1.33076 -0.7583,0 -1.43597,-0.061 -1.50592,-0.13552 z m 1.59285,-1.94806 c 0.004,-0.85619 0.14139,-1.06022 0.95994,-1.42325 1.65195,-0.73269 2.24215,-2.69724 1.20496,-4.010591 -0.27682,-0.35048 -1.17182,-0.99536 -1.98892,-1.43307 -1.64857,-0.88313 -2.08682,-1.38425 -2.08682,-2.38626 0,-1.05184 0.74945,-1.67289 2.01875,-1.67289 0.55499,0 1.23565,0.0918 1.51259,0.20397 0.42897,0.17378 0.4942,0.15261 0.44078,-0.14297 -0.04,-0.22163 -0.37246,-0.42688 -0.92035,-0.56827 -0.80734,-0.20836 -0.86114,-0.26558 -0.91689,-0.97505 -0.0768,-0.97794 -0.37763,-0.97321 -0.45393,0.007 -0.0525,0.67505 -0.15258,0.80784 -0.8871,1.17747 -1.09192,0.54952 -1.54749,1.21031 -1.55278,2.25223 -0.006,1.16209 0.55362,1.83311 2.20717,2.64708 1.48584,0.73143 2.36761,1.63907 2.36761,2.437111 0,0.74131 -0.47456,1.58939 -1.04405,1.86585 -0.6101,0.29617 -2.18222,0.31705 -2.87078,0.0381 -0.57232,-0.23181 -1.00286,-0.0748 -0.69481,0.25343 0.10639,0.11334 0.65049,0.31528 1.20908,0.44873 1.0137,0.24216 1.01576,0.24425 1.07431,1.09225 0.0689,0.99758 0.41698,1.15374 0.42124,0.18899 z m 23.06286,-2.80554 c 6.09005,-0.46516 10.23613,-1.684191 10.88577,-3.200661 0.18215,-0.42505 0.2965,-3.90348 0.12843,-3.90348 -0.0394,0 -0.55056,0.22565 -1.13593,0.50146 -2.802,1.32027 -8.03153,2.13561 -13.72182,2.13937 l -2.62338,0.002 v 1.39455 c 0,0.76702 -0.0548,1.818971 -0.12133,2.337671 l -0.12133,0.94312 1.98154,-0.002 c 1.08984,-0.002 3.21746,-0.0964 4.72805,-0.21177 z m -0.36161,-6.901291 c 1.52156,-0.10872 3.41039,-0.29693 4.19741,-0.41822 3.59826,-0.55464 6.59207,-1.72093 7.02678,-2.73741 0.12324,-0.28821 0.22328,-1.43889 0.22328,-2.56894 0,-1.85741 -0.031,-2.03633 -0.33388,-1.93268 -0.18364,0.0628 -1.06223,0.39882 -1.95239,0.74671 -0.89022,0.34789 -2.57539,0.80682 -3.74494,1.01983 -2.88363,0.52527 -8.44996,0.87978 -11.21309,0.71419 -1.83893,-0.11022 -2.24728,-0.0853 -2.16167,0.13205 0.82041,2.08209 1.10683,2.90808 1.29858,3.74486 0.12544,0.54732 0.31206,1.10946 0.41467,1.24921 0.22829,0.31088 2.35907,0.32807 6.24525,0.0504 z m 1.74455,-7.73175 c 4.6906,-0.50088 7.93011,-1.40972 9.05548,-2.54052 l 0.64744,-0.65056 v -2.58469 c 0,-1.9883 -0.0548,-2.56046 -0.23849,-2.47962 -0.13117,0.0578 -1.01119,0.37644 -1.95561,0.70813 -3.58598,1.2594 -8.18905,1.75622 -14.78631,1.59592 -5.90857,-0.14358 -10.30243,-0.82362 -12.738,-1.97151 -0.47119,-0.22206 -0.88873,-0.40375 -0.92784,-0.40375 -0.0393,0 -0.0711,0.40515 -0.0711,0.90031 v 0.90033 l 1.09377,0.33877 c 2.70548,0.83797 5.10527,2.39181 7.24452,4.69072 1.04041,1.11803 1.52728,1.49712 2.00331,1.5597 1.36714,0.17974 8.81038,0.13565 10.67286,-0.0633 z m -0.40901,-9.35322 c 5.20502,-0.50323 8.97965,-1.61029 9.81311,-2.87812 0.22632,-0.34426 0.29882,-0.98585 0.29882,-2.64531 0,-1.20493 -0.0322,-2.1908 -0.0717,-2.1908 -0.0394,0 -0.54763,0.22428 -1.12937,0.49837 -3.24023,1.52675 -9.08732,2.28612 -16.06557,2.08647 -5.68397,-0.16263 -9.75265,-0.85155 -12.2643,-2.07667 -0.57303,-0.27948 -1.07439,-0.50817 -1.11416,-0.50817 -0.0399,0 -0.0723,1.04528 -0.0723,2.32287 v 2.32287 l 0.68911,0.60521 c 1.23997,1.08898 4.77801,2.04516 9.07338,2.45218 2.62069,0.24834 8.32869,0.25418 10.84296,0.0112 z m -1.33554,-7.51138 c 1.52156,-0.10871 3.41039,-0.29693 4.19741,-0.41822 3.59826,-0.55464 6.59207,-1.72093 7.02678,-2.73741 0.13075,-0.30571 0.22328,-1.53004 0.22328,-2.95451 v -2.43246 l -0.71546,0.34128 c -1.33441,0.63654 -4.79256,1.47564 -7.52934,1.82699 -3.30987,0.4249 -10.48451,0.4733 -13.6662,0.0922 -2.92852,-0.35079 -6.16828,-1.07169 -7.61394,-1.69424 l -1.19244,-0.51348 v 2.63903 2.63904 l 0.55854,0.55591 c 2.002,1.99252 10.70559,3.22793 18.71137,2.65591 z m -0.0173,-8.74315 c 4.38569,-0.31902 7.89416,-1.00885 9.89085,-1.94472 0.55091,-0.25821 1.00166,-0.56414 1.00166,-0.67981 0,-0.67046 -3.58085,-1.79535 -7.53625,-2.36747 -3.04587,-0.44056 -10.60841,-0.50652 -13.73697,-0.11983 -3.48582,0.43087 -7.27785,1.43698 -8.19275,2.17375 -0.36662,0.29521 -0.36662,0.30117 0,0.59037 0.64505,0.50888 3.27183,1.33264 5.58094,1.75016 3.93817,0.71212 8.52043,0.92286 12.99252,0.59755 z"
      id="path9039"
      sodipodi:nodetypes="ssssccsssscscsssscssssscssccssssssssssssssssssssssssssssssssssssssssssssssssssssssssssssscsssccscccccssssssssssssssscssssssscsssssssssssssscsssssssscsssscccsssssssssss" />
    <path style="display:inline;fill:#134e4a;fill-opacity:1;stroke-width:0.119182"
      d="m 206.64408,61.860253 c -0.2996,-0.0848 -0.78229,-0.29554 -1.07263,-0.46821 -0.74903,-0.44545 -18.8532,-18.611461 -19.15452,-19.219951 -0.57651,-1.16419 -0.57823,-2.65357 -0.004,-3.80733 0.15895,-0.3196 4.80644,-5.04976 13.7262,-13.97038 l 13.48589,-13.487161 0.65549,-0.0915 c 0.77308,-0.10789 6.76277,-0.0968 8.22354,0.0152 l 1.01304,0.0777 0.019,1.50869 c 0.0107,0.84579 0.12683,2.18595 0.26438,3.05009 0.24043,1.51054 0.24088,1.54872 0.0221,1.9069 -0.60252,0.986561 -0.76693,2.621471 -0.38626,3.840951 0.66764,2.13875 2.50192,3.4941 4.7288,3.4941 1.74951,0 3.15879,-0.74393 4.11125,-2.17026 0.79367,-1.18853 1.0425,-2.69819 0.67317,-4.08419 -0.23408,-0.87845 -0.51193,-1.347261 -1.27111,-2.144741 l -0.68126,-0.71562 -0.19591,-1.311 c -0.18422,-1.23274 -0.27998,-2.75915 -0.17879,-2.84995 0.0798,-0.0716 3.60411,0.40471 4.03805,0.5457 1.27533,0.41437 1.40588,0.8216 1.96132,6.118061 0.58959,5.62206 0.70722,7.49752 0.71385,11.38185 0.004,2.06482 -0.0372,3.96874 -0.0906,4.23094 -0.0879,0.43179 -1.37365,1.75412 -13.63973,14.027791 -12.15907,12.16658 -13.61274,13.5825 -14.22836,13.85877 -0.82681,0.37105 -1.96513,0.48082 -2.73255,0.2635 z m -1.11954,-16.52985 c 0.0656,0 0.3153,0.13327 0.55501,0.29616 0.86868,0.59028 2.5467,1.1219 3.56602,1.12978 1.44767,0.0112 2.88613,-0.56696 3.91334,-1.57282 1.18168,-1.157121 1.66227,-2.125821 1.76168,-3.550951 0.0831,-1.19143 -0.21145,-2.33802 -1.20246,-4.6806 -1.17197,-2.77033 -1.32492,-3.43095 -0.9683,-4.18245 0.3698,-0.77931 1.40833,-1.01527 2.35127,-0.53422 1.08355,0.55279 2.51534,2.34222 3.25498,4.06805 0.18985,0.44298 0.37559,0.79159 0.41276,0.77468 0.59442,-0.27047 3.09643,-1.82389 3.09636,-1.92243 -3.6e-4,-0.46573 -1.21857,-2.51401 -2.06472,-3.47149 l -0.42129,-0.47673 1.00469,-1.0154 1.00468,-1.0154 -1.13222,-1.12752 -1.13222,-1.12751 -1.10243,1.08927 -1.10243,1.08927 -0.47613,-0.30736 c -1.25872,-0.81256 -2.96434,-1.20581 -4.31674,-0.99526 -1.69517,0.26392 -3.28298,1.44348 -4.01083,2.97962 -0.35232,0.74357 -0.37302,0.86483 -0.36845,2.15842 0.006,1.57813 0.13853,2.0499 1.3443,4.76985 1.06601,2.4047 1.1613,3.397 0.40336,4.20047 -0.60463,0.64096 -1.52449,0.65673 -2.56991,0.0441 -1.33267,-0.781 -2.95855,-3.01752 -3.58514,-4.93163 -0.1868,-0.57062 -0.22565,-0.61364 -0.44717,-0.49508 -0.31251,0.16725 -3.00123,1.78693 -3.06352,1.84546 -0.0987,0.0928 0.49355,1.43651 1.03375,2.34541 0.30958,0.52087 0.83625,1.27653 1.17039,1.67925 l 0.60752,0.73222 -1.06569,1.1187 -1.0657,1.118701 1.11143,1.11607 1.11143,1.11606 1.1366,-1.13233 c 0.62513,-0.62279 1.19023,-1.13234 1.25578,-1.13234 z m 34.73597,-15.761771 c -1.01899,-0.69351 -1.15139,-1.57614 -0.43261,-2.88381 1.04351,-1.89843 2.0897,-4.77377 2.69088,-7.3956 0.74592,-3.253041 0.95363,-7.092081 0.4842,-8.949351 -0.67014,-2.6514096 -2.48577,-4.6668896 -4.88653,-5.4244296 -0.93101,-0.29377 -2.71613,-0.35061 -3.69463,-0.11764 -3.22909,0.76882 -5.60154,3.75827 -5.60154,7.0583496 0,0.95488 0.293,3.10073 0.78045,5.715761 0.26502,1.4218 0.38468,2.35726 0.33397,2.61082 -0.11384,0.56922 -0.85392,1.26652 -1.45134,1.36746 -0.63827,0.10783 -1.47683,-0.25471 -1.79348,-0.7754 -0.24896,-0.40939 -0.82254,-3.222951 -1.22144,-5.991561 -0.35479,-2.46242 -0.27261,-4.59853 0.23702,-6.1607696 1.17191,-3.5924 4.02513,-6.28543 7.72375,-7.29012 1.3456,-0.36552 3.74736,-0.36937 5.1889,-0.008 2.48358,0.62201 4.74285,2.18139 6.17382,4.26122 0.58078,0.84414 1.40569,2.67012 1.66592,3.68759 0.85547,3.3448796 0.377,8.7869806 -1.20928,13.7542706 -0.7496,2.3473 -2.18604,5.56784 -2.76326,6.19532 -0.6103,0.66344 -1.545,0.8089 -2.2248,0.34622 z"
      id="path21337" />
    <path style="display:none;fill:#134e4a;fill-opacity:1;stroke-width:0.12657"
      d="M 138.13705,101.28066 V 84.953099 h 27.6556 27.6556 v 16.327561 16.32757 h -27.6556 -27.6556 z m 45.08698,11.5535 c 0.724,-0.71644 0.73145,-0.73131 0.73145,-1.45962 0,-1.22861 0.569,-2.22905 1.61714,-2.8433 0.48031,-0.28148 0.76425,-0.35258 1.46283,-0.36629 l 0.86683,-0.017 0.74786,-0.74006 0.74786,-0.74006 v -5.3165 -5.316511 l -0.78741,-0.79447 c -0.77657,-0.78354 -0.79703,-0.79449 -1.4872,-0.79571 -1.75554,-0.003 -3.15808,-1.40319 -3.16513,-3.15961 -0.003,-0.6786 -0.0188,-0.70894 -0.79019,-1.4872 l -0.7874,-0.79447 h -16.58096 -16.58095 l -0.79447,0.78741 c -0.78275,0.77579 -0.79451,0.79773 -0.79725,1.4872 -0.007,1.76028 -1.40645,3.16355 -3.15807,3.16667 -0.67932,0.001 -0.70812,0.0165 -1.4872,0.78865 l -0.79447,0.78741 v 5.316201 5.3162 l 0.77073,0.77765 c 0.74683,0.75352 0.78761,0.77574 1.31485,0.71631 1.73554,-0.19562 3.42546,1.41671 3.34333,3.1898 l -0.0329,0.71119 0.74709,0.75497 0.74709,0.75497 h 16.70757 16.70756 z m -18.6338,-3.01992 c -0.17403,-0.031 -0.65816,-0.11786 -1.07585,-0.19307 -2.73947,-0.49333 -5.57985,-2.53733 -6.69487,-4.81777 -0.6894,-1.40997 -0.87791,-2.3277 -0.80128,-3.90086 0.0783,-1.608341 0.37524,-2.539821 1.22192,-3.833571 1.13688,-1.73718 2.87725,-3.03867 5.01824,-3.75276 5.28638,-1.76318 11.10294,0.65578 12.912,5.36976 0.44757,1.16625 0.5633,3.140041 0.25614,4.368261 -0.76768,3.0696 -3.44716,5.58089 -6.9008,6.46762 -0.91995,0.2362 -3.27016,0.41081 -3.9355,0.29239 z m -16.14644,-5.46653 c -1.76609,-0.62787 -2.60031,-2.29196 -2.0574,-4.10406 0.1718,-0.573391 0.97765,-1.542471 1.51279,-1.819211 1.78893,-0.92509 3.96319,-0.03 4.62171,1.902641 0.83212,2.44215 -1.64525,4.8852 -4.0771,4.02063 z m 32.62244,-0.0101 c -1.37233,-0.48869 -2.25608,-1.82775 -2.14225,-3.24592 0.0339,-0.42226 0.17789,-0.99389 0.31999,-1.270291 1.01576,-1.9758 3.7649,-2.36053 5.23154,-0.73214 1.17665,1.306421 1.1546,3.230161 -0.0513,4.471251 -0.84764,0.87242 -2.20697,1.18699 -3.35802,0.7771 z M 131.47175,87.789039 c -2.75615,-5.0341 -2.80015,-5.12614 -2.5314,-5.29492 0.62655,-0.39349 48.21336,-26.40781 48.24361,-26.37337 0.0182,0.0207 2.35534,4.28089 5.19372,9.4671 2.83837,5.18622 5.9168,10.81068 6.84097,12.49881 l 1.6803,3.06933 h -4.8033 -4.80329 l 0.25016,-0.49036 c 0.28121,-0.55121 0.89084,-1.11247 1.47368,-1.35674 0.33943,-0.14226 0.42517,-0.28535 0.6645,-1.10903 0.15113,-0.52013 0.27291,-1.05028 0.27062,-1.17812 -0.002,-0.12783 -1.12719,-2.27734 -2.49977,-4.77669 l -2.49559,-4.54426 -1.05684,-0.31029 -1.05685,-0.31028 -0.65185,0.36116 c -0.54953,0.30447 -0.79094,0.35986 -1.53785,0.35288 -0.64181,-0.006 -1.02553,-0.0814 -1.39228,-0.27355 -0.63383,-0.3321 -1.26021,-0.978 -1.49769,-1.54438 -0.16571,-0.39524 -0.27146,-0.46033 -1.17745,-0.72477 -0.54747,-0.1598 -1.06028,-0.29189 -1.13958,-0.29355 -0.20264,-0.004 -29.05187,15.80265 -29.214,16.00675 -0.0914,0.11508 -0.58669,0.18284 -1.5925,0.21787 -1.20919,0.0421 -1.56607,0.10228 -2.07865,0.35041 -0.78612,0.38056 -1.45922,1.05262 -1.85052,1.84769 -0.30264,0.61489 -0.30751,0.68173 -0.36996,5.07728 l -0.0633,4.45419 z m 20.58803,-6.73667 c 0,-0.057 0.21358,-0.45661 0.47464,-0.88804 1.4977,-2.47517 3.72439,-4.16819 6.55001,-4.98016 1.47316,-0.42333 4.14124,-0.42251 5.5058,0.002 2.82723,0.87891 4.84954,2.9497 5.49044,5.62205 l 0.0835,0.34807 h -9.05219 c -4.9787,-1e-5 -9.05218,-0.0466 -9.05218,-0.10363 z m 22.25145,-2.09581 c -1.25874,-0.34482 -2.08362,-1.21792 -2.37236,-2.51104 -0.28841,-1.29162 0.3991,-2.74934 1.61753,-3.42963 1.41854,-0.79202 3.24786,-0.36675 4.15457,0.96583 1.11426,1.63763 0.59949,3.82725 -1.09656,4.66432 -0.87,0.42938 -1.5397,0.51967 -2.30318,0.31052 z"
      id="path21339" />
    <path style="display:none;fill:#134e4a;fill-opacity:1;stroke-width:0.120226"
      d="m 296.89039,108.92686 c -1.23382,-0.49188 -1.98792,-1.18084 -2.53915,-2.31979 l -0.31766,-0.65636 V 94.529402 83.108082 l 0.3249,-0.67168 c 0.45488,-0.94039 1.20532,-1.68325 2.1611,-2.13927 l 0.80618,-0.38465 17.12273,-0.0308 c 16.99039,-0.0306 17.12789,-0.0289 17.79045,0.21131 1.37064,0.49699 2.46056,1.66439 2.82705,3.028 0.2759,1.02657 0.27745,21.784478 0.002,22.810478 -0.36678,1.3647 -1.34949,2.44327 -2.72606,2.99198 l -0.69348,0.27642 h -17.03647 -17.03646 l -0.68483,-0.27301 z m 34.88093,-1.83579 c 0.61569,-0.27107 1.22933,-0.93998 1.39605,-1.52178 0.0805,-0.28114 0.12835,-2.41281 0.12878,-5.743478 l 6.8e-4,-5.29641 h -18.68515 -18.68516 l 0.003,5.41477 c 0.002,5.017918 0.0193,5.449458 0.22885,5.888188 0.2515,0.52644 0.74014,1.01458 1.29503,1.2937 0.32647,0.16421 2.18861,0.18408 17.09753,0.18241 15.92017,-0.002 16.75488,-0.0123 17.2207,-0.2174 z m 1.52483,-20.343548 c -3.6e-4,-1.59618 -0.056,-3.00415 -0.12878,-3.25802 -0.16672,-0.5818 -0.78036,-1.25071 -1.39605,-1.52178 -0.46586,-0.2051 -1.2962,-0.21553 -17.15964,-0.21553 -15.96857,0 -16.69065,0.009 -17.1586,0.21919 -0.26867,0.12055 -0.63671,0.37237 -0.81786,0.55959 -0.66002,0.68213 -0.7087,0.96543 -0.7087,4.12398 v 2.90351 h 18.68516 18.68515 l -7.3e-4,-2.81094 z m -44.58164,12.05578 c -0.87416,-0.55059 -15.58153,-14.9057 -15.80363,-15.42512 -0.21943,-0.51318 -0.2397,-1.00782 -0.0605,-1.47554 0.14428,-0.37653 23.317,-22.917331 23.83334,-23.183411 0.5574,-0.28723 1.45372,-0.21812 2.01734,0.15554 0.27001,0.17902 3.95187,3.70749 8.18191,7.84106 6.7534,6.59938 7.7014,7.56969 7.77643,7.95942 0.14855,0.77158 -0.0249,1.23491 -0.74413,1.98779 l -0.66556,0.6967 -9.66914,0.0336 -9.66914,0.0336 -0.62269,0.27318 c -0.77633,0.34058 -1.53872,1.08363 -1.90556,1.857221 l -0.28063,0.59178 -0.0353,9.36281 -0.0353,9.36281 -0.30624,0.13523 c -0.57422,0.25355 -1.41804,0.16681 -2.01113,-0.20674 z m 14.05079,-24.808381 2.98998,-2.89949 -2.01276,-1.95332 -2.01275,-1.95331 -2.96269,2.86944 c -1.62948,1.5782 -2.96269,2.92251 -2.96269,2.98736 0,0.11795 3.78777,3.84881 3.90751,3.84881 0.0349,0 1.40892,-1.30477 3.0534,-2.89949 z"
      id="path21335" />
    <path
      style="display:none;fill:#134e4a;fill-opacity:1;stroke:#134e4a;stroke-width:1.88831;stroke-linecap:round;stroke-linejoin:round;stroke-dasharray:none;stroke-opacity:1"
      d="M 197.51489,135.55764 307.95313,26.834946" id="path5758" />
  </g>
  <g inkscape:groupmode="layer" id="layer3" inkscape:label="Cars" transform="translate(158.40602,20.37964)">
    <path style="display:none;fill:#134e4a;fill-opacity:1;stroke-width:0.07032"
      d="m 89.078059,63.119789 c -1.31331,-0.24943 -2.29992,-1.21367 -2.5332,-2.47573 -0.0391,-0.21164 -0.0626,-1.12603 -0.0523,-2.03196 l 0.019,-1.64715 h 4.35954 4.35954 l -4e-5,1.82843 c -4e-5,1.60228 -0.0163,1.87628 -0.13171,2.21522 -0.32476,0.95401 -0.99645,1.6456 -1.92616,1.98321 -0.35868,0.13026 -0.58915,0.14871 -2.09068,0.16723 -0.92817,0.0115 -1.82996,-0.006 -2.004,-0.0393 z m 41.846061,-0.0104 c -0.84736,-0.14078 -1.78619,-0.81395 -2.15769,-1.54719 -0.33557,-0.66229 -0.38218,-1.01468 -0.38218,-2.88908 v -1.74333 h 4.36355 4.36356 l -0.0215,1.98666 -0.0215,1.98666 -0.21779,0.45711 c -0.45258,0.9499 -1.31529,1.59494 -2.34871,1.75609 -0.55083,0.0859 -3.04784,0.081 -3.57754,-0.007 z m -27.43145,-8.99254 v -2.8833 h 8.33235 8.33235 v 2.8833 2.8833 h -8.33235 -8.33235 z m -17.766951,2.21962 c -0.66805,-0.20924 -1.25116,-0.76586 -1.50401,-1.4357 -0.11839,-0.31367 -0.14336,-0.50314 -0.11872,-0.90155 0.0561,-0.90743 0.52558,-1.58165 1.38055,-1.98259 l 0.39517,-0.18532 h 8.5433 8.543301 v 2.28554 2.28555 l -8.472981,0.0131 c -6.81015,0.0104 -8.53061,-0.005 -8.76661,-0.0789 z m 8.03591,-1.18073 c 0.37556,-0.26042 0.53842,-0.55842 0.54438,-0.99612 0.007,-0.47016 -0.22218,-0.88292 -0.61302,-1.10692 -0.28604,-0.16395 -0.32455,-0.16685 -2.48429,-0.18779 -2.2888,-0.0222 -2.59115,0.006 -2.93206,0.27428 -0.25709,0.20227 -0.46426,0.63525 -0.46426,0.97028 0,0.53585 0.24203,0.91014 0.7383,1.14175 0.25938,0.12104 0.46243,0.1299 2.60782,0.11378 l 2.32653,-0.0175 z m -5.00786,-0.33424 c -0.0816,-0.033 -0.21924,-0.14968 -0.3057,-0.25927 -0.12461,-0.15793 -0.15022,-0.26179 -0.1235,-0.50097 0.0404,-0.362 0.19713,-0.5528 0.5364,-0.65313 0.16129,-0.0477 1.01755,-0.0665 2.37477,-0.0522 l 2.12253,0.0225 0.20783,0.19924 c 0.25654,0.24595 0.32329,0.54244 0.19257,0.85533 -0.18487,0.44251 -0.27641,0.45792 -2.69072,0.45294 -1.19113,-0.002 -2.23251,-0.0314 -2.31418,-0.0645 z m 31.895811,-0.70627 v -2.32232 l 8.56088,0.0192 8.56087,0.0192 0.34596,0.15958 c 0.56238,0.25938 0.92334,0.60299 1.17897,1.12232 0.2004,0.40713 0.2311,0.54118 0.2311,1.00919 0,0.47831 -0.0279,0.59397 -0.24518,1.01677 -0.29452,0.5731 -0.72598,0.96193 -1.28568,1.15868 -0.38811,0.13643 -0.59668,0.1397 -8.87218,0.1397 h -8.47474 z m 14.4553,1.13411 c 0.70207,-0.31892 0.92961,-1.17461 0.48988,-1.84232 -0.33427,-0.50756 -0.41249,-0.52084 -3.06705,-0.52084 h -2.3607 l -0.28518,0.18875 c -0.50495,0.3342 -0.70397,0.96904 -0.47533,1.5163 0.14568,0.34873 0.29561,0.50556 0.63016,0.65921 0.2543,0.11679 0.49686,0.12916 2.53134,0.12916 2.04024,0 2.27684,-0.0122 2.53688,-0.13026 z m -4.96993,-0.51951 c -0.48938,-0.32894 -0.42106,-1.06255 0.12,-1.28865 0.20934,-0.0874 0.61706,-0.10171 2.40758,-0.084 2.43249,0.024 2.46584,0.031 2.62215,0.55284 0.10369,0.34613 -0.0157,0.662 -0.32036,0.84783 -0.19957,0.12172 -0.38794,0.13207 -2.4035,0.13233 -2.16107,0 -2.18978,-0.002 -2.42587,-0.16033 z m -43.998871,-4.00611 c -0.64574,-4.66224 -0.49265,-8.55993 0.4606,-11.72659 0.24201,-0.80398 0.8691,-2.35575 1.18723,-2.93791 0.75351,-1.37882 1.64124,-2.38104 2.55982,-2.8899 0.57365,-0.3178 1.59716,-0.6594 2.3204,-0.77446 1.72313,-0.27411 5.48029,-0.33442 7.769821,-0.12472 1.50316,0.13767 2.35553,0.23348 2.39006,0.26862 0.0129,0.013 -0.0525,0.24938 -0.14514,0.52521 -0.37149,1.10627 -0.70809,3.9582 -1.01153,8.57033 -0.24294,3.69268 -0.42991,8.07119 -0.35016,8.1999 0.0234,0.0376 4.31543,0.0564 10.51213,0.0459 l 10.47268,-0.0178 -0.0169,-1.33616 c -0.0202,-1.58565 -0.17623,-4.7647 -0.37306,-7.59503 -0.31173,-4.48246 -0.69269,-7.41907 -1.05448,-8.12832 l -0.13729,-0.26914 0.22835,-0.0382 c 0.3712,-0.0622 2.45419,-0.24228 3.77926,-0.32684 1.27365,-0.0812 3.32522,-0.0466 4.95723,0.0836 1.70058,0.13574 2.93708,0.47565 3.83,1.05284 2.02588,1.30956 3.61742,4.72089 4.1977,8.99741 0.15735,1.15967 0.18099,5.01962 0.0388,6.32919 -0.0955,0.8789 -0.27962,2.2609 -0.33501,2.5141 l -0.0346,0.15824 h -8.36617 -8.36616 v -0.28128 -0.28131 h -8.82456 c -7.0088,0 -8.82608,0.0181 -8.832,0.0879 -0.004,0.0484 -0.002,0.17494 0.005,0.28131 l 0.0128,0.19338 h -8.397341 -8.39732 l -0.0803,-0.58017 z m 5.33931,-1.05238 c 0.47048,-0.21795 0.85064,-0.5846 1.1009,-1.06176 0.16426,-0.31317 0.19147,-0.44938 0.19233,-0.96255 7.3e-4,-0.51249 -0.0269,-0.65454 -0.19448,-0.99583 -0.21495,-0.43777 -0.58503,-0.81058 -1.04946,-1.05721 -0.25279,-0.13424 -0.41088,-0.16053 -0.97,-0.16128 -0.56388,-7.4e-4 -0.71732,0.0247 -0.98442,0.16334 -0.77697,0.40329 -1.26553,1.17363 -1.26562,1.9956 -2e-4,1.69585 1.65535,2.78172 3.17075,2.07969 z m -1.52101,-0.37385 c -0.70445,-0.26073 -1.15692,-0.92084 -1.15536,-1.68562 0.002,-1.00129 0.73572,-1.71998 1.75566,-1.71976 1.56045,3e-4 2.32227,1.83764 1.2288,2.96355 -0.1349,0.13891 -0.35977,0.30692 -0.49971,0.37333 -0.34959,0.1659 -0.97863,0.19832 -1.32939,0.0685 z m 43.777901,0.48671 c 0.64593,-0.19185 1.05199,-0.54533 1.40727,-1.22511 0.1335,-0.2554 0.16489,-0.42634 0.16752,-0.91206 0.002,-0.51518 -0.0238,-0.65275 -0.19224,-0.99583 -0.37894,-0.77174 -1.02933,-1.19082 -1.9244,-1.23996 -0.50982,-0.028 -0.61824,-0.0108 -0.98441,0.15645 -0.83228,0.38011 -1.29216,1.04349 -1.34397,1.93869 -0.0405,0.69894 0.15137,1.23026 0.60857,1.68567 0.6383,0.63579 1.423,0.84123 2.26166,0.59215 z m -1.22563,-0.48231 c -0.41442,-0.14773 -0.76127,-0.46068 -0.98074,-0.88482 -0.44633,-0.86262 -0.0546,-1.99191 0.83115,-2.39658 0.34755,-0.15876 1.0465,-0.1719 1.39509,-0.0262 0.59546,0.24882 1.01297,0.81912 1.08079,1.47631 0.12873,1.24739 -1.14705,2.25172 -2.32629,1.83131 z m -39.471961,-7.80995 c 0.91853,-0.26574 1.81182,-1 2.25146,-1.85064 0.31479,-0.60908 0.41401,-1.03638 0.41085,-1.76936 -0.008,-2.03376 -1.63334,-3.65282 -3.66852,-3.65603 -1.72874,-0.002 -3.25818,1.20027 -3.65284,2.87318 -0.12606,0.53433 -0.0598,1.62714 0.12828,2.1127 0.44477,1.14889 1.5175,2.10081 2.61328,2.31897 0.2127,0.0424 0.45001,0.0909 0.52735,0.10783 0.22158,0.0487 1.02169,-0.0301 1.39014,-0.13665 z m -1.68808,-0.41767 c -0.98217,-0.22139 -1.80604,-0.87733 -2.24787,-1.78967 -0.4418,-0.91233 -0.40161,-2.08855 0.10098,-2.95535 0.58768,-1.01353 1.63663,-1.6219 2.79641,-1.6219 0.92969,0 1.69983,0.33285 2.34239,1.01234 0.71938,0.76075 1.02968,1.80929 0.82577,2.79045 -0.18095,0.87053 -0.55692,1.4709 -1.25088,1.99735 -0.70277,0.53314 -1.71977,0.75771 -2.5668,0.56678 z m 41.437411,0.37632 c 1.55943,-0.47725 2.64795,-2.08669 2.53928,-3.75446 -0.12942,-1.98583 -1.72063,-3.48105 -3.70455,-3.48105 -2.73791,0 -4.52628,2.84231 -3.34071,5.30948 0.81551,1.6971 2.66744,2.48868 4.50598,1.92603 z m -1.85076,-0.38005 c -1.26354,-0.27451 -2.27365,-1.35377 -2.49911,-2.67017 -0.2194,-1.28098 0.49623,-2.69744 1.67495,-3.31528 0.58336,-0.30579 1.06298,-0.4035 1.7654,-0.35967 1.97087,0.12297 3.41335,2.13343 2.86656,3.99524 -0.36365,1.23822 -1.26972,2.09862 -2.48026,2.35524 -0.56324,0.1194 -0.7569,0.11862 -1.32754,-0.005 z m -29.12796,7.64893 c 3e-4,-1.36519 0.26468,-6.23336 0.49538,-9.12458 0.25345,-3.17632 0.53728,-5.38586 0.80711,-6.28313 0.2982,-0.99163 1.43077,-1.58123 3.61685,-1.88288 0.99388,-0.13714 7.37663,-0.20236 9.03803,-0.0923 2.51573,0.16657 3.99038,0.65914 4.5324,1.51394 0.38454,0.60643 0.66176,2.34047 0.98264,6.14667 0.22974,2.7248 0.56414,8.64987 0.56658,10.03881 l 4.1e-4,0.3692 h -10.01981 -10.01992 l 2e-4,-0.68567 z m 18.87654,-0.36451 c 0.0481,-0.078 -0.0632,-2.97178 -0.21142,-5.48998 -0.29072,-4.94163 -0.65956,-8.16394 -1.01356,-8.85443 -0.5576,-1.08765 -2.00944,-1.57885 -5.11784,-1.73152 -1.04367,-0.0513 -1.10967,-0.0229 -0.89808,0.38635 0.28319,0.54768 0.17322,1.41111 -0.2438,1.91443 -0.11813,0.14259 -0.39097,0.34545 -0.60628,0.45081 -1.48664,0.72745 -3.01748,-0.73215 -2.41927,-2.30668 0.0826,-0.21738 0.1138,-0.39328 0.0764,-0.43067 -0.0861,-0.0861 -2.54957,0.0625 -3.3321,0.20103 -1.36974,0.24237 -2.38035,0.77764 -2.71783,1.43948 -0.37656,0.73847 -0.71342,3.54086 -1.01862,8.47408 -0.1492,2.41158 -0.27884,5.76399 -0.22803,5.89644 0.0412,0.10733 0.72522,0.1163 8.86725,0.1163 5.38639,0 8.83841,-0.0256 8.86318,-0.0656 z m -17.2593,-0.79584 c 7.3e-4,-2.00155 0.59822,-10.72997 0.74416,-10.87683 0.0161,-0.0162 0.0292,2.50765 0.0292,5.60836 v 5.63768 h -0.38674 -0.38673 l 2e-4,-0.36921 z m 1.26549,-6.57911 v -6.94831 l 0.22852,-0.21634 c 0.21048,-0.19924 0.47925,-0.37384 0.57548,-0.37384 0.0219,0 0.0397,3.25953 0.0397,7.24341 v 7.2434 h -0.42189 -0.42189 z m 1.33599,-0.40231 v -7.35064 l 0.16827,-0.064 c 0.0925,-0.0351 0.28242,-0.0854 0.4219,-0.11157 l 0.2536,-0.0476 v 7.46221 7.46221 h -0.42188 -0.42189 z m 1.33599,-0.14112 c 0,-5.93175 0.0183,-7.49753 0.0879,-7.51945 0.0483,-0.0153 0.2382,-0.0479 0.4219,-0.0724 l 0.33399,-0.0447 v 7.56418 7.56416 h -0.42188 -0.4219 z m 1.33599,-0.0612 v -7.55298 l 0.42619,-0.0494 c 0.23442,-0.0272 0.43219,-0.0382 0.43948,-0.0245 0.008,0.0137 0.005,3.43483 -0.005,7.60244 l -0.0185,7.57745 h -0.42096 -0.42095 z m 1.33598,1.08312 c 0,-3.5584 0.0156,-6.46983 0.0346,-6.46983 0.019,0 0.17964,0.11076 0.35697,0.24613 0.17732,0.13538 0.35162,0.24613 0.38734,0.24613 0.0392,0 0.0649,2.46563 0.0649,6.22371 v 6.2237 h -0.42188 -0.42189 z m 1.36837,6.38194 c -0.0185,-0.0484 -0.0253,-2.79363 -0.0154,-6.10064 l 0.0182,-6.01273 0.40432,-0.02 0.40431,-0.02 v 6.12062 6.12063 h -0.38894 c -0.2464,0 -0.40123,-0.0323 -0.42247,-0.0879 z m 1.35049,0.041 c -0.0258,-0.0258 -0.0468,-2.80951 -0.0468,-6.18606 v -6.1392 l 0.15821,-0.0829 c 0.087,-0.0456 0.27687,-0.176 0.42189,-0.28968 l 0.26368,-0.20671 v 6.47574 6.47576 h -0.37502 c -0.20625,0 -0.3961,-0.0211 -0.42189,-0.0468 z m 1.33283,-0.003 c -0.0276,-0.0275 -0.0455,-3.4453 -0.0399,-7.59503 l 0.0101,-7.54497 0.15124,7.2e-4 c 0.0831,3.1e-4 0.2699,0.0204 0.41491,0.0444 l 0.26368,0.0436 v 7.55067 7.55067 h -0.37501 c -0.20625,0 -0.39753,-0.0226 -0.42505,-0.05 z m 1.33914,0.003 c -0.0651,-0.0651 -0.0593,-14.98681 0.006,-15.02571 0.029,-0.0172 0.21886,-0.0151 0.42189,0.005 l 0.36915,0.0363 v 7.51576 7.51576 h -0.37501 c -0.20625,0 -0.3961,-0.0211 -0.42188,-0.0468 z m 1.33599,0 c -0.0258,-0.0258 -0.0469,-3.38025 -0.0469,-7.45438 0,-6.65845 0.0111,-7.40749 0.1095,-7.40749 0.0602,0 0.25008,0.0354 0.4219,0.0786 l 0.31239,0.0786 v 7.37571 7.37571 h -0.37501 c -0.20626,0 -0.39612,-0.0211 -0.4219,-0.0468 z m 1.33906,0.003 c -0.0275,-0.0275 -0.0499,-3.28839 -0.0499,-7.24647 0,-5.86646 0.0169,-7.19654 0.0916,-7.19654 0.13914,0 0.64209,0.39177 0.73922,0.5758 0.0662,0.12549 0.0815,1.72767 0.0669,7.01924 l -0.0189,6.85662 -0.38953,0.0207 c -0.21423,0.0114 -0.412,-0.002 -0.43947,-0.0293 z m 1.33608,6e-5 c -0.0713,-0.0714 -0.0623,-11.20815 0.009,-11.20815 0.15281,0 0.6488,7.05682 0.72906,10.37285 l 0.0204,0.84389 -0.35428,0.0207 c -0.19483,0.0114 -0.37678,-0.002 -0.4043,-0.0293 z m -6.90207,-13.08011 c 0.15859,-0.0811 0.37379,-0.28398 0.50207,-0.47315 0.53674,-0.79152 0.30049,-1.74938 -0.53603,-2.17323 -0.43814,-0.22199 -0.85798,-0.25014 -1.25525,-0.0842 -1.21067,0.50579 -1.24169,2.21718 -0.0505,2.78531 0.3549,0.16926 0.94946,0.14495 1.33968,-0.0548 z m -1.21728,-0.44836 c -0.90854,-0.55402 -0.49131,-1.9688 0.55418,-1.87907 1.04343,0.0896 1.3311,1.42555 0.40831,1.89617 -0.31749,0.1619 -0.67949,0.15547 -0.96249,-0.0172 z m -20.133671,-2.33165 c -0.0492,-0.0909 -0.0897,-0.31298 -0.0901,-0.49356 -0.002,-0.64373 0.62167,-1.23931 1.45286,-1.38872 2.45922,-0.44208 9.708511,-0.7073 19.316451,-0.7067 10.32638,4.2e-4 17.93657,0.31342 19.59251,0.80524 0.34331,0.10197 0.82695,0.51621 1.00162,0.85789 0.15935,0.3117 0.0445,1.07848 -0.16128,1.07624 -0.0421,-3e-4 -0.25063,-0.0475 -0.46334,-0.10449 -0.69703,-0.18683 -1.83408,-0.30831 -3.67053,-0.39212 -1.905,-0.087 -3.59657,-0.0331 -5.85717,0.18612 -2.19209,0.21266 -1.98459,0.21858 -2.46046,-0.0702 -0.23172,-0.14062 -0.70636,-0.34658 -1.05473,-0.45769 -1.43089,-0.45637 -2.97071,-0.56332 -7.70009,-0.53482 -3.66492,0.022 -4.53965,0.0852 -5.8768,0.42436 -0.61347,0.15558 -1.37451,0.48621 -1.69333,0.73566 -0.1383,0.1082 -0.22272,0.11075 -0.9435,0.0285 -2.1286,-0.24275 -3.622021,-0.33317 -5.479091,-0.33173 -2.69018,0.002 -3.87451,0.10612 -5.67173,0.49808 -0.10788,0.0235 -0.17791,-0.0148 -0.24133,-0.1321 z m 1.85861,-2.56458 c 0.0215,-0.0727 0.0744,-0.33803 0.11753,-0.58944 0.0432,-0.2514 0.18924,-1.01092 0.32479,-1.68778 1.08704,-5.42801 2.16126,-8.87955 3.06168,-9.83736 0.78237,-0.83224 3.921651,-1.39872 8.860001,-1.59875 l 1.17255,-0.0475 0.0228,0.23893 0.0228,0.23892 h 5.20333 5.20332 l 0.0221,-0.22856 0.022,-0.22855 h 0.44479 c 0.77906,0 2.91007,0.13886 4.36289,0.28431 2.96645,0.29697 4.63136,0.71794 5.17696,1.30901 0.82202,0.89053 1.71875,3.54661 2.69106,7.97079 0.32986,1.50095 0.81591,3.99985 0.81591,4.19488 0,0.0877 -0.0469,0.10311 -0.2135,0.0698 -0.73542,-0.14711 -4.17886,-0.35532 -7.94307,-0.4803 -3.41171,-0.11328 -17.76997,-0.11324 -21.12972,5e-5 -3.929501,0.13251 -7.194551,0.32787 -8.041191,0.48115 -0.20765,0.0375 -0.23146,0.0268 -0.197,-0.0896 z m 16.937361,-0.98564 c 0.0324,-0.02 3.29337,7.4e-4 7.2467,0.0466 7.94782,0.0919 10.04975,0.0551 10.22056,-0.17852 0.36844,-0.50396 -0.35459,-4.20346 -1.48426,-7.59441 -0.41981,-1.26016 -0.81123,-2.16698 -1.04244,-2.41505 -0.68064,-0.73031 -3.12377,-1.17583 -7.78363,-1.41938 -1.86923,-0.0977 -8.76129,-0.0991 -10.6176,-0.002 -3.48837,0.18219 -5.64929,0.4654 -6.847201,0.89742 -0.63062,0.22742 -0.86282,0.37372 -1.06465,0.67079 -0.82387,1.21258 -2.47258,7.20158 -2.51617,9.14004 -0.0182,0.80949 0.0194,0.84796 0.88434,0.90495 0.76174,0.0502 12.917851,0.003 13.004351,-0.0503 z m -21.996601,0.88539 c -1.33689,-0.17606 -1.77755,-0.53981 -1.89825,-1.56694 -0.12054,-1.02567 0.48658,-1.45998 2.18739,-1.56479 0.82264,-0.0507 2.48406,0.0627 2.71964,0.18571 0.0898,0.0468 0.3227,0.25491 0.51755,0.4623 0.33036,0.35162 0.37647,0.37707 0.68313,0.37707 0.26756,0 0.37518,-0.0406 0.5774,-0.21826 0.14334,-0.12587 0.24684,-0.17796 0.24449,-0.12306 -0.002,0.0523 -0.10605,0.63317 -0.2307,1.29071 l -0.22663,1.1955 -2.07213,0.01 c -1.13966,0.005 -2.26551,-0.0163 -2.50189,-0.0474 z m 42.937581,-0.78807 c -0.0868,-0.4738 -0.19809,-1.05926 -0.24727,-1.301 -0.0493,-0.24174 -0.0616,-0.43952 -0.0276,-0.43952 0.034,0 0.0618,0.0291 0.0618,0.0645 0,0.13706 0.47914,0.35737 0.77722,0.35737 0.28021,0 0.33368,-0.0323 0.69486,-0.41941 0.4669,-0.50045 0.57407,-0.53252 2.00853,-0.60086 1.61313,-0.0768 2.77291,0.14608 3.16126,0.60767 0.15556,0.18489 0.17871,0.27868 0.17871,0.72395 0,0.62066 -0.0913,0.91723 -0.37497,1.21837 -0.48856,0.5186 -1.31826,0.65032 -4.09602,0.65032 h -1.97849 z m -24.01821,-12.7998 c -0.0188,-0.0488 -0.0256,-1.02189 -0.0154,-2.16246 l 0.0187,-2.07377 4.90449,-0.018 4.90449,-0.018 v 2.18054 2.18053 h -4.88912 c -3.87028,0 -4.8962,-0.0185 -4.92314,-0.0887 z m 2.07759,-1.73971 v -0.98453 h 0.35158 c 0.32814,0 0.35158,-0.0118 0.35158,-0.17581 v -0.17582 h -0.87895 -0.87893 v 0.17582 c 0,0.16407 0.0235,0.17581 0.35157,0.17581 h 0.35158 v 0.98453 0.98454 h 0.17578 0.17579 z m 1.48608,0.69942 0.0854,-0.28511 0.42719,0.0214 0.42721,0.0214 0.0651,0.26371 c 0.056,0.22711 0.0927,0.26372 0.26368,0.26372 0.11394,0 0.19696,-0.0375 0.19484,-0.0879 -0.002,-0.0484 -0.17076,-0.56259 -0.37495,-1.14277 -0.36675,-1.04215 -0.37392,-1.05513 -0.59396,-1.07691 -0.12252,-0.0122 -0.22275,-0.009 -0.22275,0.008 0,0.0298 -0.65292,1.9475 -0.74118,2.17701 -0.0387,0.10074 -0.008,0.12306 0.16832,0.12306 0.19114,0 0.22535,-0.0324 0.30106,-0.28511 z m 0.20149,-0.59499 c 0,-0.13791 0.24514,-0.878 0.29082,-0.878 0.0312,0 0.10905,0.18198 0.17287,0.40437 0.0638,0.2224 0.12987,0.4281 0.14675,0.45711 0.0169,0.029 -0.11355,0.0528 -0.28988,0.0528 -0.1763,0 -0.32056,-0.0163 -0.32056,-0.0362 z m 2.46103,0.45816 c 0.11712,-0.23205 0.22619,-0.42194 0.24236,-0.42194 0.0161,0 0.13375,0.18989 0.26132,0.42194 0.21096,0.38379 0.25294,0.42195 0.46429,0.42195 0.21858,0 0.22743,-0.01 0.14957,-0.15823 -0.0455,-0.087 -0.13599,-0.23734 -0.20106,-0.33403 -0.0651,-0.0967 -0.18594,-0.28835 -0.2686,-0.4259 l -0.15029,-0.25008 0.34634,-0.57623 0.34634,-0.57623 h -0.24255 c -0.2259,0 -0.25715,0.0289 -0.45551,0.42194 -0.11714,0.23208 -0.22788,0.42196 -0.24611,0.42196 -0.0182,0 -0.12898,-0.18988 -0.2461,-0.42196 -0.19835,-0.39299 -0.22961,-0.42194 -0.45552,-0.42194 h -0.24255 l 0.34715,0.57756 0.34714,0.57757 -0.14883,0.24874 c -0.0818,0.13681 -0.2384,0.39907 -0.34787,0.58279 l -0.19902,0.33404 h 0.24327 c 0.22678,0 0.25769,-0.0285 0.45623,-0.42195 z m 2.32039,-0.73834 v -1.16036 h -0.21094 -0.21094 v 1.16036 1.16035 h 0.21094 0.21094 z"
      id="path16391"
      sodipodi:nodetypes="ssscccssssssssscccccsssscccccccccssssccccccsssssssssscsssssscsscssccccsssssscccsscssssccssssccssssssssssscssscssssssscccccsccccccssssssccssscsssssscsssssssssssssssscsssssssssssssssssssssssssscssssssccccccssssssssssssssssssccccsccsssccccccssccccccssscccccsccsscccccssssscccssscccccssssscsscccsssssccscccsssccccccsccsssscccsssssssscssscsscsccsssssssssssscscssccssssssscsssscsssscccccccsssssssssccscsssscssssssssssssscscsssssssssssssscssscccccsssccsscccssccccccccccsscsssssscsssssssssssssscccssssscccsscssccccccccc" />
    <path style="display:inline;fill:#134e4a;fill-opacity:1;stroke-width:0.260731"
      d="m 229.66254,156.50037 c -3.89981,-0.95118 -7.03481,-4.13098 -7.9666,-8.08054 -0.23259,-0.98561 -0.37051,-3.03548 -0.37293,-5.54054 l -0.005,-3.97615 -2.02066,-0.005 c -6.09873,-0.0126 -10.44332,-3.20198 -11.7119,-8.60026 -1.21504,-5.17071 1.91115,-10.8986 6.88748,-12.61942 l 0.97866,-0.33841 0.15582,-8.57828 c 0.14698,-8.10313 0.19193,-8.70825 0.80993,-10.924851 0.35985,-1.290625 0.89767,-2.946354 1.19517,-3.679388 l 0.5409,-1.332825 -2.03455,-0.139657 c -3.23658,-0.221734 -5.4552,-1.438061 -7.15621,-3.922941 -3.14947,-4.600845 -1.5537,-10.847897 3.41407,-13.365027 l 1.51061,-0.765436 5.60572,-0.07955 c 3.08313,-0.04369 5.68676,-0.16087 5.78586,-0.260726 0.099,-0.09976 1.77773,-5.519701 3.73032,-12.044501 3.73177,-12.470049 4.57963,-14.666802 6.64256,-17.209894 4.04045,-4.980974 8.64718,-7.178308 15.68487,-7.481411 l 3.55438,-0.153041 0.12728,-3.938675 c 0.0725,-2.23317 0.27288,-4.33378 0.46314,-4.851217 0.86196,-2.343809 2.74639,-4.13533 5.0925,-4.841393 1.81933,-0.54754 25.00379,-0.54754 26.82312,0 2.34611,0.706063 4.23051,2.497584 5.09247,4.841393 0.19042,0.517437 0.39081,2.618047 0.46314,4.851217 l 0.12753,3.938675 3.55436,0.153041 c 7.00059,0.301512 11.73804,2.547916 15.64817,7.420043 2.11044,2.629588 2.93823,4.770201 6.67928,17.271262 1.9526,6.5248 3.63123,11.944796 3.73031,12.044501 0.099,0.09975 2.70272,0.216935 5.78588,0.260726 l 5.60569,0.07955 1.51061,0.765436 c 4.9678,2.51713 6.5636,8.764182 3.41407,13.365027 -1.70098,2.48488 -3.91961,3.701106 -7.15618,3.922941 l -2.03452,0.139657 0.54087,1.332825 c 0.29747,0.733034 0.83531,2.388763 1.19516,3.679388 0.61805,2.216601 0.66291,2.821721 0.80996,10.924851 l 0.15582,8.57828 0.97863,0.33841 c 4.97633,1.72082 8.10252,7.44871 6.88746,12.61942 -1.26853,5.39828 -5.61314,8.58859 -11.71188,8.60026 l -2.02068,0.005 -0.005,3.97615 c -0.005,5.91496 -0.72758,8.22291 -3.38926,10.83701 -4.19312,4.11809 -10.92205,4.11809 -15.11516,0 -2.66169,-2.6141 -3.38351,-4.92205 -3.38926,-10.83701 l -0.005,-3.97615 H 273.98571 243.2195 l -0.005,3.97615 c -0.005,5.84281 -0.71786,8.17654 -3.27588,10.73456 -2.73583,2.73586 -6.52871,3.80104 -10.27825,2.88652 z m 4.82349,-5.31127 c 1.32757,-0.60901 2.42103,-1.70245 3.02999,-3.03 0.39872,-0.86915 0.47938,-1.72715 0.48415,-5.14944 l 0.005,-4.10652 h -5.73608 -5.73608 l 0.005,4.10652 c 0.005,3.42229 0.0856,4.28029 0.48415,5.14944 0.96136,2.09574 3.07376,3.50839 5.24619,3.50839 0.6453,0 1.6426,-0.21542 2.2162,-0.47839 z m 83.43383,0 c 1.32757,-0.60901 2.42101,-1.70245 3.02997,-3.03 0.39872,-0.86915 0.47938,-1.72715 0.48418,-5.14944 l 0.005,-4.10652 h -5.73608 -5.73608 l 0.005,4.10652 c 0.005,3.42229 0.0856,4.28029 0.48413,5.14944 0.96138,2.09574 3.07379,3.50839 5.24619,3.50839 0.64533,0 1.64263,-0.21542 2.21623,-0.47839 z m 14.07945,-17.99042 c 3.74588,-1.71834 4.66186,-6.41671 1.80268,-9.24654 -1.72737,-1.70965 -0.008,-1.59229 -25.45816,-1.73571 l -23.13403,-0.13031 -0.7169,-0.71703 c -1.00053,-1.00068 -1.00053,-2.51923 2e-5,-3.51988 l 0.71693,-0.717 21.00235,-0.0697 21.00234,-0.0697 -0.10759,-8.27364 c -0.12147,-9.323722 -0.18107,-9.704887 -2.1473,-13.748973 -2.0673,-4.251779 -5.13313,-7.317813 -9.38622,-9.38683 -4.64752,-2.260899 -1.14597,-2.08533 -41.58653,-2.08533 -40.44059,0 -36.93902,-0.175518 -41.58656,2.08533 -4.25309,2.069017 -7.31892,5.135051 -9.3862,9.38683 -1.96635,4.044086 -2.02588,4.425251 -2.1473,13.748973 l -0.10759,8.27364 21.00234,0.0697 21.00236,0.0697 0.71692,0.717 c 1.00053,1.00065 1.00055,2.5192 5e-5,3.51988 l -0.71692,0.71703 -23.13401,0.13031 c -25.45208,0.14344 -23.73079,0.0263 -25.45817,1.73571 -2.85917,2.82983 -1.94322,7.5282 1.80269,9.24654 1.00149,0.45943 3.30413,0.47839 58.01256,0.47839 54.70844,0 57.01103,-0.0202 58.01257,-0.47839 z M 273.0742,121.97982 c -1.66158,-0.71152 -2.10094,-2.86524 -0.84145,-4.12473 0.53724,-0.53726 0.96601,-0.71106 1.75399,-0.71106 3.03195,0 3.38356,4.43162 0.39109,4.92905 -0.43018,0.0715 -1.01684,0.0296 -1.30363,-0.0934 z m -34.54682,-10.47891 c -1.89597,-0.37028 -4.24945,-1.68022 -5.58614,-3.10927 -5.83823,-6.24152 -2.42601,-16.267415 6.04242,-17.754014 6.86333,-1.204862 13.30067,5.205737 12.09586,12.045584 -0.80559,4.57347 -4.15227,8.00964 -8.61159,8.84187 -1.61022,0.3005 -2.29969,0.29628 -3.94055,-0.0253 z m 4.11488,-5.33327 c 4.53293,-1.8935 4.53293,-8.247305 0,-10.140829 -3.45536,-1.443389 -7.47934,1.247037 -7.49866,5.013599 -0.0202,3.8438 3.99673,6.59006 7.49866,5.12723 z m 62.63215,5.33327 c -1.89592,-0.37028 -4.24941,-1.68022 -5.58615,-3.10927 -5.83818,-6.24152 -2.42596,-16.267415 6.04242,-17.754014 6.86338,-1.204862 13.3007,5.205737 12.09589,12.045584 -0.80559,4.57347 -4.15225,8.00964 -8.61159,8.84187 -1.61022,0.3005 -2.29972,0.29628 -3.94057,-0.0253 z m 4.1149,-5.33327 c 2.04363,-0.85368 3.43485,-2.90734 3.43485,-5.0704 0,-2.948782 -2.52127,-5.475358 -5.46389,-5.475358 -3.79781,0 -6.52137,4.030929 -5.0704,7.504368 1.16307,2.78432 4.39762,4.17 7.09944,3.04139 z m -48.88169,-3.29666 c -0.78597,-0.37978 -1.45867,-1.87648 -1.25666,-2.79617 0.0892,-0.405457 0.45859,-1.015931 0.82122,-1.356588 l 0.65932,-0.619389 h 13.25524 13.25525 l 0.65932,0.619389 c 0.36263,0.340657 0.73215,0.951131 0.82124,1.356588 0.21113,0.96038 -0.48316,2.42417 -1.33302,2.81142 -0.8786,0.40031 -26.05132,0.38604 -26.88191,-0.0151 z M 222.5685,83.822173 c 0.60346,-2.044394 1.09723,-3.875286 1.09723,-4.068634 0,-0.284011 -0.7895,-0.333812 -4.10651,-0.259085 -3.53246,0.07955 -4.23027,0.165164 -4.99181,0.61396 -1.24567,0.733716 -1.88804,1.70361 -2.04384,3.085909 -0.10859,0.963405 -0.008,1.408665 0.53883,2.33833 0.98974,1.688836 1.81213,1.993556 5.39959,2.000627 l 3.00929,0.0076 z m 110.81207,3.22251 c 1.3745,-0.701213 2.24171,-2.32113 2.06793,-3.862835 -0.15455,-1.370455 -0.79973,-2.341461 -2.04242,-3.073434 -0.76155,-0.448569 -1.45935,-0.534383 -4.99181,-0.61396 -3.31701,-0.07475 -4.10651,-0.02525 -4.10651,0.259085 0,0.193449 0.49375,2.02424 1.09723,4.068634 l 1.09722,3.717067 h 2.95449 c 2.38636,0 3.14089,-0.09496 3.92387,-0.494557 z m -102.99358,-6.25382 c 2.19816,-1.107455 5.50159,-2.07735 8.08236,-2.373079 1.25082,-0.143445 7.49568,-0.261535 13.87746,-0.262696 l 11.60323,-0.0021 17.54395,-17.545373 c 9.64915,-9.649955 17.46096,-17.628322 17.35957,-17.729693 -0.10153,-0.101523 -4.00783,-0.184357 -8.68102,-0.184357 h -8.49672 l -10.2976,10.315862 c -5.6637,5.673727 -10.63455,10.494601 -11.04632,10.713026 -1.91638,1.01659 -4.27895,-0.970728 -3.53473,-2.973313 0.14647,-0.394347 4.16149,-4.618194 8.9221,-9.386324 l 8.65566,-8.669251 -12.38326,0.0051 c -13.62265,0.0051 -14.17708,0.05556 -17.4445,1.608477 -2.14506,1.019621 -5.03913,3.85733 -6.20798,6.08704 -0.71288,1.359924 -2.68707,7.692513 -8.7558,28.085925 -0.50143,1.684998 -0.86138,3.06361 -0.79993,3.06361 0.0614,0 0.78304,-0.338207 1.60353,-0.751571 z m 20.44317,-10.589468 c -0.98517,-0.828976 -1.20292,-1.705985 -0.71407,-2.87597 0.44271,-1.059548 1.83135,-1.797557 2.88481,-1.533169 0.84198,0.211379 1.9525,1.53673 1.9525,2.330273 0,1.495969 -1.22257,2.729924 -2.70472,2.729924 -0.35463,0 -0.99296,-0.292976 -1.41852,-0.651058 z m 67.55994,8.277429 c -6.04542,-20.314997 -8.04476,-26.730193 -8.75335,-28.085925 -0.82877,-1.585723 -4.30852,-5.352769 -4.94453,-5.352769 -0.18234,0 -7.78156,7.450374 -16.88675,16.556399 l -16.55486,16.556412 17.98963,0.0021 c 10.36246,0.0013 18.96065,0.113392 20.27981,0.26454 2.47134,0.283152 6.38128,1.449627 8.26945,2.467051 0.6453,0.347702 1.24956,0.637521 1.3428,0.643987 0.0932,0.0076 -0.24067,-1.366819 -0.7422,-3.051817 z M 287.80547,34.194027 c 0,-3.629763 -0.31227,-4.760655 -1.45885,-5.283093 -0.91651,-0.417581 -23.80325,-0.417581 -24.71975,0 -1.14655,0.522438 -1.45887,1.65333 -1.45887,5.283093 v 3.284889 h 13.81874 13.81873 z"
      id="path21294" />
  </g>
</svg>