<?xml version="1.0" encoding="UTF-8" standalone="no"?>
<!-- Created with Inkscape (http://www.inkscape.org/) -->

<svg
   version="1.1"
   id="svg170"
   width="211.31445"
   height="109.70914"
   viewBox="0 0 211.31444 109.70915"
   sodipodi:docname="logomod3.svg"
   xml:space="preserve"
   inkscape:version="1.2.2 (732a01da63, 2022-12-09)"
   inkscape:export-filename="63329-OB8B615-908.svg"
   inkscape:export-xdpi="96"
   inkscape:export-ydpi="96"
   xmlns:inkscape="http://www.inkscape.org/namespaces/inkscape"
   xmlns:sodipodi="http://sodipodi.sourceforge.net/DTD/sodipodi-0.dtd"
   xmlns="http://www.w3.org/2000/svg"
   xmlns:svg="http://www.w3.org/2000/svg">
  <defs
   id="defs174"><inkscape:path-effect
     effect="bspline"
     id="path-effect3254"
     is_visible="true"
     lpeversion="1"
     weight="33.333333"
     steps="2"
     helper_size="0"
     apply_no_weight="true"
     apply_with_weight="true"
     only_selected="false" /><linearGradient
     id="linearGradient2380"
     inkscape:swatch="solid"><stop
       style="stop-color:#ffffff;stop-opacity:1;"
       offset="0"
       id="stop2378" /></linearGradient></defs>
  <sodipodi:namedview
   id="namedview172"
   pagecolor="#ffffff"
   bordercolor="#000000"
   borderopacity="0.25"
   inkscape:showpageshadow="2"
   inkscape:pageopacity="0.0"
   inkscape:pagecheckerboard="0"
   inkscape:deskcolor="#d1d1d1"
   showgrid="false"
   inkscape:zoom="2.8284271"
   inkscape:cx="42.603183"
   inkscape:cy="40.65864"
   inkscape:window-width="1920"
   inkscape:window-height="1009"
   inkscape:window-x="1912"
   inkscape:window-y="-8"
   inkscape:window-maximized="1"
   inkscape:current-layer="layer1"
   showguides="false" />
  <g
   inkscape:groupmode="layer"
   id="layer9"
   inkscape:label="Logo101"
   transform="translate(-6.2319843,33.831873)"
   style="display:inline"
   inkscape:export-filename="logo6forGreyBG.svg"
   inkscape:export-xdpi="96"
   inkscape:export-ydpi="96"><a
   id="a34522"
   transform="matrix(0.55484943,0,0,0.52097503,69.51508,-27.994769)"
   style="display:inline;fill:#262626">
      <path
   id="path34514"
   style="display:inline;fill:#262626;fill-opacity:1;stroke:#262626;stroke-width:0;stroke-linecap:butt;stroke-linejoin:miter;stroke-miterlimit:0.7;stroke-dasharray:none;stroke-opacity:1;paint-order:fill markers stroke"
   d="M -113.98062,-3.2526969 V 0.97615259 H 76.136418 c 0.02864,-0.11587663 0.0504,-0.23850323 0.08096,-0.35240413 0.363072,-1.35294351 0.829741,-2.65032776 1.390439,-3.87644536 z m 205.323866,0 c -1.756623,0.7031579 -3.36423,2.2309139 -4.477566,4.22884949 h 8.219432 17.276648 154.39507 V -3.2526969 H 112.36176 109.49992 96.049619 95.085112 Z"
   sodipodi:nodetypes="ccccccccccccccccc" />
      
      
    <path
   style="display:inline;fill:#262626;fill-opacity:1;stroke:#262626;stroke-width:4.57831;stroke-linecap:round;stroke-linejoin:round;stroke-miterlimit:1.8;stroke-dasharray:none;stroke-opacity:1;paint-order:normal"
   d="m 82.552341,23.134371 c 0,0 -0.913354,-4.640787 -1.447877,-8.725623 -0.534523,-4.084836 -0.6898,-7.6128731 0.06742,-11.0037924 0.75722,-3.3909193 2.42737,-6.6430601 4.598655,-8.8818544 2.171285,-2.2387943 4.842184,-3.4627513 7.089776,-3.4377143 2.247592,0.025037 4.070184,1.2971782 5.052119,2.8654024 0.981935,1.5682242 1.125106,3.4317095 1.125105,3.4317094 0,-1e-7 -0.143172,-1.8634889 -1.125106,-3.4317101 -0.981933,-1.5682213 -2.804533,-2.8403669 -5.05212,-2.8654037 -2.247588,-0.025037 -4.918487,1.1989205 -7.089774,3.4377178 -2.171288,2.2387973 -3.841473,5.49100335 -4.598673,8.8819224 -0.7572,3.3909191 -0.601925,6.9188859 -0.0674,11.0037229 0.534523,4.084837 1.447877,8.725623 1.447877,8.725623 z"
   id="path3252"
   inkscape:path-effect="#path-effect3254"
   inkscape:original-d="M 83.465264,27.772967 C 82.553713,23.134101 81.640359,18.493314 80.725147,13.850326 80.571656,10.323837 80.416378,6.7957995 80.259285,3.2655291 c 1.672024,-3.25035975 3.342174,-6.5025008 5.010652,-9.7568129 2.672926,-1.2221404 5.343825,-2.4460974 8.013071,-3.6720422 1.824562,1.2742307 3.647155,2.5463716 5.468015,3.8165887 0.145034,1.865621 0.288205,3.7291063 0.429532,5.59070951 -0.14133,-1.86160321 -0.284501,-3.72509211 -0.429535,-5.59070951 -1.820857,-1.2702146 -3.643456,-2.5423603 -5.468015,-3.8165887 -2.669241,1.2259427 -5.34014,2.4499 -8.013068,3.6720422 -1.668481,3.2543168 -3.338666,6.50652281 -5.010655,9.7568129 0.157097,3.5303397 0.312372,7.0583069 0.465865,10.5847969 0.915211,4.642989 1.828565,9.283775 2.740117,13.922641 z"
   sodipodi:nodetypes="ccccccccccccc" /><path
   id="path1459"
   style="display:inline;fill:#262626;fill-opacity:1;stroke:none;stroke-width:0.417726;stroke-linecap:round;stroke-linejoin:round;stroke-miterlimit:1.8;stroke-dasharray:none;stroke-opacity:1"
   d="M 4.0629608,6.4254526 C 4.791079,6.545684 5.5666191,6.4426223 6.2632973,6.146711 6.3668723,6.1027181 6.4686244,6.054759 6.5688849,6.0029886 6.6591178,5.9563957 6.780902,5.8893016 6.9462066,5.8499384 7.1080126,5.8114074 7.2733172,5.8103789 7.4337511,5.8451918 7.6801754,5.8986698 7.90144,6.0312388 8.0700771,6.2248403 8.2385982,6.4183122 8.342928,6.6592723 8.3728193,6.9183888 8.4026905,7.1773299 8.3558113,7.4364889 8.2390829,7.6661631 8.122432,7.8956846 7.9442397,8.0810483 7.7251323,8.2009949 7.4435514,8.3551421 7.1519377,8.3760571 6.9016794,8.3596206 6.6547936,8.343405 6.4464872,8.293085 6.2705323,8.2660863 5.5983172,8.1629437 4.8572579,8.2636453 4.0628969,8.2940893 3.9159131,8.9719179 4.0000705,10.058946 4.0001445,10.8589 c 0,0.537 0.2130278,1.051885 0.5930271,1.431884 l 8.1161004,8.11603 c 0.790838,0.791195 2.073404,0.791249 2.864308,1.21e-4 l 4.833573,-4.834201 c 0.79068,-0.790875 0.79056,-2.072971 -2.68e-4,-2.863698 L 12.290018,4.5929769 C 11.910524,4.2133563 11.395832,3.9999394 10.859056,3.9996298 l -3.8590061,3.247e-4 c -1.432569,0.00353 -2.6627548,1.0194372 -2.9370891,2.4254981 z m 1.6518679,0.8779018 c 0.2292053,0.00452 0.4532975,-0.00839 0.6896849,0.027877 0.2200838,0.033769 0.4042971,0.075389 0.5570098,0.085419 0.1493408,0.00981 0.2728424,-0.012735 0.3466393,-0.053134 0.054617,-0.029899 0.1057976,-0.082272 0.1342239,-0.1382037 0.028349,-0.055779 0.041228,-0.1288531 0.034139,-0.1903114 -0.00707,-0.061283 -0.035847,-0.1271418 -0.074785,-0.1718439 -0.038821,-0.044568 -0.098396,-0.080611 -0.153796,-0.092635 -0.034311,-0.00745 -0.072022,-0.00643 -0.1044294,0.00129 -0.028909,0.00688 -0.08872,0.032772 -0.1772227,0.078471 C 6.8462923,6.9122436 6.7245055,6.9692258 6.6005409,7.0218792 6.3148394,7.1432297 6.0173891,7.2359896 5.7148287,7.3033544 Z M 8.8375001,9.2581855 9.4850123,8.6024759 10.313493,9.416459 c 0.183651,-0.1764258 0.347681,-0.3010365 0.493255,-0.3749368 0.150403,-0.079078 0.301768,-0.1023602 0.453177,-0.06943 0.151318,0.022748 0.315057,0.098537 0.491703,0.2277664 0.176647,0.1292286 0.385233,0.3166352 0.626291,0.5618287 l 0.723272,0.7352757 -0.810759,0.870507 -0.723244,-0.736029 c -0.206621,-0.210166 -0.358853,-0.319072 -0.456421,-0.327507 -0.102488,-0.01344 -0.226324,0.05752 -0.371167,0.212883 -0.1545,0.165718 -0.223841,0.301809 -0.208259,0.408464 0.01558,0.106656 0.12427,0.262202 0.325972,0.467364 l 0.53856,0.547913 c 0.08855,0.09007 0.167358,0.160003 0.236049,0.209694 0.0686,0.03951 0.136887,0.06376 0.205212,0.07272 0.07315,0.0038 0.156099,-0.0079 0.248474,-0.03501 0.0972,-0.0323 0.221475,-0.07719 0.372061,-0.1359 0.369223,-0.139015 0.6677,-0.243975 0.896176,-0.314269 0.223556,-0.0753 0.420889,-0.10162 0.591702,-0.07922 0.170721,0.01221 0.334261,0.07818 0.491321,0.197576 0.15214,0.114393 0.344341,0.288493 0.57556,0.523678 l 0.899784,0.91629 c 0.241058,0.245194 0.425899,0.458025 0.554264,0.639041 0.128365,0.181017 0.205784,0.350115 0.23157,0.507509 0.02579,0.157394 4.91e-4,0.318604 -0.07603,0.482924 -0.07169,0.159142 -0.192639,0.339043 -0.361441,0.540663 l 0.792577,0.809593 -0.626216,0.640681 -0.810628,-0.758984 c -0.178823,0.171247 -0.343648,0.296582 -0.49405,0.375661 -0.145575,0.0739 -0.293718,0.100033 -0.445035,0.07728 -0.151318,-0.02275 -0.315027,-0.09929 -0.491674,-0.22852 -0.176647,-0.129228 -0.386028,-0.315911 -0.627086,-0.561104 l -1.15837,-1.178899 0.811497,-0.869724 1.158398,1.178146 c 0.103311,0.105083 0.188853,0.187605 0.257629,0.247484 0.06869,0.04969 0.133002,0.07891 0.191579,0.08805 0.06341,0.0039 0.123731,-0.0097 0.181943,-0.04133 0.05812,-0.04178 0.125607,-0.104019 0.202857,-0.186878 0.149672,-0.16054 0.21427,-0.291696 0.193859,-0.393173 -0.01558,-0.106656 -0.123504,-0.262172 -0.325205,-0.467334 l -0.797146,-0.810522 c -0.118069,-0.120095 -0.216716,-0.215249 -0.295331,-0.285137 -0.08354,-0.07489 -0.164337,-0.122323 -0.242501,-0.14129 -0.07826,-0.02915 -0.163189,-0.03501 -0.255655,-0.01807 -0.09247,0.01693 -0.209638,0.0548 -0.350476,0.113339 -0.383707,0.154551 -0.691671,0.26938 -0.924975,0.344853 -0.233304,0.07547 -0.437766,0.109573 -0.613316,0.102535 -0.170721,-0.01221 -0.332473,-0.07048 -0.484522,-0.174684 C 10.956589,13.213835 10.77258,13.046724 10.55612,12.82655 L 10.024173,12.286436 C 9.7831152,12.041243 9.5990703,11.827687 9.4707046,11.646671 9.34234,11.465655 9.2649216,11.296557 9.2391349,11.139162 c -0.025878,-0.167577 -0.00307,-0.330855 0.068621,-0.489997 0.07169,-0.159142 0.1918733,-0.339072 0.3606745,-0.540692 z"
   transform="matrix(0.1783942,4.8846596,-4.6661153,0.18674955,114.19728,-13.666628)" /></a>
    <path
   id="path34566"
   style="font-style:normal;font-variant:normal;font-weight:normal;font-stretch:normal;font-size:85.9094px;font-family:'Kenyan Coffee';-inkscape-font-specification:'Kenyan Coffee';display:inline;fill:#262626;fill-opacity:1;stroke:none;stroke-width:11.0687;stroke-linecap:butt;stroke-linejoin:round;stroke-miterlimit:0.7;stroke-dasharray:none;stroke-opacity:1;paint-order:markers stroke fill"
   d="m 222.24142,-8.4177938 c -2.7491,0 -5.0125,0.1725715 -6.78796,0.5162087 -1.71819,0.2863644 -3.09307,0.9451292 -4.12398,1.9760409 -1.03091,0.9736389 -1.74599,2.4052127 -2.1469,4.2952177 -0.34364,1.89000489 -0.51709,4.3810035 -0.51709,7.4737388 V 60.310203 h 9.62178 v -15.12055 h 8.33413 v 15.12055 h 9.88032 V 5.8434123 c 0,-3.0927353 -0.19982,-5.55522283 -0.60073,-7.3879549 -0.40091,-1.8900049 -1.14743,-3.3215787 -2.23562,-4.2952176 -1.03091,-1.0309118 -2.48998,-1.7181876 -4.37998,-2.0618249 -1.83273,-0.3436372 -4.18033,-0.5162087 -7.04397,-0.5162087 z m -41.23725,0.8593446 v 8.24729938 h 7.47233 V 60.310203 h 9.88031 V 0.68885018 h 7.38869 V -7.5584492 Z m 59.10445,0 7.21632,32.3014212 -7.73087,35.567231 h 9.88031 l 5.4978,-30.32538 5.67015,30.32538 h 10.2225 l -8.0756,-35.567231 6.87414,-32.3014212 h -9.1934 l -4.81089,26.0301622 -5.41161,-26.0301622 z m 35.13873,0 V 60.310203 h 9.87778 V -7.5584492 Z m -52.8361,7.98994752 c 0.85909,0 1.5767,0.0855332 2.14943,0.25735186 0.57273,0.11454576 1.00127,0.37265042 1.28764,0.77356062 0.28636,0.3436372 0.48618,0.8868527 0.60072,1.6314001 0.11455,0.6872745 0.17236,1.6041439 0.17236,2.7496014 V 37.113921 h -8.33413 V 5.8434123 c 0,-1.1454575 0.0289,-2.0623269 0.0862,-2.7496014 0.11454,-0.7445474 0.31689,-1.2877629 0.60326,-1.6314001 0.34364,-0.4009102 0.77218,-0.65901486 1.28763,-0.77356062 0.57273,-0.17181863 1.28781,-0.25735186 2.14691,-0.25735186 z"
   transform="matrix(0.7705506,0,0,1.2977733,-2.1569,-2.874133)"
   inkscape:label="taxi" />
    <path
   id="path34568"
   style="font-style:normal;font-variant:normal;font-weight:normal;font-stretch:normal;font-size:56.945px;font-family:'Kenyan Coffee';-inkscape-font-specification:'Kenyan Coffee';display:inline;fill:#262626;fill-opacity:1;stroke:none;stroke-width:7.33697;stroke-linecap:butt;stroke-linejoin:round;stroke-miterlimit:0.7;stroke-dasharray:none;stroke-opacity:1;paint-order:markers stroke fill"
   inkscape:label="cat"
   d="m 36.891339,-22.570397 -5.809533,9.453355 h 4.101365 l 4.155955,-6.206202 4.157716,6.206202 h 4.099603 l -5.751419,-9.453355 z M 16.90225,-11.4079 c -1.860201,0 -3.397228,0.112316 -4.612053,0.340095 -1.214826,0.189817 -2.182583,0.62722 -2.9038861,1.3105594 -0.6833393,0.645376 -1.1571433,1.5936155 -1.4228864,2.8464042 -0.265743,1.2527888 -0.3997465,2.9062781 -0.3997465,4.9562961 V 25.207603 c 0,2.087981 0.1138538,3.757663 0.3416336,5.010451 0.2657431,1.252789 0.7413081,2.221553 1.4246474,2.904892 0.683339,0.645376 1.630947,1.062255 2.845773,1.252072 1.214825,0.22778 2.79039,0.342261 4.726518,0.342261 1.822239,0 3.322488,-0.114481 4.49935,-0.342261 1.176862,-0.189817 2.107843,-0.606696 2.791182,-1.252072 0.683339,-0.645376 1.138755,-1.595781 1.366535,-2.84857 0.265743,-1.252789 0.397985,-2.940828 0.397985,-5.066773 V 14.785951 H 19.63708 v 10.421652 c 0,0.797229 -0.03854,1.443072 -0.114465,1.936595 -0.03796,0.455559 -0.170205,0.815197 -0.397985,1.08094 -0.189817,0.265743 -0.474451,0.455824 -0.854084,0.569714 -0.34167,0.07593 -0.798846,0.112643 -1.368296,0.112643 -0.607412,0 -1.099605,-0.03672 -1.479238,-0.112643 -0.34167,-0.11389 -0.626304,-0.303971 -0.854084,-0.569714 -0.189816,-0.265743 -0.32382,-0.625381 -0.399747,-1.08094 -0.03796,-0.493523 -0.05635,-1.139366 -0.05635,-1.936595 V -1.9545453 c 0,-0.7213027 0.01839,-1.3099043 0.05635,-1.7654639 0.07593,-0.4935228 0.209931,-0.8736851 0.399747,-1.1394282 0.22778,-0.265743 0.512414,-0.4374659 0.854084,-0.5133925 0.379633,-0.1138899 0.871826,-0.1711309 1.479238,-0.1711309 0.56945,0 1.026626,0.057241 1.368296,0.1711309 0.379633,0.075927 0.664267,0.2476495 0.854084,0.5133925 0.22778,0.2277798 0.360022,0.5874176 0.397985,1.0809405 0.07593,0.4555595 0.114465,1.0646856 0.114465,1.8239516 V 8.2374882 h 6.320222 V -1.9545453 c 0,-2.0879813 -0.132242,-3.7414706 -0.397985,-4.9562961 -0.22778,-1.2527887 -0.683196,-2.2010282 -1.366535,-2.8464042 -0.683339,-0.6833394 -1.61432,-1.1207424 -2.791182,-1.3105594 -1.176862,-0.227779 -2.677111,-0.340095 -4.49935,-0.340095 z m 22.209707,0 c -1.822238,0 -3.322488,0.112316 -4.49935,0.340095 -1.138899,0.189817 -2.049729,0.62722 -2.733069,1.3105594 -0.683339,0.645376 -1.157143,1.5936155 -1.422886,2.8464042 -0.22778,1.2527888 -0.341634,2.9062781 -0.341634,4.9562961 V 34.147565 h 6.376574 V 24.124496 h 5.524251 v 10.023069 h 6.549151 V -1.9545453 c 0,-2.050018 -0.134003,-3.6829829 -0.399746,-4.8978083 -0.265743,-1.2527887 -0.757936,-2.2031945 -1.479239,-2.8485705 -0.683339,-0.6833389 -1.652857,-1.1391009 -2.905646,-1.3668809 -1.214826,-0.227779 -2.770241,-0.340095 -4.668406,-0.340095 z m 11.388374,0.569714 v 5.4653561 h 4.953688 V 34.147565 H 62.00317 V -5.3728299 h 4.897335 v -5.4653561 z m -11.27567,5.2942252 c 0.569449,0 1.045014,0.057241 1.424647,0.1711309 0.379633,0.075927 0.664268,0.2476495 0.854084,0.5133925 0.189817,0.2277798 0.322059,0.5874176 0.397986,1.0809405 0.07593,0.4555595 0.114465,1.0646856 0.114465,1.8239516 V 18.771783 H 36.491592 V -1.9545453 c 0,-0.759266 0.02015,-1.3683921 0.05811,-1.8239516 0.07593,-0.4935229 0.208169,-0.8531607 0.397986,-1.0809405 0.227779,-0.265743 0.512414,-0.4374659 0.854084,-0.5133925 0.379633,-0.1138899 0.853437,-0.1711309 1.422886,-0.1711309 z"
   transform="matrix(1.1091012,0,0,0.90163097,-2.1569,-2.874133)" />
    <path
   id="path34570"
   style="font-style:normal;font-variant:normal;font-weight:normal;font-stretch:normal;font-size:57.0119px;font-family:'Kenyan Coffee';-inkscape-font-specification:'Kenyan Coffee';display:inline;fill:#262626;fill-opacity:1;stroke:none;stroke-width:7.34559;stroke-linecap:butt;stroke-linejoin:round;stroke-miterlimit:0.7;stroke-dasharray:none;stroke-opacity:1;paint-order:markers stroke fill"
   inkscape:label="costa"
   d="m 92.365217,29.767974 c 0,3.306687 0.779138,5.68184 2.337462,7.12614 1.558323,1.4443 3.572636,2.167228 6.043151,2.167228 2.47051,0 4.48482,-0.722928 6.04315,-2.167228 1.55832,-1.4443 2.33746,-3.819453 2.33746,-7.12614 h -3.64743 c -0.038,1.216253 -0.1912,2.204386 -0.45725,2.964544 -0.22805,0.760157 -0.55115,1.369735 -0.96924,1.82583 -0.38008,0.418087 -0.8546,0.701463 -1.42472,0.853494 -0.57012,0.152032 -1.19783,0.229039 -1.88197,0.229039 -0.68414,0 -1.310092,-0.07701 -1.880211,-0.229039 -0.53211,-0.152031 -1.0084,-0.435407 -1.426487,-0.853494 -0.418087,-0.456095 -0.759673,-1.065673 -1.025728,-1.82583 -0.228048,-0.760158 -0.360985,-1.748291 -0.398993,-2.964544 z M 16.996218,40.943351 c -1.862387,0 -3.402175,0.113351 -4.618428,0.341398 -1.216252,0.19004 -2.185552,0.627431 -2.9077024,1.311573 -0.6841421,0.646134 -1.1586661,1.595763 -1.4247214,2.850023 -0.2660553,1.254261 -0.3989926,2.908646 -0.3989926,4.961072 v 27.192985 c 0,2.090435 0.1126853,3.762991 0.3407326,5.017252 0.2660553,1.254261 0.7423448,2.224222 1.4264869,2.908364 0.6841419,0.646134 1.6331899,1.063193 2.8494429,1.253232 1.216253,0.228048 2.79478,0.343559 4.733182,0.343559 1.824379,0 3.325429,-0.115511 4.503674,-0.343559 1.178244,-0.190039 2.108806,-0.607098 2.792948,-1.253232 0.684142,-0.646135 1.140179,-1.595763 1.368227,-2.850024 0.266055,-1.254261 0.398992,-2.947149 0.398992,-5.075592 v -10.43208 h -6.327387 v 10.43208 c 0,0.798166 -0.03874,1.446247 -0.114754,1.94035 -0.03801,0.456095 -0.170946,0.816478 -0.398993,1.082534 -0.19004,0.266055 -0.474401,0.456413 -0.85448,0.570436 -0.342071,0.07602 -0.798108,0.112359 -1.368227,0.112359 -0.608126,0 -1.102902,-0.03634 -1.482981,-0.112359 -0.342071,-0.114023 -0.626433,-0.304381 -0.85448,-0.570436 -0.190039,-0.266056 -0.322977,-0.626439 -0.398993,-1.082534 -0.03801,-0.494103 -0.05826,-1.142184 -0.05826,-1.94035 V 50.407417 c 0,-0.72215 0.02025,-1.311395 0.05826,-1.76749 0.07602,-0.494102 0.208954,-0.874818 0.398993,-1.140873 0.228047,-0.266056 0.512409,-0.436081 0.85448,-0.512097 0.380079,-0.114024 0.874855,-0.17286 1.482981,-0.17286 0.570119,0 1.026156,0.05884 1.368227,0.17286 0.380079,0.07602 0.66444,0.246041 0.85448,0.512097 0.228047,0.228047 0.360985,0.588431 0.398993,1.082533 0.07602,0.456095 0.114754,1.065673 0.114754,1.82583 V 60.61262 h 6.327387 V 50.407417 c 0,-2.090434 -0.132937,-3.744819 -0.398992,-4.961072 -0.228048,-1.25426 -0.684085,-2.203889 -1.368227,-2.850023 -0.684142,-0.684142 -1.614704,-1.121533 -2.792948,-1.311573 -1.178245,-0.228047 -2.679295,-0.341398 -4.503674,-0.341398 z m 22.461872,0 c -1.938402,0 -3.515164,0.113351 -4.731417,0.341398 -1.216252,0.19004 -2.167066,0.627431 -2.851208,1.311573 -0.684142,0.646134 -1.158666,1.595763 -1.424721,2.850023 -0.228048,1.216253 -0.342498,2.870638 -0.342498,4.961072 v 27.192985 c 0,2.090435 0.11445,3.762991 0.342498,5.017252 0.266055,1.254261 0.740579,2.224222 1.424721,2.908364 0.684142,0.646134 1.634956,1.063193 2.851208,1.253232 1.216253,0.228048 2.793015,0.343559 4.731417,0.343559 1.938403,0 3.515164,-0.115511 4.731417,-0.343559 1.216253,-0.190039 2.167066,-0.607098 2.851208,-1.253232 0.72215,-0.684142 1.196674,-1.654103 1.424722,-2.908364 0.266055,-1.254261 0.398992,-2.926817 0.398992,-5.017252 V 50.407417 c 0,-2.090434 -0.132937,-3.744819 -0.398992,-4.961072 -0.228048,-1.25426 -0.702572,-2.203889 -1.424722,-2.850023 C 46.356573,41.91218 45.40576,41.474789 44.189507,41.284749 42.973254,41.056702 41.396493,40.943351 39.45809,40.943351 Z m 22.520132,0 c -1.938403,0 -3.515164,0.113351 -4.731417,0.341398 -1.178244,0.19004 -2.110571,0.627431 -2.794713,1.311573 -0.646135,0.684142 -1.102172,1.654103 -1.368227,2.908363 -0.228048,1.254261 -0.342498,2.924657 -0.342498,5.015091 v 4.334456 c 0,1.064221 0.03874,1.957175 0.114754,2.679325 0.07602,0.72215 0.22744,1.36807 0.455487,1.938189 0.266055,0.570118 0.627894,1.102688 1.083989,1.596791 0.494103,0.456095 1.140303,0.950161 1.938469,1.482271 0.53211,0.342072 1.121085,0.702455 1.767219,1.082534 0.684142,0.380079 1.348829,0.760795 1.994963,1.140874 0.646134,0.342071 1.255361,0.684283 1.82548,1.026354 0.570118,0.304063 1.044642,0.587439 1.424721,0.853495 0.72215,0.494102 1.159701,1.008501 1.311732,1.540611 0.152032,0.532111 0.227744,1.406893 0.227744,2.623146 v 6.78258 c 0,1.558324 -0.171676,2.566789 -0.513747,3.022884 -0.304063,0.456094 -1.064714,0.682795 -2.280967,0.682795 -0.608126,0 -1.101137,-0.03634 -1.481216,-0.112359 -0.342071,-0.114023 -0.607945,-0.304381 -0.797985,-0.570436 -0.190039,-0.266056 -0.322977,-0.626439 -0.398993,-1.082534 -0.03801,-0.494103 -0.05826,-1.142184 -0.05826,-1.94035 v -8.949808 h -6.383881 v 8.949808 c 0,2.128443 0.132937,3.821331 0.398992,5.075592 0.266055,1.254261 0.740579,2.203889 1.424722,2.850024 0.684142,0.646134 1.614703,1.063193 2.792948,1.253232 1.178245,0.228048 2.699546,0.343559 4.561933,0.343559 1.938403,0 3.515164,-0.115511 4.731417,-0.343559 1.216253,-0.190039 2.167066,-0.607098 2.851208,-1.253232 0.684143,-0.684142 1.14018,-1.654103 1.368227,-2.908364 0.266056,-1.254261 0.398993,-2.926817 0.398993,-5.017252 v -7.238498 c 0,-1.25426 -0.05722,-2.301229 -0.171249,-3.137403 -0.07602,-0.836173 -0.266179,-1.55694 -0.570242,-2.165067 -0.266055,-0.608126 -0.703606,-1.158868 -1.311732,-1.65297 -0.570119,-0.494103 -1.329004,-1.047005 -2.279201,-1.655131 -1.292269,-0.798166 -2.49047,-1.462258 -3.592699,-1.994369 -1.064221,-0.53211 -1.919071,-1.008005 -2.565205,-1.426092 -0.760158,-0.456095 -1.234682,-0.893486 -1.424722,-1.311573 -0.190039,-0.456094 -0.286003,-1.140519 -0.286003,-2.052708 v -4.446815 c 0,-0.798166 0.01849,-1.444086 0.05649,-1.938189 0.07602,-0.494102 0.208954,-0.854486 0.398993,-1.082533 0.19004,-0.266056 0.45768,-0.436081 0.799751,-0.512097 0.380079,-0.114024 0.891576,-0.17286 1.53771,-0.17286 0.608127,0 1.102903,0.05884 1.482982,0.17286 0.380079,0.07602 0.666205,0.246041 0.856245,0.512097 0.190039,0.228047 0.302725,0.588431 0.340732,1.082533 0.07602,0.494103 0.114755,1.140023 0.114755,1.938189 v 5.587689 h 6.385647 v -5.587689 c 0,-2.090434 -0.132937,-3.76083 -0.398992,-5.015091 -0.228048,-1.25426 -0.684085,-2.224221 -1.368227,-2.908363 -0.684142,-0.684142 -1.634956,-1.121533 -2.851208,-1.311573 -1.178245,-0.228047 -2.73652,-0.341398 -4.674923,-0.341398 z m 38.539858,0 c -1.824375,0 -3.325424,0.113351 -4.503669,0.341398 -1.140237,0.19004 -2.052312,0.627431 -2.736454,1.311573 -0.684142,0.646134 -1.158666,1.595763 -1.424721,2.850023 -0.228048,1.254261 -0.342498,2.908646 -0.342498,4.961072 v 36.144955 h 6.385647 V 76.517869 h 5.529405 v 10.034503 h 6.55689 V 50.407417 c 0,-2.052426 -0.13293,-3.686479 -0.39899,-4.902732 -0.26605,-1.25426 -0.76083,-2.20605 -1.48298,-2.852184 -0.68414,-0.684142 -1.65344,-1.139705 -2.9077,-1.367752 -1.21626,-0.228047 -2.77453,-0.341398 -4.67493,-0.341398 z m -27.366299,0.570437 v 5.473169 h 4.960926 v 39.565415 h 6.556896 V 46.986957 h 4.902666 v -5.473169 z m -33.637196,5.300309 c 0.570118,0 1.026156,0.05884 1.368227,0.17286 0.380079,0.07602 0.666205,0.246041 0.856245,0.512097 0.228047,0.228047 0.360985,0.588431 0.398992,1.082533 0.07602,0.456095 0.11299,1.065673 0.11299,1.82583 v 27.192985 c 0,0.760158 -0.03697,1.387907 -0.11299,1.88201 -0.03801,0.456095 -0.170945,0.83681 -0.398992,1.140874 -0.19004,0.266055 -0.476166,0.456413 -0.856245,0.570436 -0.380079,0.07602 -0.87309,0.112359 -1.481216,0.112359 -0.570119,0 -1.044643,-0.03634 -1.424722,-0.112359 -0.342071,-0.114023 -0.628198,-0.304381 -0.856245,-0.570436 -0.190039,-0.266056 -0.322977,-0.626439 -0.398993,-1.082534 -0.03801,-0.494103 -0.05649,-1.142184 -0.05649,-1.94035 V 50.407417 c 0,-1.482307 0.169911,-2.452268 0.511982,-2.908363 0.342071,-0.456095 1.121208,-0.684957 2.337461,-0.684957 z m 61.118255,0 c 0.57012,0 1.04464,0.05884 1.42472,0.17286 0.38008,0.07602 0.66444,0.246041 0.85448,0.512097 0.19004,0.228047 0.32298,0.588431 0.39899,1.082533 0.076,0.456095 0.11476,1.065673 0.11476,1.82583 V 71.159219 H 97.896385 V 50.407417 c 0,-0.760157 0.01849,-1.369735 0.05649,-1.82583 0.07602,-0.494102 0.208954,-0.854486 0.398993,-1.082533 0.228047,-0.266056 0.512409,-0.436081 0.85448,-0.512097 0.380079,-0.114024 0.856372,-0.17286 1.426492,-0.17286 z"
   transform="matrix(1.1063018,0,0,0.90391247,-2.1569,-2.874133)" />
  </g>
</svg>
