<?xml version="1.0" encoding="UTF-8" standalone="no"?>
<svg
   data-name="Layer 1"
   width="601.29932"
   height="544.30573"
   viewBox="0 0 601.29933 544.30573"
   version="1.1"
   id="svg72"
   sodipodi:docname="undraw_up_to_date.svg"
   inkscape:version="1.2.2 (732a01da63, 2022-12-09)"
   xmlns:inkscape="http://www.inkscape.org/namespaces/inkscape"
   xmlns:sodipodi="http://sodipodi.sourceforge.net/DTD/sodipodi-0.dtd"
   xmlns="http://www.w3.org/2000/svg"
   xmlns:svg="http://www.w3.org/2000/svg">
  <defs
     id="defs76" />
  <sodipodi:namedview
     id="namedview74"
     pagecolor="#ffffff"
     bordercolor="#000000"
     borderopacity="0.25"
     inkscape:showpageshadow="2"
     inkscape:pageopacity="0.0"
     inkscape:pagecheckerboard="0"
     inkscape:deskcolor="#d1d1d1"
     showgrid="false"
     inkscape:zoom="1.0755808"
     inkscape:cx="112.49736"
     inkscape:cy="291.00557"
     inkscape:window-width="1920"
     inkscape:window-height="1009"
     inkscape:window-x="-8"
     inkscape:window-y="-8"
     inkscape:window-maximized="1"
     inkscape:current-layer="svg72" />
  <!-- <path
        d="M297.877,683.38244c6.97183,15.94456,22.45956,25.70235,38.3179,33.634q3.32144,1.66162,6.63223,3.228c.01457.0042.03047.01518.04523.01951.10615.0499.2125.09991.312.1511.45547.215.91111.43014,1.36269.64248l-.215.13295-.67082.41042c.23234-.13273.46213-.26135.69447-.39408.06905-.04024.142-.07784.21088-.11824,8.00374-4.52878,16.1244-9.32872,21.75857-16.57417,5.84372-7.523,8.395-18.44726,3.60226-26.6803a16.784,16.784,0,0,0-2.22949-2.99524c-.35112-.3834-.72258-.74565-1.10614-1.0987a17.98976,17.98976,0,0,0-29.91386,9.47245c-2.38656-9.814,4.719-19.2394,11.80488-26.43783,7.08973-7.19578,15.1841-15.08157,15.40206-25.18395a19.46452,19.46452,0,0,0-6.55374-14.52947c-.12525-.11591-.25033-.23166-.37835-.34358a26.25441,26.25441,0,0,0-17.91643-6.76116c-12.28565.34406-23.20857,8.3165-30.89781,17.90761C295.76211,643.29627,289.95094,665.25346,297.877,683.38244Z"
        transform="translate(-294.25191 -177.5)" fill="#f2f2f2" />
    <path
        d="M317.78729,658.686a44.6309,44.6309,0,0,0-3.7538,12.39261,38.75342,38.75342,0,0,0,.17346,11.52253,49.653,49.653,0,0,0,9.41108,21.54832,71.46189,71.46189,0,0,0,12.57685,12.867q3.32144,1.66162,6.63223,3.228c.01457.0042.03047.01518.04523.01951.10615.0499.2125.09991.312.1511.45547.215.91111.43014,1.36269.64248l-.215.13295-.67082.41042c.23234-.13273.46213-.26135.69447-.39408.06905-.04024.142-.07784.21088-.11824a39.5028,39.5028,0,0,1,8.06941-35.37736,39.84132,39.84132,0,0,1,15.06193-10.87235c-.35112-.3834-.72258-.74565-1.10614-1.0987a41.30751,41.30751,0,0,0-6.421,3.45226,40.47516,40.47516,0,0,0-15.82805,19.89211,41.38139,41.38139,0,0,0-1.48789,23.1028c-.389-.26884-.77942-.54446-1.15891-.81843a72.55923,72.55923,0,0,1-18.74572-18.68411,46.19226,46.19226,0,0,1-7.66205-21.03183c-.76779-8.22616,1.49009-16.23856,5.33828-23.46293a96.68992,96.68992,0,0,1,15.69189-21.13A109.86835,109.86835,0,0,1,357.07,618.11851a.78992.78992,0,0,0,.26111-1.05719.67191.67191,0,0,0-.37835-.34358.585.585,0,0,0-.50075.088c-.93608.59079-1.86441,1.18693-2.78214,1.80214A111.11547,111.11547,0,0,0,332.89756,636.632,89.45529,89.45529,0,0,0,317.78729,658.686Z"
        transform="translate(-294.25191 -177.5)" fill="#fff" /> -->
  <path
     d="m 181.49607,370.28369 a 25.80322,25.80322 0 1 1 25.80322,-25.80322 25.83231,25.83231 0 0 1 -25.80322,25.80322 z m 0,-49.60644 a 23.80322,23.80322 0 1 0 23.80322,23.80322 23.83017,23.83017 0 0 0 -23.80322,-23.80322 z"
     fill="#134e4a"
     id="path2" />
  <path
     id="f73b5929-bbea-48c2-a07c-236a7aa3f606-45"
     data-name="Path 395"
     d="m 179.03828,353.942 a 2.57246,2.57246 0 0 1 -1.5476,-0.51433 l -0.0277,-0.0208 -5.82907,-4.45905 a 2.5903947,2.5903947 0 1 1 3.1521,-4.11155 l 3.77561,2.8953 8.92195,-11.63967 a 2.5893,2.5893 0 0 1 3.63033,-0.47952 l 7.5e-4,5.6e-4 -0.0554,0.0769 0.0569,-0.0769 a 2.59244,2.59244 0 0 1 0.47895,3.63106 l -10.49417,13.68467 a 2.59083,2.59083 0 0 1 -2.06038,1.01021 z"
     fill="#134e4a" />
  <circle
     cx="90.170021"
     cy="190.59344"
     r="24.561029"
     fill="#a0616a"
     id="circle5" />
  <path
     d="m 81.30233,335.92549 q -0.464,0 -0.93213,-0.041 a 11.00261,11.00261 0 0 1 -9.875,-13.11622 10.30147,10.30147 0 0 1 0.27,-1.04589 l -36.25,-42.87305 a 8.54468,8.54468 0 0 1 -0.59448,-10.18457 l 0.0657,-0.0801 32.62939,-32.17383 a 9.43208,9.43208 0 1 1 13.12061,13.55274 L 56.1041,272.43036 81.97568,313.9538 a 10.47053,10.47053 0 0 1 1.45923,0.17969 11.00243,11.00243 0 0 1 -2.13257,21.792 z"
     fill="#a0616a"
     id="path7" />
  <polygon
     points="238.911,485.133 220.817,485.134 220.819,532.422 233.079,532.421 "
     fill="#a0616a"
     id="polygon9"
     transform="translate(-90.19689)" />
  <path
     d="m 127.49494,528.419 24.1438,-10e-4 h 10e-4 a 15.38605,15.38605 0 0 1 15.38646,15.38629 v 0.5 l -39.53051,10e-4 z"
     fill="#2f2e41"
     id="path11" />
  <polygon
     points="138.702,484.096 123.155,474.84 98.963,515.471 109.497,521.743 "
     fill="#a0616a"
     id="polygon13"
     transform="translate(-90.19689)" />
  <path
     d="m 8.12732,510.432 20.74515,12.35159 8.4e-4,4.9e-4 a 15.386,15.386 0 0 1 5.34836,21.09206 l -0.25581,0.4296 L 0,524.08244 Z"
     fill="#2f2e41"
     id="path15" />
  <path
     d="m 145.77474,515.71944 h -13.72827 a 4.49181,4.49181 0 0 1 -4.47461,-4.02442 L 113.73177,381.59834 a 1.50029,1.50029 0 0 0 -2.85889,-0.459 l -24.96777,55.28613 -44.2041,72.08008 a 4.52141,4.52141 0 0 1 -5.64844,1.76562 l -17.65918,-7.76953 a 4.50135,4.50135 0 0 1 -2.05078,-6.42773 l 40.63574,-68.041 12.46265,-57.32812 c -3.91968,-24.86133 12.88379,-61.82324 13.0542,-62.19434 l 0.0832,-0.18066 50.52564,-20.21094 0.23217,0.28418 c 30.02271,36.64844 25.137,126.48731 16.92408,223.19336 a 4.53045,4.53045 0 0 1 -4.4856,4.12305 z"
     fill="#2f2e41"
     id="path17" />
  <path
     d="m 80.7137,314.38741 -0.21557,-0.45313 c -0.103,-0.2168 -10.395,-21.92383 -18.32886,-45.124 a 34.22092,34.22092 0 0 1 2.3728,-27.42481 34.59433,34.59433 0 0 1 22.06055,-16.96386 v 0 a 34.63631,34.63631 0 0 1 40.2019,20.74316 c 6.29322,15.7373 8.52735,30.415 6.6399,43.625 l -0.0376,0.26465 -0.24072,0.11523 z"
     fill="#134e4a"
     id="path19" />
  <path
     d="m 167.13568,349.60385 a 11.31758,11.31758 0 0 1 -8.67711,4.2501 v 0 a 11.30718,11.30718 0 0 1 -11.45875,-11.61186 10.8998,10.8998 0 0 1 0.17967,-1.65988 L 98.8162,250.5066 a 9.05214,9.05214 0 1 1 15.405,-9.51 l 47.247,90.70721 a 11.29459,11.29459 0 0 1 5.66747,17.90006 z"
     fill="#a0616a"
     id="path21" />
  <path
     d="m 119.94954,176.71944 h -39 v -17 c 8.56006,-3.40076 16.93653,-6.29291 22,0 a 17.00009,17.00009 0 0 1 17,17 z"
     fill="#2f2e41"
     id="path23" />
  <path
     d="m 78.79036,156.71944 c -23.31494,0 -29.84082,29.22436 -29.84082,45.7113 0,9.19458 4.15821,12.48315 10.69239,13.59589 l 2.30761,-12.30719 5.40479,12.83679 c 1.83545,0.009 3.76367,-0.0264 5.76269,-0.0635 l 1.83252,-3.77331 4.08643,3.70562 c 16.3667,0.0244 29.59473,2.41016 29.59473,-13.99432 0,-16.48694 -5.72315,-45.7113 -29.84034,-45.7113 z"
     fill="#2f2e41"
     id="path25" />
  <circle
     cx="370.29929"
     cy="151"
     r="8"
     fill="#cccccc"
     id="circle27" />
  <path
     d="m 575.49607,248.28369 a 25.80322,25.80322 0 1 1 25.80322,-25.80322 25.83228,25.83228 0 0 1 -25.80322,25.80322 z m 0,-49.60644 a 23.80322,23.80322 0 1 0 23.80322,23.80322 23.83015,23.83015 0 0 0 -23.80322,-23.80322 z"
     fill="#134e4a"
     id="path29" />
  <path
     id="b9831659-891b-45a6-8adc-1a9375a374c9-46"
     data-name="Path 395"
     d="m 573.03828,231.942 a 2.57246,2.57246 0 0 1 -1.5476,-0.51433 l -0.0277,-0.0208 -5.82907,-4.459 a 2.5903947,2.5903947 0 1 1 3.1521,-4.11155 l 3.77561,2.8953 8.92195,-11.63967 a 2.5893,2.5893 0 0 1 3.63033,-0.47952 l 7.5e-4,5.6e-4 -0.0554,0.0769 0.0569,-0.0769 a 2.59244,2.59244 0 0 1 0.47895,3.63106 l -10.49417,13.68462 a 2.59083,2.59083 0 0 1 -2.06038,1.01021 z"
     fill="#134e4a" />
  <path
     d="m 572.29929,152 h -176 a 1,1 0 0 1 0,-2 h 176 a 1,1 0 0 1 0,2 z"
     fill="#cccccc"
     id="path32" />
  <path
     d="m 572.29929,171 h -176 a 1,1 0 0 1 0,-2 h 176 a 1,1 0 0 1 0,2 z"
     fill="#cccccc"
     id="path34" />
  <path
     d="m 572.29929,190 h -176 a 1,1 0 0 1 0,-2 h 176 a 1,1 0 0 1 0,2 z"
     fill="#cccccc"
     id="path36" />
  <path
     d="m 532.29929,209 h -136 a 1,1 0 0 1 0,-2 h 136 a 1,1 0 0 1 0,2 z"
     fill="#cccccc"
     id="path38" />
  <path
     d="m 531.29929,228 h -135 a 1,1 0 0 1 0,-2 h 135 a 1,1 0 0 1 0,2 z"
     fill="#cccccc"
     id="path40" />
  <circle
     cx="370.29929"
     cy="8"
     r="8"
     fill="#cccccc"
     id="circle42" />
  <path
     d="m 575.49607,105.28369 a 25.80322,25.80322 0 1 1 25.80322,-25.80322 25.83228,25.83228 0 0 1 -25.80322,25.80322 z m 0,-49.60644 a 23.80322,23.80322 0 1 0 23.80322,23.80322 23.83015,23.83015 0 0 0 -23.80322,-23.80322 z"
     fill="#134e4a"
     id="path44" />
  <path
     id="a4eaae8d-0473-4dfb-80cb-ce1489130d65-47"
     data-name="Path 395"
     d="m 573.03828,88.942 a 2.57246,2.57246 0 0 1 -1.5476,-0.51433 l -0.0277,-0.0208 -5.82907,-4.459 a 2.5903947,2.5903947 0 1 1 3.1521,-4.11155 l 3.77561,2.8953 8.92195,-11.63967 a 2.5893,2.5893 0 0 1 3.63033,-0.47952 l 7.5e-4,5.6e-4 -0.0554,0.0769 0.0569,-0.0769 a 2.59244,2.59244 0 0 1 0.47895,3.63106 l -10.49417,13.68462 a 2.59083,2.59083 0 0 1 -2.06038,1.01021 z"
     fill="#134e4a" />
  <path
     d="m 572.29929,9 h -176 a 1,1 0 0 1 0,-2 h 176 a 1,1 0 0 1 0,2 z"
     fill="#cccccc"
     id="path47" />
  <path
     d="m 572.29929,28 h -176 a 1,1 0 0 1 0,-2 h 176 a 1,1 0 0 1 0,2 z"
     fill="#cccccc"
     id="path49" />
  <path
     d="m 572.29929,47 h -176 a 1,1 0 0 1 0,-2 h 176 a 1,1 0 0 1 0,2 z"
     fill="#cccccc"
     id="path51" />
  <path
     d="m 532.29929,66 h -136 a 1,1 0 0 1 0,-2 h 136 a 1,1 0 0 1 0,2 z"
     fill="#cccccc"
     id="path53" />
  <path
     d="m 531.29929,85 h -135 a 1,1 0 0 1 0,-2 h 135 a 1,1 0 0 1 0,2 z"
     fill="#cccccc"
     id="path55" />
  <circle
     cx="370.29929"
     cy="293"
     r="8"
     fill="#cccccc"
     id="circle57" />
  <path
     d="m 575.49607,390.28369 a 25.80322,25.80322 0 1 1 25.80322,-25.80322 25.83228,25.83228 0 0 1 -25.80322,25.80322 z m 0,-49.60644 a 23.80322,23.80322 0 1 0 23.80322,23.80322 23.83015,23.83015 0 0 0 -23.80322,-23.80322 z"
     fill="#e6e6e6"
     id="path59" />
  <path
     id="a21ca558-fa96-4264-98a7-0764bc68c1d4-48"
     data-name="Path 395"
     d="m 573.03828,373.942 a 2.57246,2.57246 0 0 1 -1.5476,-0.51433 l -0.0277,-0.0208 -5.82907,-4.45905 a 2.5903947,2.5903947 0 1 1 3.1521,-4.11155 l 3.77561,2.8953 8.92195,-11.63967 a 2.5893,2.5893 0 0 1 3.63033,-0.47952 l 7.5e-4,5.6e-4 -0.0554,0.0769 0.0569,-0.0769 a 2.59244,2.59244 0 0 1 0.47895,3.63106 l -10.49417,13.68467 a 2.59083,2.59083 0 0 1 -2.06038,1.01021 z"
     fill="#e6e6e6" />
  <path
     d="m 572.29929,294 h -176 a 1,1 0 0 1 0,-2 h 176 a 1,1 0 0 1 0,2 z"
     fill="#cccccc"
     id="path62" />
  <path
     d="m 572.29929,313 h -176 a 1,1 0 0 1 0,-2 h 176 a 1,1 0 0 1 0,2 z"
     fill="#cccccc"
     id="path64" />
  <path
     d="m 572.29929,332 h -176 a 1,1 0 0 1 0,-2 h 176 a 1,1 0 0 1 0,2 z"
     fill="#cccccc"
     id="path66" />
  <path
     d="m 532.29929,351 h -136 a 1,1 0 0 1 0,-2 h 136 a 1,1 0 0 1 0,2 z"
     fill="#cccccc"
     id="path68" />
  <path
     d="m 531.29929,370 h -135 a 1,1 0 0 1 0,-2 h 135 a 1,1 0 0 1 0,2 z"
     fill="#cccccc"
     id="path70" />
  <!-- <path d="M680.51581,722.5h-381a1,1,0,0,1,0-2h381a1,1,0,0,1,0,2Z" transform="translate(-294.25191 -177.5)"
        fill="#ccc" /> -->
</svg>
