<?xml version="1.0" encoding="UTF-8" standalone="no"?>
<svg data-name="Layer 1" width="551.72894" height="532.5" viewBox="0 0 551.72894 532.5" version="1.1" id="svg70"
   sodipodi:docname="undraw_right_direction.svg" inkscape:version="1.2.2 (732a01da63, 2022-12-09)"
   xmlns:inkscape="http://www.inkscape.org/namespaces/inkscape"
   xmlns:sodipodi="http://sodipodi.sourceforge.net/DTD/sodipodi-0.dtd" xmlns="http://www.w3.org/2000/svg"
   xmlns:svg="http://www.w3.org/2000/svg">
   <defs id="defs74" />
   <sodipodi:namedview id="namedview72" pagecolor="#ffffff" bordercolor="#000000" borderopacity="0.25"
      inkscape:showpageshadow="2" inkscape:pageopacity="0.0" inkscape:pagecheckerboard="0" inkscape:deskcolor="#d1d1d1"
      showgrid="false" inkscape:zoom="1.1008291" inkscape:cx="178.95602" inkscape:cy="279.7891"
      inkscape:window-width="1920" inkscape:window-height="1009" inkscape:window-x="1912" inkscape:window-y="-8"
      inkscape:window-maximized="1" inkscape:current-layer="svg70" />
   <polygon points="105.746,513.506 124.762,467.944 106.706,462.896 93.512,510.086 " fill="#ffb8b8" id="polygon2"
      transform="matrix(-1,0,0,1,630.61161,0)" />
   <path
      d="m 504.44632,531.46365 38.45122,-10.75026 -4.15351,-14.85615 -25.08197,7.01246 a 13.88193,13.88193 0 0 0 -9.63145,17.10705 z"
      fill="#2f2e41" id="path4" />
   <polygon points="252.155,519.666 258.196,470.666 239.447,470.667 239.451,519.667 " fill="#ffb8b8" id="polygon6"
      transform="matrix(-1,0,0,1,630.61161,0)" />
   <path
      d="m 353.95566,531.46004 39.92574,0.004 0.001,-15.42585 -26.04381,-0.002 a 13.88193,13.88193 0 0 0 -13.88319,13.88067 z"
      fill="#2f2e41" id="path8" />
   <polygon points="145.049,316.237 115.809,387.868 235.206,414.691 236.729,374.615 182.513,316.868 " fill="#b3b3b3"
      id="polygon10" transform="matrix(-1,0,0,1,630.61161,0)" />
   <circle cx="-467.37967" cy="-49.554005" r="27.292629"
      transform="matrix(-0.87745434,-0.47966018,-0.47966018,0.87745434,0,0)" fill="#ffb8b8" id="circle12" />
   <path
      d="m 414.37179,312.27344 54.044,-22.12305 4.81176,-31.72754 A 36.45558,36.45558 0 0 0 444.33006,217.167 l -7.14843,-1.43554 a 36.79131,36.79131 0 0 0 -32.94727,9.772 35.12661,35.12661 0 0 0 -10.30688,31.60449 30.60008,30.60008 0 0 0 5.78149,13.47021 c 16.97778,22.20167 14.79834,40.65772 14.77417,40.8418 z"
      fill="#134e4a" id="path14" />
   <path
      d="m 392.3662,395.01465 27.08471,-43.07422 -8.53076,-78.35449 11.78418,-58.60108 -0.62646,0.0156 a 26.70383,26.70383 0 0 0 -26.03708,26.04834 l -11.46387,57.42383 z"
      fill="#2f2e41" id="path16" />
   <path
      d="m 391.74754,510.40381 a 4.946,4.946 0 0 0 4.844,-3.97022 l 11.866,-59.00488 a 92.563,92.563 0 0 1 12.05151,-30.52148 l 33.48169,-54.16162 a 1.72243,1.72243 0 0 1 3.05517,0.24414 l 55.04712,132.2373 a 4.9562,4.9562 0 0 0 5.553,2.94434 l 14.7052,-2.998 a 4.924,4.924 0 0 0 3.88733,-5.67188 L 524.24247,418.80376 A 182.47371,182.47371 0 0 0 511.82328,376.9146 l -40.627,-93.89355 -59.95507,19.69043 -3.9563,41.98242 -27.70212,67.07856 a 45.98228,45.98228 0 0 0 -3.3877,14.54834 l -5.11792,77.5249 a 4.96767,4.96767 0 0 0 4.531,5.2544 l 15.73218,1.28711 c 0.13644,0.0108 0.27244,0.0166 0.40719,0.0166 z"
      fill="#2f2e41" id="path18" />
   <path
      d="m 501.12047,414.22461 19.00745,-18.0415 -35.92151,-138.51758 a 58.06061,58.06061 0 0 0 -34.16468,-39.03076 l -0.70532,-0.28711 1.91944,84.30468 z"
      fill="#2f2e41" id="path20" />
   <path
      d="m 440.23365,207.89694 c 6.7427,-5.83628 8.79338,-16.7236 4.66183,-24.75013 -4.13155,-8.02653 -14.01047,-12.34744 -22.45774,-9.82272 -7.9559,2.37787 -17.00017,-5.55377 -16.03091,-14.05877 0.96926,-8.505 11.54881,-14.04517 18.7522,-9.81991 a 30.51075,30.51075 0 0 1 32.52392,6.3346 c 8.46306,8.29077 11.67367,21.84425 7.87434,33.24121 -3.79933,11.39696 -14.40459,20.02537 -25.32364,18.87572 z"
      fill="#2f2e41" id="path22" />
   <path
      d="m 464.10887,429.71363 a 4.66266,4.66266 0 0 0 1.03329,0.26633 l 43.39494,6.0576 a 4.67,4.67 0 0 0 5.02681,-2.96278 l 37.35282,-97.19509 a 4.69015,4.69015 0 0 0 -3.35629,-6.26032 l -2.3e-4,-9e-5 -40.80846,-9.10662 a 3.728,3.728 0 0 1 -0.90578,-0.33136 l -39.692,-20.75223 a 4.64571,4.64571 0 0 0 -0.96491,-0.37553 l -43.68136,-11.645 a 4.681,4.681 0 0 0 -5.58631,2.84924 l -32.56935,84.74813 a 4.66674,4.66674 0 0 0 0.61613,4.48382 l 11.26374,15.126 a 4.68394,4.68394 0 0 0 2.07947,1.57648 l 24.61611,9.46016 a 3.7085,3.7085 0 0 1 0.51152,0.24314 l 41.019,23.5089 a 4.68521,4.68521 0 0 0 0.65086,0.30922 z"
      fill="#ffffff" id="path24" />
   <path
      d="m 443.91925,300.36523 5.547,1.47941 14.69954,3.92049 0.0262,0.006 20.12476,10.5228 7.46846,3.90575 0.003,10e-4 11.21691,5.86409 0.30761,0.0693 11.65245,2.5986 5.63163,1.25917 22.96944,5.1254 -36.05914,93.82882 -23.66978,-3.303 -5.80365,-0.81156 -12.37,-1.72874 -0.14359,-0.0185 -39.74931,-22.78177 -24.18458,-9.29432 -11.042,-14.8275 31.38876,-81.67614 z"
      fill="#e6e6e6" id="path26" />
   <rect x="-627.60425" y="137.95929" width="128.10654" height="5.7085099"
      transform="matrix(-0.93344181,-0.35872884,-0.35872884,0.93344181,0,0)" fill="#ffffff" id="rect28" />
   <rect x="-627.60425" y="156.98767" width="128.10654" height="5.7085099"
      transform="matrix(-0.93344181,-0.35872884,-0.35872884,0.93344181,0,0)" fill="#ffffff" id="rect30" />
   <rect x="-627.60425" y="195.42496" width="128.10654" height="5.7085099"
      transform="matrix(-0.93344181,-0.35872884,-0.35872884,0.93344181,0,0)" fill="#ffffff" id="rect32" />
   <polygon points="222.492,393.519 217.164,395.567 181.145,301.845 186.692,300.365 " fill="#ffffff" id="polygon34"
      transform="matrix(-1,0,0,1,630.61161,0)" />
   <polygon
      points="127.9,367.493 126.221,372.162 114.17,405.7 111.037,397.547 120.863,370.198 123.086,364.006 123.412,363.102 126.041,355.781 129.358,346.548 131.907,339.452 138.823,320.201 138.826,320.2 146.295,316.294 138.944,336.748 136.395,343.843 130.449,360.398 129.175,363.937 "
      fill="#ffffff" id="polygon36" transform="matrix(-1,0,0,1,630.61161,0)" />
   <polygon
      points="127.606,326.065 138.823,320.201 138.826,320.2 146.295,316.294 166.42,305.771 166.446,305.765 205.707,399.97 204.84,400.303 165.091,423.085 164.947,423.103 127.298,326.134 "
      opacity="0.1" id="polygon38" transform="matrix(-1,0,0,1,630.61161,0)" />
   <path
      d="m 463.92974,430.18044 a 5.17988,5.17988 0 0 0 1.14313,0.29494 l 43.39517,6.05769 a 5.16845,5.16845 0 0 0 5.56259,-3.27893 l 37.35282,-97.19508 a 5.19044,5.19044 0 0 0 -3.71417,-6.92776 l -40.80846,-9.10662 a 3.24307,3.24307 0 0 1 -0.78321,-0.28687 l -39.692,-20.75223 a 5.16094,5.16094 0 0 0 -1.06729,-0.4154 l -43.682,-11.64475 a 5.17964,5.17964 0 0 0 -6.18166,3.153 l -32.56935,84.74813 a 5.16511,5.16511 0 0 0 0.68184,4.96207 l 11.26364,15.12542 a 5.18258,5.18258 0 0 0 2.30116,1.74485 l 24.61611,9.46016 a 3.21137,3.21137 0 0 1 0.44252,0.21034 l 41.01881,23.50882 a 5.18984,5.18984 0 0 0 0.72035,0.34222 z m 83.75415,-98.96107 a 3.19083,3.19083 0 0 1 1.83267,4.12223 l -37.35277,97.19508 a 3.1767,3.1767 0 0 1 -3.41933,2.01544 l -43.39517,-6.05769 a 3.20364,3.20364 0 0 1 -1.14572,-0.39166 l -41.019,-23.5089 a 5.20782,5.20782 0 0 0 -0.719,-0.34169 l -24.6161,-9.46016 a 3.18755,3.18755 0 0 1 -1.41451,-1.07246 L 385.17127,378.5941 a 3.1746,3.1746 0 0 1 -0.41908,-3.05012 l 32.56936,-84.74813 a 3.184,3.184 0 0 1 3.79956,-1.93837 l 43.68156,11.64512 a 3.28983,3.28983 0 0 1 0.65573,0.25514 l 39.69255,20.75295 a 5.276,5.276 0 0 0 1.27381,0.466 l 40.80869,9.10671 a 3.16512,3.16512 0 0 1 0.45044,0.13597 z"
      fill="#e6e6e6" id="path40" />
   <polygon points="152.577,424.832 146.774,425.643 110.014,329.992 115.646,328.733 " fill="#ffffff" id="polygon42"
      transform="matrix(-1,0,0,1,630.61161,0)" />
   <circle cx="-504.34387" cy="364.85864" r="2.66397" fill="#3f3d56" id="circle44" transform="scale(-1,1)" />
   <circle cx="-409.88858" cy="367.69824" r="2.66397" fill="#134e4a" id="circle46" transform="scale(-1,1)" />
   <path
      d="m 408.81009,319.58252 c -3.02346,7.86728 0.615,33.93912 1.89456,42.30813 a 1.52108,1.52108 0 0 0 2.46729,0.9482 c 6.555,-5.35812 26.71747,-22.28309 29.74092,-30.15037 a 18.267226,18.267226 0 1 0 -34.10277,-13.106 z"
      fill="#134e4a" id="path48" />
   <circle cx="-425.86148" cy="326.1355" r="9.8947401" fill="#ffffff" id="circle50" transform="scale(-1,1)" />
   <path
      d="m 438.57143,304.78547 a 10.41983,10.41983 0 0 0 -14.51564,-6.6768 l -17.6639,-15.96738 -12.32141,8.36769 25.26156,22.19868 a 10.47632,10.47632 0 0 0 19.23939,-7.92219 z"
      fill="#ffb8b8" id="path52" />
   <path
      d="m 410.11009,309.99707 13.84619,-18.791 -31.5664,-20.20263 22.62475,-32.28418 a 13.082,13.082 0 0 0 -19.53051,-17.17188 l -28.32862,25.84619 a 23.72945,23.72945 0 0 0 3.32959,37.59766 z"
      fill="#2f2e41" id="path54" />
   <path
      d="m 518.59093,359.30087 a 10.41988,10.41988 0 0 1 -1.44679,-15.912 l -9.15293,-21.98169 12.00158,-8.82018 12.48972,31.22394 a 10.47632,10.47632 0 0 1 -13.8916,15.49 z"
      fill="#ffb8b8" id="path56" />
   <path
      d="m 512.4066,336.98145 21.64636,-5.041 -16.13086,-46.51514 A 76.2628,76.2628 0 0 0 505.78856,263.21975 L 479.4724,229.75539 a 14.71572,14.71572 0 0 0 -23.2002,18.10938 l 29.2013,37.68847 z"
      fill="#2f2e41" id="path58" />
   <!-- <path d="M666.69418,716.25h-381a1,1,0,1,1,0-2h381a1,1,0,0,1,0,2Z" transform="translate(-284.69418 -183.75)"
        fill="#ccc" /> -->
   <path d="m 100.8242,532 h 9 V 4.5 a 4.5,4.5 0 0 0 -9,0 z" fill="#e6e6e6" id="path60" />
   <path d="M 35.611613,532.5 H 175.61161 a 1,1 0 0 0 0,-2 H 35.611613 a 1,1 0 0 0 0,2 z" fill="#cccccc" id="path62" />
   <path
      d="M 38.374253,69 H 169.32425 a 4.50507,4.50507 0 0 0 4.5,-4.5 v -38 a 4.50507,4.50507 0 0 0 -4.5,-4.5 H 38.364733 a 4.50953,4.50953 0 0 0 -2.19287,0.5708 L 2.307113,41.46973 a 4.49979,4.49979 0 0 0 -0.0173,7.84912 l 33.87427,19.10107 A 4.51272,4.51272 0 0 0 38.374283,69 Z"
      fill="#134e4a" id="path64" />
   <path
      d="M 50.324203,151 H 181.2742 a 4.51114,4.51114 0 0 0 2.21,-0.58008 l 33.87451,-19.10107 a 4.49978,4.49978 0 0 0 -0.0173,-7.84912 L 183.47667,104.5708 A 4.50953,4.50953 0 0 0 181.2838,104 H 50.324243 a 4.50508,4.50508 0 0 0 -4.5,4.5 v 38 a 4.50508,4.50508 0 0 0 4.5,4.5 z"
      fill="#e6e6e6" id="path66" />
   <path
      d="M 49.824203,231.5 H 180.7742 a 4.51114,4.51114 0 0 0 2.21,-0.58008 l 33.87451,-19.10107 a 4.49978,4.49978 0 0 0 -0.0173,-7.84912 L 182.97667,185.0708 A 4.50953,4.50953 0 0 0 180.7838,184.5 H 49.824243 a 4.50508,4.50508 0 0 0 -4.5,4.5 v 38 a 4.50508,4.50508 0 0 0 4.5,4.5 z"
      fill="#e6e6e6" id="path68" />
</svg>