<?xml version="1.0" encoding="UTF-8" standalone="no"?>
<svg data-name="Layer 1" width="727.9032" height="469.25" viewBox="0 0 727.9032 469.25" version="1.1" id="svg130"
    sodipodi:docname="undraw_subway.svg" inkscape:version="1.2.2 (732a01da63, 2022-12-09)"
    xmlns:inkscape="http://www.inkscape.org/namespaces/inkscape"
    xmlns:sodipodi="http://sodipodi.sourceforge.net/DTD/sodipodi-0.dtd" xmlns="http://www.w3.org/2000/svg"
    xmlns:svg="http://www.w3.org/2000/svg">
    <defs id="defs134" />
    <sodipodi:namedview id="namedview132" pagecolor="#ffffff" bordercolor="#000000" borderopacity="0.25"
        inkscape:showpageshadow="2" inkscape:pageopacity="0.0" inkscape:pagecheckerboard="0"
        inkscape:deskcolor="#d1d1d1" showgrid="false" inkscape:zoom="1.2321792" inkscape:cx="490.18843"
        inkscape:cy="254.83306" inkscape:window-width="1920" inkscape:window-height="1009" inkscape:window-x="-8"
        inkscape:window-y="-8" inkscape:window-maximized="1" inkscape:current-layer="svg130" showguides="false" />
    <title id="title2">subway</title>
    <path
        d="M 979.86,15.25 V 453.5 a 16.28,16.28 0 0 1 -0.37,3.45 15.43,15.43 0 0 1 -15,12.3 H 14.18 A 15.29,15.29 0 0 1 0,459.44 15.9,15.9 0 0 1 -1.14,453.5 V 15.25 A 15.53,15.53 0 0 1 14.18,-0.5 h 950.36 a 15.53,15.53 0 0 1 15.32,15.75 z"
        opacity="0" id="path4" />
    <rect x="305.86002" y="44.5" width="366" height="412" fill="#f2f2f2" opacity="0.4" id="rect6" ry="25" />
    <rect x="353.86002" y="99.5" width="114" height="214" rx="14.62" fill="#adc7da" id="rect8" />
    <rect x="-623.85999" y="-313.5" width="114" height="214" rx="14.62" transform="scale(-1)" fill="#adc7da"
        id="rect10" />
    <rect x="24.859999" y="51.5" width="262" height="262" rx="19.620001" fill="#adc7da" id="rect12" />
    <polygon points="419.16,100 355,170.24 355,191.89 434.62,100 " fill="#f2f2f2" id="polygon16"
        transform="translate(-1.14,-0.5)" />
    <polygon points="469,172.3 355,283.64 355.5,303.5 469.5,191.89 " fill="#f2f2f2" id="polygon18"
        transform="translate(-1.14,-0.5)" />
    <polygon points="575.16,100 511,170.24 511,191.89 590.62,100 " fill="#f2f2f2" id="polygon20"
        transform="translate(-1.14,-0.5)" />
    <polygon points="625,172.3 511,283.64 511.5,303.5 625.5,191.89 " fill="#f2f2f2" id="polygon22"
        transform="translate(-1.14,-0.5)" />
    <polygon points="112.97,52 26,151.69 26,215.6 157,52 " fill="#f2f2f2" id="polygon24"
        transform="translate(-1.14,-0.5)" />
    <polygon points="228.44,52 26,251 26,266.12 255.24,52 " fill="#f2f2f2" id="polygon26"
        transform="translate(-1.14,-0.5)" />
    <path
        d="m 286.86,284.82 v 9.06 a 19.62,19.62 0 0 1 -19.62,19.62 h -33.26 c -1,-0.94 -1.93,-1.89 -2.88,-2.86 -4.06,-4.15 -8.17,-8.78 -10.73,-14.49 -3.77,-8.39 -3.53,-17.82 -3.33,-25.39 0,-0.73 0.05,-1.45 0.07,-2.19 a 29.14,29.14 0 0 1 -53.59,-7.93 28.47,28.47 0 0 1 -0.74,-8 29,29 0 0 1 9.42,-20.12 l 10.59,10.16 -5.15,-14.1 a 29.1,29.1 0 0 1 40.45,12.64 q 0.47,-10.83 1.07,-21.62 h -0.12 c -0.61,-0.1 -1.22,-0.23 -1.81,-0.36 l -1,-0.26 c -0.55,-0.16 -1.1,-0.32 -1.63,-0.5 l -1,-0.35 c -0.54,-0.2 -1.08,-0.44 -1.6,-0.68 a 9,9 0 0 1 -0.84,-0.38 c -0.65,-0.31 -1.27,-0.64 -1.89,-1 -0.14,-0.08 -0.28,-0.15 -0.42,-0.24 -0.74,-0.45 -1.45,-0.93 -2.14,-1.44 -0.24,-0.16 -0.46,-0.36 -0.68,-0.53 -0.46,-0.36 -0.91,-0.73 -1.34,-1.1 l -0.76,-0.71 c -0.38,-0.36 -0.75,-0.73 -1.1,-1.1 -0.35,-0.37 -0.5,-0.53 -0.74,-0.82 -0.24,-0.29 -0.67,-0.77 -1,-1.18 l -0.65,-0.84 c -0.34,-0.47 -0.66,-0.94 -1,-1.43 -0.16,-0.24 -0.33,-0.48 -0.48,-0.73 -0.43,-0.72 -0.83,-1.45 -1.2,-2.21 -0.14,-0.29 -0.26,-0.6 -0.39,-0.88 -0.23,-0.5 -0.45,-1 -0.65,-1.53 -0.14,-0.34 -0.25,-0.7 -0.38,-1.07 -0.13,-0.37 -0.31,-0.94 -0.45,-1.44 -0.14,-0.5 -0.2,-0.75 -0.3,-1.14 0,-0.2 -0.11,-0.41 -0.15,-0.61 v 0 a 28.94,28.94 0 0 1 13.9,-31.4 l 6.52,12.9 -0.19,-15.62 a 29.14,29.14 0 0 1 34.21,14.78 c 0,0 0,0 0,0 l 0.09,0.22 c 0.14,0.27 0.26,0.53 0.39,0.81 0.23,0.52 0.46,1 0.66,1.58 0.1,0.24 0.2,0.46 0.29,0.7 0.26,0.73 0.48,1.46 0.69,2.21 0.07,0.25 0.13,0.51 0.19,0.76 0.17,0.69 0.31,1.38 0.43,2.08 0,0.13 0,0.25 0.08,0.39 0.12,0.82 0.2,1.67 0.26,2.52 0,0.22 0,0.42 0,0.65 0,0.88 0.05,1.75 0,2.64 a 29.1,29.1 0 0 1 -25.88,27.57 c -1,17.08 -1.69,34.21 -2.13,51.19 -0.22,8.59 -0.16,15.65 2.63,21.87 a 34.65,34.65 0 0 0 5.76,8.5 c 0,-0.54 0,-1.09 0,-1.64 a 29.14,29.14 0 0 1 30.47,-27.76 h 0.08 l 6.6,13.07 -0.15,-12 a 29.17,29.17 0 0 1 16.52,11.73 z"
        fill="#f2f2f2" id="path32" />
    <rect x="482.86002" y="44.5" width="12" height="412" opacity="0.3" id="rect34" />
    <path
        d="m 727.90322,448.02273 c -1.0977,7.12327 -4.93615,21.17575 -10.34803,21.22727 H 10.549547 C 5.8658295,469.21115 1.6786068,465.31746 0,459.44 c 32.087585,-10.93 117.21306,-19.78 227.55179,-23.91 6.14523,-0.24 12.36733,-0.45333 18.6663,-0.64 h 1.16804 c 1.48795,-0.05 3.05029,-0.08 4.58288,-0.14 6.69081,-0.19333 13.46097,-0.37667 20.31048,-0.55 l 2.36584,-0.06 8.10931,-0.19 2.88662,-0.06 c 5.69884,-0.12 11.44728,-0.22667 17.24531,-0.32 18.36871,-0.3 37.19868,-0.48 56.34857,-0.51 h 16.76916 15.83177 l 15.81688,0.14 c 32.0727,0.29 62.96993,1 92.19322,2 l 11.53159,0.43 c 5.52029,0.2 10.97609,0.42 16.36742,0.66 93.16039,4 165.38471,2.54273 200.15804,11.73273 z"
        fill="#3f3d56" id="path36" style="stroke-width:0.862539" sodipodi:nodetypes="ccccccccccccccccccccc" />
    <path
        d="m 287.36,342 v 0 c 0,6.07 -4.4,11 -9.82,11 H 35.18 c -5.42,0 -9.82,-4.93 -9.82,-11 v 0 c 0,-6.08 4.4,-11 9.82,-11 h 242.36 c 5.42,0 9.82,4.92 9.82,11 z"
        fill="#134e4a" id="path38" />
    <rect x="514.67999" y="108.88" width="34.860001" height="60.150002" fill="#3f3d56" id="rect40" />
    <rect x="514.67999" y="108.88" width="34.860001" height="60.150002" opacity="0.1" id="rect42" />
    <path
        d="m 686.04,158.08 c 2.08,-1.25 4.66,-1.17 7.09,-1 a 9,9 0 0 1 4.21,0.9 c 2.5,1.51 2.88,4.92 3,7.84 0.12,3.48 0.12,7.34 -2.2,10 -1.84,2.07 -4.71,2.83 -7.44,3.31 a 20.15,20.15 0 0 0 -5.59,1.42 24.55,24.55 0 0 0 -4.86,3.73 c -3.25,2.77 -7.57,5.49 -11.83,6.16 -2.86,-5.77 -3.6,-11.3 0.87,-16.26 2.47,-2.74 5.66,-4.85 8.34,-7.39 2.68,-2.54 5.14,-6.74 8.41,-8.71 z"
        fill="#a0616a" id="path44" />
    <path
        d="m 521.86,450.66 a 9.4,9.4 0 0 0 -0.7,3.79 c 0.28,3 3.25,4.89 6,6.14 3.68,1.69 8.32,2.93 11.52,0.44 3.56,-2.77 3,-8.19 4.39,-12.49 0.82,-2.51 2.36,-4.72 3.37,-7.16 2.77,-6.69 1.31,-14.3 -0.19,-21.38 l -2.19,-10.31 a 3.87,3.87 0 0 0 -1,-2.19 c -1.61,-1.41 -9.16,-1.92 -11.08,-0.58 -3.07,2.13 -2.33,9.32 -2.82,12.7 a 179.48,179.48 0 0 1 -7.3,31.04 z"
        fill="#575a89" id="path46" />
    <path
        d="m 510.26,450.66 a 9.58,9.58 0 0 1 0.7,3.79 c -0.28,3 -3.25,4.89 -6,6.14 -3.68,1.69 -8.33,2.93 -11.52,0.44 -3.56,-2.77 -3,-8.19 -4.4,-12.49 -0.81,-2.51 -2.35,-4.72 -3.36,-7.16 -2.78,-6.69 -1.31,-14.3 0.19,-21.38 l 2.19,-10.31 a 3.87,3.87 0 0 1 1,-2.19 c 1.61,-1.41 9.16,-1.92 11.08,-0.58 3.06,2.13 2.32,9.32 2.81,12.7 a 179.5,179.5 0 0 0 7.31,31.04 z"
        fill="#575a89" id="path48" />
    <path
        d="m 535.6,141.37 a 4.67,4.67 0 0 1 1.17,2.07 c 0.36,1.88 -1.39,3.54 -3.18,4.22 -1.79,0.68 -3.79,0.84 -5.41,1.87 a 9.39,9.39 0 0 0 -3.42,5 c -3.4,9.56 0.39,21.61 9.41,26.26 6.22,3.21 13.62,2.71 20.6,2.13 a 7.9,7.9 0 0 0 2.85,-0.6 7.26,7.26 0 0 0 2.32,-2.1 40.91,40.91 0 0 0 7.48,-35.64 4,4 0 0 0 -0.59,-1.43 c -1.8,-2.47 -6.14,0.57 -8.69,-1.11 a 5.19,5.19 0 0 1 -1.69,-2.4 51.3,51.3 0 0 1 -3.59,-12.85 c -0.08,-0.54 -11.44,3.81 -12.41,4.29 -3.87,2 -4.07,0.16 -6.94,3.43 3.08,0.86 -0.46,3.92 2.09,6.86 z"
        fill="#a0616a" id="path50" />
    <path
        d="m 535.6,141.37 a 4.67,4.67 0 0 1 1.17,2.07 c 0.36,1.88 -1.39,3.54 -3.18,4.22 -1.79,0.68 -3.79,0.84 -5.41,1.87 a 9.39,9.39 0 0 0 -3.42,5 c -3.4,9.56 0.39,21.61 9.41,26.26 6.22,3.21 13.62,2.71 20.6,2.13 a 7.9,7.9 0 0 0 2.85,-0.6 7.26,7.26 0 0 0 2.32,-2.1 40.91,40.91 0 0 0 7.48,-35.64 4,4 0 0 0 -0.59,-1.43 c -1.8,-2.47 -6.14,0.57 -8.69,-1.11 a 5.19,5.19 0 0 1 -1.69,-2.4 51.3,51.3 0 0 1 -3.59,-12.85 c -0.08,-0.54 -11.44,3.81 -12.41,4.29 -3.87,2 -4.07,0.16 -6.94,3.43 3.08,0.86 -0.46,3.92 2.09,6.86 z"
        opacity="0.1" id="path52" />
    <path
        d="m 495.71,260.6 q 1,9.66 1.41,19.36 c 0.29,6.21 0.41,12.57 -1.48,18.49 -1,3.32 -2.71,6.42 -3.6,9.78 -1,3.95 -1,8.09 -0.95,12.18 a 28.36,28.36 0 0 0 0.66,7 c 0.55,2.09 1.57,4 2.32,6 2.7,7.17 2.08,15.12 1.15,22.72 -1.75,14.3 -4.48,28.46 -7.21,42.6 l -4.93,25.64 a 82.89,82.89 0 0 0 16.68,4.89 c 3.54,0.64 8.16,0.52 9.57,-2.8 a 9.4,9.4 0 0 0 0.21,-4.69 47.85,47.85 0 0 1 2.42,-21.1 c 1.94,-5.49 4.87,-10.62 6.36,-16.25 a 58.24,58.24 0 0 0 1.54,-10.82 q 0.69,-9.6 0.58,-19.23 c -0.1,-8.66 -0.65,-17.53 1.94,-25.8 3.39,-10.82 12.07,-20.46 11.06,-31.76 0.21,12.45 0.43,24.91 -0.41,37.33 a 123.29,123.29 0 0 0 -0.6,15.48 c 0.42,7.57 2.61,15.21 1,22.63 -0.66,3 -1.92,5.9 -2.25,9 -0.52,4.82 1.3,9.88 -0.31,14.46 -1.39,4 -5.26,7.16 -5.14,11.37 0.08,3.15 2.53,5.84 5.39,7.17 2.86,1.33 6.08,1.55 9.22,1.75 3.4,0.22 7.52,0.08 9.23,-2.87 2.09,-3.59 -1.22,-7.83 -1.84,-11.93 -0.62,-4.1 1.57,-8.1 3.53,-11.78 a 151.63,151.63 0 0 0 17.72,-67.38 c 0.17,-7.11 -0.16,-14.23 -0.12,-21.34 a 206.26,206.26 0 0 1 6,-48.41 c -26.77,-1.02 -53.89,-0.77 -79.15,8.31 z"
        fill="#3c354c" id="path54" />
    <circle cx="538.60999" cy="121.19" r="20.17" fill="#a0616a" id="circle56" />
    <path
        d="m 554.01,150.6 c -2.18,3.94 -4.89,7.87 -8.92,9.9 -4.03,2.03 -9.66,1.51 -12.19,-2.23 -1.91,-2.83 -1.95,-7.08 -4.92,-8.74 -2.38,-1.33 -5.55,-0.09 -7.2,2.08 -1.65,2.17 -2.14,5 -2.46,7.68 a 158.39,158.39 0 0 0 -0.7,20.32 c 0.42,33.05 3.06,66.07 2.64,99.13 a 126.75,126.75 0 0 1 -0.89,15.46 c 12.17,-3.08 24.42,-6.16 37,-6.94 6.07,-0.37 12.18,-0.2 18.2,-1 a 112.47,112.47 0 0 0 12.27,-2.6 2.73,2.73 0 0 0 1.45,-0.69 2.68,2.68 0 0 0 0.5,-1.52 c 1.24,-11.69 -2.85,-23.2 -4.66,-34.81 -1.7,-10.83 -1.4,-21.89 -2.86,-32.76 -2,-15.25 -7.51,-30.1 -7.39,-45.49 0,-5.59 0.82,-11.27 -0.42,-16.73 -1,-4.5 -4.47,-10.5 -9.5,-11.38 -5.57,-0.98 -7.85,6.53 -9.95,10.32 z"
        fill="#fbbf24" id="path58" />
    <path
        d="m 551.77,157.93 c -6.17,12.29 -12.44,24.85 -14.45,38.47 -1.81,12.28 -0.07,24.85 -1.56,37.17 -1.91,15.82 -9.07,31.92 -4.21,47.1 1.08,3.39 2.73,6.57 3.88,9.93 5,14.76 0,31.21 3.23,46.47 a 2.56,2.56 0 0 0 1.15,1.94 c 0.85,0.37 1.78,-0.25 2.67,-0.53 3.85,-1.23 6.5,3.66 9.55,6.32 a 10.27,10.27 0 0 0 11.2,1.36 c 5.71,-2.94 7.23,-10.26 8,-16.63 q 5.75,-45.7 7,-91.83 c 0.19,-7 0.29,-14 -0.86,-20.9 -1.39,-8.37 -4.59,-16.33 -6.31,-24.63 -2.76,-13.36 -1.61,-27.17 -0.86,-40.79 0.21,-4 -0.91,-15.52 -7.7,-11.76 -5.22,2.89 -8.2,13.28 -10.73,18.31 z"
        fill="#575a89" id="path60" />
    <path
        d="m 520.79,192.48 c -0.06,4.36 -0.13,8.79 -1.47,12.94 -1.34,4.15 -3.92,7.83 -6,11.71 -5,9.5 -6.81,20.38 -7.06,31.1 -0.25,10.72 1,21.42 1.83,32.11 a 409.16,409.16 0 0 1 0.85,48.9 35.74,35.74 0 0 1 20.78,-0.87 c 4,1 8.77,2.64 11.9,-0.08 2.23,-1.94 2.5,-5.25 2.6,-8.2 q 1.59,-45.09 1,-90.22 a 95.08,95.08 0 0 1 0.33,-11.82 c 0.33,-3 1,-6.06 1,-9.12 0,-4.3 -1.15,-8.5 -2.32,-12.64 L 533.68,158.9 c -0.69,-2.46 -1.43,-5 -3.14,-6.92 -1.71,-1.92 -6.88,-4.46 -8.89,-2 -1.74,2.16 -0.45,9.56 -0.48,12.22 z"
        opacity="0.1" id="path62" />
    <path
        d="m 519.43,191.79 c -0.06,4.36 -0.14,8.8 -1.48,12.95 -1.34,4.15 -3.91,7.82 -6,11.71 -5,9.5 -6.81,20.38 -7.06,31.1 -0.25,10.72 1,21.42 1.83,32.11 a 409,409 0 0 1 0.85,48.89 35.86,35.86 0 0 1 20.79,-0.87 c 4,1.05 8.76,2.65 11.89,-0.07 2.23,-1.94 2.5,-5.25 2.61,-8.21 q 1.58,-45.09 1,-90.22 a 94.92,94.92 0 0 1 0.32,-11.81 88,88 0 0 0 1,-9.12 c 0,-4.3 -1.14,-8.51 -2.31,-12.64 l -10.55,-37.39 c -0.7,-2.47 -1.44,-5 -3.15,-6.93 -1.71,-1.93 -6.88,-4.45 -8.89,-1.95 -1.73,2.15 -0.44,9.56 -0.48,12.21 z"
        fill="#575a89" id="path64" />
    <path
        d="m 523.69,145.98 c -5.45,0.55 -9.64,5.25 -11.77,10.29 -2.13,5.04 -2.75,10.58 -4.37,15.8 -2.83,9.05 -8.7,17.21 -9.65,26.64 -0.88,8.9 2.76,17.93 1,26.69 a 54,54 0 0 1 -2.11,6.91 c -3.4,9.95 -5.34,20.33 -7.28,30.67 l -2.88,15.39 c -2,10.85 -4.07,22 -2.21,32.87 a 10.27,10.27 0 0 1 13,0.83 c 1,0.93 1.83,2.11 3.14,2.31 2.25,0.32 3.63,-2.36 4.22,-4.55 a 136.39,136.39 0 0 0 4.25,-23.89 c 0.38,-4.38 0.56,-8.82 1.85,-13 0.82,-2.63 2,-5.1 2.9,-7.71 2,-6.17 1.73,-12.81 2.56,-19.24 0.71,-5.57 2.24,-11 3.11,-16.54 a 138.43,138.43 0 0 0 1.19,-20.36 l 0.39,-39.17 c 0.05,-5.07 0.39,-10.8 4.25,-14.08 2,-1.67 7.19,-3.21 6.71,-6.35 -0.47,-2.95 -6.06,-3.73 -8.3,-3.51 z"
        fill="#ff6584" id="path66" />
    <path
        d="m 555.91,142.37 c 5.84,-4.39 12.29,-9 19.6,-8.82 a 33,33 0 0 1 7.15,1.24 l 16.54,4.13 a 16.34,16.34 0 0 1 -7.05,6.5 12,12 0 0 1 13.12,7.23 c 2.31,6.06 -0.73,12.7 -3.42,18.61 -4.6,10.09 -8.42,20.83 -8.38,31.93 0,5.63 -3.89,11.2 -4.27,16.82 a 33,33 0 0 0 0.86,10.49 70.44,70.44 0 0 0 3.76,9.76 c 10.13,23.78 12.43,50.23 11.31,76.06 h -22.58 a 10,10 0 0 0 -3.69,0.47 c -1.42,0.55 -2.49,1.71 -3.75,2.57 a 9.93,9.93 0 0 1 -7.4,1.54 c -2.41,-11 1.4,-22.18 3.28,-33.24 a 164.25,164.25 0 0 0 1.81,-18.29 q 0.79,-14.56 0.8,-29.17 c 0,-7.36 -0.18,-14.87 -2.61,-21.81 -1.2,-3.44 -2.94,-6.69 -4.07,-10.16 a 61,61 0 0 1 -2.1,-10.65 c -2.52,-18.59 -6.39,-36.64 -8.91,-55.21 z"
        fill="#ff6584" id="path68" />
    <path
        d="m 507.64,157.93 c -1.7,1.24 -2.2,3.5 -2.95,5.47 -1.88,4.94 -5.87,8.74 -8.49,13.32 a 53,53 0 0 0 -3.72,8.82 c -3.47,9.9 -7,20.23 -5.76,30.64 0.28,2.33 0.87,4.77 2.52,6.44 3.61,3.63 10.28,1.39 13.07,-2.91 2.79,-4.3 2.95,-9.7 3.51,-14.78 1.06,-9.68 3.87,-19 6,-28.5 a 111,111 0 0 0 2.52,-14.48 c 0.15,-1.5 1,-4.84 -0.42,-5.79 -0.89,-0.6 -5.45,1.21 -6.28,1.77 z"
        fill="#ff6584" id="path70" />
    <path
        d="m 617.92,184.6 c 2.49,3 5.52,6.17 9.38,6.07 a 13.3,13.3 0 0 0 5.41,-1.81 259.71,259.71 0 0 1 40.33,-16.07 18.76,18.76 0 0 0 4.39,21.18 139,139 0 0 0 -33.5,13.4 28.74,28.74 0 0 0 -6.17,4.29 40.82,40.82 0 0 1 -3.86,3.92 c -3.06,2.34 -7.21,2.5 -11.07,2.56 a 16.18,16.18 0 0 1 -12.72,-3.89 L 582.49,194.5 a 2.95,2.95 0 0 1 -0.92,-4.81 l 8.74,-15.59 c 2,-3.53 4.25,-9.37 8.94,-10 4.69,-0.63 6.41,4.41 8.63,7.71 a 146.38,146.38 0 0 0 10.04,12.79 z"
        fill="#ff6584" id="path72" />
    <rect x="391.17273" y="322.42618" width="18.459999" height="38.279999" rx="4.0999999" transform="rotate(-21.57)"
        fill="#3f3d56" id="rect74" />
    <rect x="391.17273" y="322.42618" width="18.459999" height="38.279999" rx="4.0999999" transform="rotate(-21.57)"
        opacity="0.1" id="rect76" />
    <rect x="389.64636" y="322.54971" width="18.459999" height="38.279999" rx="4.0999999" transform="rotate(-21.57)"
        fill="#3f3d56" id="rect78" />
    <circle cx="495.20001" cy="164.59" r="2.3900001" fill="#fbbf24" id="circle80" />
    <path
        d="m 488.42,188.02 c -1.24,-1.54 -2.79,-2.82 -3.88,-4.46 a 17.1,17.1 0 0 1 -2.28,-7.19 66.48,66.48 0 0 1 -0.65,-8.35 2.43,2.43 0 0 1 3,-2.4 19.68,19.68 0 0 1 10.28,6.2 26.64,26.64 0 0 1 6.08,13.67 67.88,67.88 0 0 1 0.57,7.81 l 0.36,10.71 c -2.61,0 -6.41,0.73 -8.91,0 -3.59,-1 -2.14,-0.37 -1.78,-3.9 0.41,-4.4 0.11,-8.49 -2.79,-12.09 z"
        fill="#a0616a" id="path82" />
    <path
        d="m 495.47,199.47 a 9.61,9.61 0 0 1 -4.23,-0.58 c -2.74,-1.15 -4.31,-4 -5.67,-6.63 a 94.86,94.86 0 0 1 -0.88,17.19 c -0.52,3 -1.33,6 -1.26,9.07 a 15.93,15.93 0 0 0 4.3,10.44 7.48,7.48 0 0 0 2.64,1.93 c 2.16,0.85 4.62,0.06 6.6,-1.14 a 16.73,16.73 0 0 0 6.55,-7.38 c 2,-4.44 1.9,-9.33 2,-14.09 0.1,-4.45 1.53,-9.12 1.45,-13.39 -3.46,-0.41 -7.29,4.36 -11.5,4.58 z"
        fill="#ff6584" id="path84" />
    <path
        d="m 515.55,114.11 a 27.63,27.63 0 0 0 23,1.28 c -1.17,5.11 1.51,10.21 2.9,15.27 3.66,13.33 -2,27.81 -11,38.28 a 28,28 0 0 0 22.77,-8.25 59.61,59.61 0 0 1 -11.24,18.73 c 17.31,-5.39 29.67,-21.44 35.22,-38.7 4.24,-13.22 5,-28.06 -0.78,-40.67 -5.78,-12.61 -19.06,-22.24 -32.89,-21.1 -10.09,0.83 -19.32,7.27 -24.45,16 -5.13,8.73 -6.3,19.42 -4.22,29.42 z"
        fill="#3f3d56" id="path86" />
    <path
        d="m 541.49,130.66 a 36.14,36.14 0 0 1 -1.27,21.77 c 3.57,-8 4.94,-16.82 2.64,-25.19 -1.39,-5.06 -4.08,-10.16 -2.91,-15.27 a 27.61,27.61 0 0 1 -23,-1.28 l -0.28,4 a 27.65,27.65 0 0 0 22,0.74 c -1.25,5.07 1.43,10.17 2.82,15.23 z"
        opacity="0.1" id="path88" />
    <path d="m 517.47,98.14 a 42.51,42.51 0 0 0 -2.61,26.23 l 0.61,-8.58 a 42.3,42.3 0 0 1 2,-17.65 z" opacity="0.1"
        id="path90" />
    <path
        d="m 554.63,157.27 a 28.1,28.1 0 0 1 -21.49,8.35 c -0.85,1.15 -1.73,2.26 -2.65,3.32 a 28,28 0 0 0 22.69,-8.18 c 0.52,-1.15 1.01,-2.31 1.45,-3.49 z"
        opacity="0.1" id="path92" />
    <path
        d="m 545.31,175.37 c -1,1.41 -2.13,2.77 -3.29,4.08 16.29,-5.07 28.2,-19.59 34.16,-35.67 -6.05,14.03 -16.7,26.4 -30.87,31.59 z"
        opacity="0.1" id="path94" />
    <path
        d="m 709.36,0 h -22 v 442 c 0,6.07514 4.92487,11 11,11 6.07513,0 11,-4.92486 11,-11 1.01118,-182.6188 0,-351.21686 0,-442 z"
        fill="#3f3d56" id="path96" sodipodi:nodetypes="ccsscc" />
    <rect x="380.08002" y="231.87" width="3.52" height="107.47" fill="#575a89" id="rect98" />
    <rect x="391.01001" y="231.87" width="3.53" height="107.47" fill="#575a89" id="rect100" />
    <circle cx="372.29001" cy="443.92001" r="6.02" fill="#575a89" id="circle102" />
    <path
        d="m 350.97,334.37 c 0,0 6,-4.88 11.27,-3.19 5.27,1.69 19,3.38 21.4,12 2.4,8.62 0,103.45 0,103.45 0,0 -11.64,3 -14.83,1.5 -3.19,-1.5 -2.82,-15.76 -2.82,-15.76 l -0.93,-84.11 z"
        fill="#fbbf24" id="path104" />
    <path
        d="m 350.97,334.37 c 0,0 6,-4.88 11.27,-3.19 5.27,1.69 19,3.38 21.4,12 2.4,8.62 0,103.45 0,103.45 0,0 -11.64,3 -14.83,1.5 -3.19,-1.5 -2.82,-15.76 -2.82,-15.76 l -0.93,-84.11 z"
        opacity="0.1" id="path106" />
    <path
        d="m 405.61,441.77 -25.27,5.6 -0.26,-4.49 -0.17,-88.47 a 26.94,26.94 0 0 0 -10.58,-21.37 v 0 c 0,0 13.09,-0.17 23.12,4.35 2.14,1 4.29,1.91 6.49,2.72 2.73,1 6.43,3.15 6.67,7.39 0.31,5.52 1.36,60.2 1.74,80.11 a 50.39,50.39 0 0 1 -1.74,14.14 z"
        fill="#fbbf24" id="path108" />
    <rect x="378.43002" y="223.89" width="5.8699999" height="9.1999998" fill="#535461" id="rect110" />
    <rect x="378.43002" y="223.89" width="5.8699999" height="9.1999998" opacity="0.1" id="rect112" />
    <rect x="389.46002" y="225.35001" width="5.8699999" height="9.1999998" fill="#535461" id="rect114" />
    <path
        d="m 395.33,225.37 h -5.87 a 5.83,5.83 0 0 0 -5.16,3.43 c -0.08,0.18 -0.16,0.36 -0.24,0.56 l -1.29,-1.25 -2.69,-2.6 -1.65,-1.59 c 0,0 10.84,-5.55 16.9,1.45 z"
        fill="#535461" id="path116" />
    <circle cx="397.89001" cy="448.16" r="6.02" fill="#575a89" id="circle118" />
    <circle cx="335.72" cy="439.94" r="6.02" fill="#575a89" id="circle120" />
    <path
        d="m 347.03,333.06 c 0,0 -17.08,4.51 -18,47.5 -0.92,42.99 -1.13,47.5 -1.13,47.5 0,0 0.38,12.4 25.53,20.09 h 15.43 l 2.39,-98.78 c 0,0 -2.82,-15 -24.22,-16.31 z"
        fill="#fbbf24" id="path122" />
    <path d="m 345.53,399.71 c 0,0 -4.38,-60.11 19.22,-60.38 l 2.21,2.16 c 0,0 -20.68,-7.49 -21.43,58.22 z"
        opacity="0.1" id="path124" />
    <circle cx="356.14001" cy="453.41" r="6.02" fill="#575a89" id="circle126" />
    <path
        d="m 389.53,225.31 c 0,0 0,0 0,0 h -0.06 a 5.83,5.83 0 0 0 -5.16,3.43 c -0.08,0.18 -0.16,0.36 -0.24,0.56 l -1.29,-1.25 a 1.82,1.82 0 0 1 0,-0.33 3.41,3.41 0 0 1 1.28,-2.22 5.06,5.06 0 0 1 4.89,-0.88 c 0.29,0.14 0.64,0.37 0.58,0.69 z"
        opacity="0.1" id="path128" />
</svg>