<?xml version="1.0" encoding="UTF-8" standalone="no"?>
<svg
   data-name="Layer 1"
   width="721.19458"
   height="599.41119"
   viewBox="0 0 721.19459 599.41117"
   version="1.1"
   id="svg46"
   sodipodi:docname="undraw_duplicate.svg"
   inkscape:version="1.2.2 (732a01da63, 2022-12-09)"
   xmlns:inkscape="http://www.inkscape.org/namespaces/inkscape"
   xmlns:sodipodi="http://sodipodi.sourceforge.net/DTD/sodipodi-0.dtd"
   xmlns="http://www.w3.org/2000/svg"
   xmlns:svg="http://www.w3.org/2000/svg">
  <defs
     id="defs50" />
  <sodipodi:namedview
     id="namedview48"
     pagecolor="#ffffff"
     bordercolor="#000000"
     borderopacity="0.25"
     inkscape:showpageshadow="2"
     inkscape:pageopacity="0.0"
     inkscape:pagecheckerboard="0"
     inkscape:deskcolor="#d1d1d1"
     showgrid="false"
     inkscape:zoom="0.97456285"
     inkscape:cx="391.97062"
     inkscape:cy="329.37845"
     inkscape:window-width="1920"
     inkscape:window-height="1009"
     inkscape:window-x="1912"
     inkscape:window-y="-8"
     inkscape:window-maximized="1"
     inkscape:current-layer="svg46" />
  <polygon
     points="207.395,534.384 187.51,534.385 187.512,586.351 200.985,586.351 "
     fill="#a0616a"
     id="polygon2"
     transform="translate(-144.18604)" />
  <path
     d="m 39.88961,581.95255 26.533,-10e-4 h 10e-4 a 16.90978,16.90978 0 0 1 16.90888,16.90861 v 0.54947 l -43.4421,0.002 z"
     fill="#2f2e41"
     id="path4" />
  <polygon
     points="296.395,534.384 276.51,534.385 276.512,586.351 289.985,586.351 "
     fill="#a0616a"
     id="polygon6"
     transform="translate(-144.18604)" />
  <path
     d="m 128.88961,581.95255 26.533,-10e-4 h 0.001 a 16.90978,16.90978 0 0 1 16.90888,16.90861 v 0.54947 l -43.4421,0.002 z"
     fill="#2f2e41"
     id="path8" />
  <!-- <rect y="599.49174" width="606.09583" height="2" fill="#e6e6e6" /> -->
  <polygon
     points="233.439,379.759 274.453,575.082 298.002,575.082 298.002,342.166 186.038,308.658 176.231,575.082 211.132,575.082 "
     fill="#2f2e41"
     id="polygon10"
     transform="translate(-144.18604)" />
  <circle
     cx="91.553551"
     cy="106.36522"
     r="30.435949"
     fill="#a0616a"
     id="circle12" />
  <path
     d="m 44.30413,313.56187 c 32.65778,25.54025 68.70584,38.41382 109.51181,33.50735 -17.23413,-60.51126 -22.346,-120.56424 -5.72076,-179.7955 l -34.32459,-15.5278 -38.58332,-2.45175 -28.04254,8.2478 a 18.75086,18.75086 0 0 0 -13.45087,18.3573 c 0.99009,50.51346 -2.36828,97.78702 10.61027,137.6626 z"
     fill="#e6e6e6"
     id="path14" />
  <path
     d="m 62.42409,91.05972 c 2.92814,-5.52451 6.64853,-16.53481 12.55845,-18.5768 a 46.98415,46.98415 0 0 1 10.11483,-2.15477 l 10.04535,3.86362 -5.46716,-4.25212 q 1.59663,-0.0951 3.1915,-0.15554 l 6.7778,2.6068 -3.46759,-2.697 c 6.31878,-0.0648 12.84115,0.59217 17.73721,4.43882 4.17413,3.27926 8.30957,15.70179 8.9783,20.96743 a 40.106,40.106 0 0 1 -0.7373,15.10854 l -1.71643,1.63213 a 21.059,21.059 0 0 1 -1.34668,-4.28653 20.30084,20.30084 0 0 0 -9.71756,-13.18332 l -0.0935,-0.0527 c -2.87887,-1.62021 -6.372,-1.54551 -9.6734,-1.42669 l -15.67917,0.56419 c -3.77227,0.13576 -7.83432,0.37444 -10.77517,2.74068 -1.98639,1.598 -3.17655,3.957 -4.30823,6.24113 -1.4613,2.94945 -4.317,14.07413 -4.317,14.07413 0,0 -1.61563,-2.09995 -2.39,-0.537 a 54.04239,54.04239 0 0 1 -2.2493,-12.54357 24.57562,24.57562 0 0 1 2.535,-12.37142 z"
     fill="#2f2e41"
     id="path16" />
  <path
     d="m 698.53467,287.60254 h -351.365 a 22.68548,22.68548 0 0 1 -22.6599,-22.65967 V 22.65967 A 22.68548,22.68548 0 0 1 347.16968,0 h 351.36499 a 22.68548,22.68548 0 0 1 22.6599,22.65967 v 242.2832 a 22.68548,22.68548 0 0 1 -22.6599,22.65967 z M 347.16967,2 a 20.68335,20.68335 0 0 0 -20.6599,20.65967 v 242.2832 a 20.68335,20.68335 0 0 0 20.65991,20.65967 h 351.36499 a 20.68335,20.68335 0 0 0 20.6599,-20.65967 V 22.65967 A 20.68335,20.68335 0 0 0 698.53467,2 Z"
     fill="#f0f0f0"
     id="path18" />
  <path
     d="M 287.5098,307.94287 V 65.65973 a 21.68439,21.68439 0 0 1 21.6599,-21.6599 h 351.365 a 21.6844,21.6844 0 0 1 21.6599,21.6599 v 242.28314 a 21.6844,21.6844 0 0 1 -21.6599,21.6599 h -351.365 a 21.68439,21.68439 0 0 1 -21.6599,-21.6599 z"
     fill="#e4e4e4"
     id="path20" />
  <path
     d="M 301.32927,308.36931 V 65.23327 a 6.68454,6.68454 0 0 1 6.6769,-6.67691 h 353.6921 a 6.68454,6.68454 0 0 1 6.6769,6.67691 v 243.136 a 6.68454,6.68454 0 0 1 -6.6769,6.67691 h -353.692 a 6.68454,6.68454 0 0 1 -6.677,-6.67687 z"
     fill="#ffffff"
     id="path22" />
  <circle
     cx="443.8396"
     cy="369.93253"
     r="9.8430204"
     fill="#e6e6e6"
     id="circle24" />
  <circle
     cx="484.85223"
     cy="369.93253"
     r="9.8430204"
     fill="#e6e6e6"
     id="circle26" />
  <circle
     cx="525.86481"
     cy="369.93253"
     r="9.8430204"
     fill="#e6e6e6"
     id="circle28" />
  <path
     d="m 484.85227,258.26192 a 71.46063,71.46063 0 1 1 71.46057,-71.46069 v 6e-5 a 71.54145,71.54145 0 0 1 -71.46057,71.46063 z"
     fill="#134e4a"
     id="path30" />
  <path
     d="m 513.0488,179.75228 h -21.14728 v -21.14749 a 7.04923,7.04923 0 0 0 -14.09844,0 v 21.14749 h -21.14753 a 7.04914,7.04914 0 0 0 0,14.09826 h 21.14753 v 21.1475 a 7.04923,7.04923 0 0 0 14.09844,0 v -21.1475 h 21.14728 a 7.04914,7.04914 0 1 0 0.0196,-14.09826 z"
     fill="#ffffff"
     id="path32" />
  <!-- <path
        d="M275.737,689.072a102.5321,102.5321,0,0,0-8.998-28.88666l-.64307-1.32977-4.77637,5.29584,3.53907-7.88837-.23145-.45782a188.61349,188.61349,0,0,0-10.3677-17.98865l-.70166-1.07446-.936,1.03778.65527-1.46106-.32812-.49243c-4.686-7.02863-8.28613-11.47388-8.32178-11.51862l-1.01806-1.2525-.65479,1.49359c-.12012.27374-12.019,27.6922-13.59521,54.78607l-.02491.42224,8.0083,9.68012-8.167-5.127.01416,1.8609a79.26333,79.26333,0,0,0,.64893,9.5224q.53949,4.07511,1.27,7.95691a4.24313,4.24313,0,0,1,2.17163.67737q-.84623-4.33758-1.45965-8.91614c-.31543-2.43676-.51416-4.91229-.59327-7.38061l15.79686,9.91815-15.64355-18.90942c1.42432-22.907,10.26465-45.98609,12.74658-52.07758,1.332,1.7276,3.84473,5.08118,6.85059,9.561l-5.46436,12.182,7.79053-8.63818a186.51269,186.51269,0,0,1,9.32178,16.25183l-8.41455,18.75787,11.377-12.61548a100.38107,100.38107,0,0,1,8.1709,26.91993c1.99121,15.04107,1.60254,29.49-1.09473,40.68609-2.58349,10.725-7.13672,17.31714-12.49267,18.0874a8.46541,8.46541,0,0,1-3.30036-.19616,4.898,4.898,0,0,1-2.96075.90356h-.29212a11.60726,11.60726,0,0,0,5.42365,1.45673,9.83428,9.83428,0,0,0,1.40283-.10077c6.29688-.90448,11.32568-7.88123,14.15918-19.643C277.362,719.12572,277.76583,704.395,275.737,689.072Z"
        transform="translate(-167.30969 -149.25413)" fill="#e6e6e6" />
    <path
        d="M258.11352,749.52794c-8.23682,0-20.11279-4.53125-31.89209-12.77929a50.90046,50.90046,0,0,1-4.957-3.98535l-1.31934-1.20508,4.98828-1.43653-6.64209-.24316-.28027-.29395c-12.45019-13.03906-20.19775-31.457-20.2749-31.64062l-.60546-1.45508,1.57421.07129c.15674.00684,3.89941.18359,9.52441.98145l.35059.0498v-.00293l1.2334.1875a123.74552,123.74552,0,0,1,13.62939,2.86426l.479.12988,1.49658,3.68653-.227-3.30665,1.37305.39649a66.22859,66.22859,0,0,1,18.32765,8.49707c17.91358,12.54394,27.82568,28.22168,22.58594,35.7041C265.68673,748.30529,262.38986,749.527,258.11352,749.52794Zm-34.1431-17.04785c1.09424.92676,2.23291,1.8086,3.40088,2.63184,16.40674,11.48926,34.023,15.834,38.46777,9.48926,4.44385-6.34571-5.66552-21.415-22.0747-32.90528a64.16089,64.16089,0,0,0-16.38085-7.81445l.88721,12.917L222.44261,702.443c-3.83838-1.01855-7.76514-1.85644-11.69629-2.49609l.644,9.375-4.01123-9.87988c-3.10791-.42676-5.61328-.65821-7.1372-.77637,2.07763,4.5625,8.94288,18.65137,18.93652,29.24414l18.33008.6709Z"
        transform="translate(-167.30969 -149.25413)" fill="#e6e6e6" /> -->
  <path
     d="m 63.44676,333.51409 a 10.43245,10.43245 0 0 0 -12.3122,-10.21334 l -18.2656,-32.26164 -7.53644,15.44722 17.45613,29.71254 a 10.489,10.489 0 0 0 20.65811,-2.68476 z"
     fill="#a0616a"
     id="path34" />
  <path
     d="m 145.11856,369.37907 a 10.43248,10.43248 0 0 1 5.95355,-14.84782 l 0.67516,-37.06738 15.8873,10.89712 -3.07679,33.52915 a 10.489,10.489 0 0 1 -19.43917,7.48892 z"
     fill="#a0616a"
     id="path36" />
  <path
     d="m 34.49712,329.08967 13.076,-12.25879 -6.71054,-66.19745 7.76389,-93.57538 v 0 c -16.86542,5.30057 -34.97443,19.53937 -37.95716,36.9647 L 0,256.35423 Z"
     fill="#e6e6e6"
     id="path38" />
  <polygon
     points="191.759,317.884 181.371,260.849 186.275,215.083 175.65,257.58 "
     opacity="0.2"
     style="isolation:isolate"
     id="polygon40"
     transform="translate(-144.18604)" />
  <path
     d="m 147.27791,351.97273 21.24857,2.45175 -4.97521,-157.78461 a 36.72689,36.72689 0 0 0 -22.58291,-32.74426 l -7.58375,-3.15988 2.04316,73.96133 z"
     fill="#e6e6e6"
     id="path42" />
  <polygon
     points="277.823,237.749 283.509,237.114 291.71,328.176 "
     opacity="0.2"
     style="isolation:isolate"
     id="polygon44"
     transform="translate(-144.18604)" />
</svg>
