<?xml version="1.0" encoding="UTF-8" standalone="no"?>
<svg data-name="Layer 1" width="494.93152" height="487.84796" viewBox="0 0 494.93152 487.84796" version="1.1" id="svg78"
   sodipodi:docname="undraw_airport.svg" inkscape:version="1.2.2 (732a01da63, 2022-12-09)"
   xmlns:inkscape="http://www.inkscape.org/namespaces/inkscape"
   xmlns:sodipodi="http://sodipodi.sourceforge.net/DTD/sodipodi-0.dtd" xmlns="http://www.w3.org/2000/svg"
   xmlns:svg="http://www.w3.org/2000/svg">
   <defs id="defs82" />
   <sodipodi:namedview id="namedview80" pagecolor="#ffffff" bordercolor="#000000" borderopacity="0.25"
      inkscape:showpageshadow="2" inkscape:pageopacity="0.0" inkscape:pagecheckerboard="0" inkscape:deskcolor="#d1d1d1"
      showgrid="false" inkscape:zoom="1.6970317" inkscape:cx="259.27624" inkscape:cy="291.0965"
      inkscape:window-width="1920" inkscape:window-height="1009" inkscape:window-x="-8" inkscape:window-y="-8"
      inkscape:window-maximized="1" inkscape:current-layer="svg78" />
   <path
      d="M 256.17958,262 H 90.43153 a 16.51868,16.51868 0 0 1 -16.5,-16.5 v -86 a 16.51868,16.51868 0 0 1 16.5,-16.5 h 165.74805 a 16.51868,16.51868 0 0 1 16.5,16.5 v 86 a 16.51868,16.51868 0 0 1 -16.5,16.5 z"
      fill="#adc7da" id="path2" />
   <path
      d="m 474.43153,262 h -165.748 a 16.51868,16.51868 0 0 1 -16.5,-16.5 v -86 a 16.51868,16.51868 0 0 1 16.5,-16.5 h 165.748 a 16.51868,16.51868 0 0 1 16.5,16.5 v 86 a 16.51868,16.51868 0 0 1 -16.5,16.5 z"
      fill="#adc7da" id="path4" />
   <path
      d="M 272.67958,405 H 73.93153 V 295.5 a 16.51868,16.51868 0 0 1 16.5,-16.5 h 165.74805 a 16.51868,16.51868 0 0 1 16.5,16.5 z"
      fill="#adc7da" id="path6" />
   <path
      d="m 490.93153,405 h -198.748 V 295.5 a 16.51868,16.51868 0 0 1 16.5,-16.5 h 165.748 a 16.51868,16.51868 0 0 1 16.5,16.5 z"
      fill="#adc7da" id="path8" />
   <path
      d="m 474.43153,126 h -165.748 a 16.51868,16.51868 0 0 1 -16.5,-16.5 v -93 a 16.51868,16.51868 0 0 1 16.5,-16.5 h 165.748 a 16.51868,16.51868 0 0 1 16.5,16.5 v 93 a 16.51868,16.51868 0 0 1 -16.5,16.5 z"
      fill="#adc7da" id="path10" />
   <path
      d="M 256.17958,126 H 90.43153 a 16.51868,16.51868 0 0 1 -16.5,-16.5 v -93 a 16.51868,16.51868 0 0 1 16.5,-16.5 h 165.74805 a 16.51868,16.51868 0 0 1 16.5,16.5 v 93 a 16.51868,16.51868 0 0 1 -16.5,16.5 z"
      fill="#adc7da" id="path12" />
   <path d="m 485.43153,410 h -402 a 9.5,9.5 0 0 1 0,-19 h 402 a 9.5,9.5 0 0 1 0,19 z" fill="#134e4a" id="path14" />
   <path d="m 266.93153,400 h -164 v -38 a 82,82 0 0 1 164,0 z" fill="#134e4a" id="path16" />
   <path d="m 462.93153,400 h -164 v -38 a 82,82 0 0 1 164,0 z" fill="#134e4a" id="path18" />
   <rect x="-386.43152" y="-487.5" width="13" height="84" transform="scale(-1)" fill="#134e4a" id="rect20" />
   <path
      d="m 336.43153,487.04331 c 0,1.40463 19.69947,0.5433 44,0.5433 24.30053,0 44,0.86133 44,-0.5433 0,-1.40463 -19.69947,-12.54331 -44,-12.54331 -24.30053,0 -44,11.13868 -44,12.54331 z"
      fill="#134e4a" id="path22" />
   <rect x="-190.43153" y="-487.5" width="13" height="84" transform="scale(-1)" fill="#134e4a" id="rect24" />
   <path
      d="m 140.43153,487.04331 c 0,1.40463 19.69947,0.5433 44,0.5433 24.30053,0 44,0.86133 44,-0.5433 0,-1.40463 -19.69947,-12.54331 -44,-12.54331 -24.30053,0 -44,11.13868 -44,12.54331 z"
      fill="#134e4a" id="path26" />
   <polygon points="276.52,428.761 258.426,428.761 258.428,476.049 270.688,476.049 " fill="#a0616a" id="polygon28"
      transform="translate(-16.06847)" />
   <path
      d="m 278.26371,487.43156 -38.53072,0.002 -6.8e-4,-14.88687 23.64384,-0.001 a 14.88688,14.88688 0 0 1 14.88756,14.8862 v 0 z"
      fill="#2f2e41" id="path30" />
   <polygon points="280.671,418.671 263.407,424.088 277.566,469.207 289.263,465.536 " fill="#a0616a" id="polygon32"
      transform="translate(-16.06847)" />
   <path
      d="m 299.16227,469.31809 -36.76301,11.53677 -4.45739,-14.20388 22.55916,-7.0794 a 14.88686,14.88686 0 0 1 18.66127,9.7465 v 0 z"
      fill="#2f2e41" id="path34" />
   <path
      d="m 253.29539,447.44171 -22.42725,-58.87109 c -5.03149,1.18164 -47.22656,10.51855 -61.35888,-4.52832 -4.84327,-5.15723 -5.78785,-12.62891 -2.80762,-22.208 l 8.24756,-10.3643 0.25634,0.0137 c 3.11841,0.16406 76.43531,4.27344 81.46119,26.38867 4.23754,18.64454 11.97656,53.40528 14.24731,63.61524 a 4.51573,4.51573 0 0 1 -2.814,5.18359 l -9.01929,3.38184 a 4.46228,4.46228 0 0 1 -1.572,0.28613 4.51293,4.51293 0 0 1 -4.21336,-2.89743 z"
      fill="#2f2e41" id="path36" />
   <path
      d="m 240.29539,454.44171 -22.42725,-58.87109 c -5.03174,1.18164 -47.22656,10.51757 -61.35888,-4.52832 -4.84327,-5.15723 -5.78785,-12.62891 -2.80762,-22.208 l 8.24756,-10.3643 0.25634,0.0137 c 3.11841,0.16406 76.43531,4.27344 81.46119,26.38867 4.23754,18.64454 11.97656,53.40528 14.24731,63.61524 a 4.51573,4.51573 0 0 1 -2.814,5.18359 l -9.01929,3.38184 a 4.46228,4.46228 0 0 1 -1.572,0.28613 4.51293,4.51293 0 0 1 -4.21336,-2.89743 z"
      fill="#2f2e41" id="path38" />
   <path
      d="m 220.12186,340.22389 a 19.19641,19.19641 0 0 1 -16.4845,-9.37159 l -7.12256,-12.06591 16.92933,-9.25293 7.18835,9.856 48.77356,-5.13867 a 10.56012,10.56012 0 0 1 0.79919,-1.23389 v 0 a 11.0157,11.0157 0 0 1 7.8733,-4.314 10.89328,10.89328 0 0 1 8.49267,3.01221 11.02274,11.02274 0 0 1 1.85986,13.56347 11.00367,11.00367 0 0 1 -16.1134,3.15088 10.39918,10.39918 0 0 1 -0.82287,-0.70019 l -46.7146,11.91064 a 18.83682,18.83682 0 0 1 -4.65833,0.58398 z"
      fill="#a0616a" id="path40" />
   <path
      d="m 153.38453,371.94269 a 4.50692,4.50692 0 0 1 -1.8186,-4.34864 c 2.78247,-18.34277 -0.41895,-44.61914 -3.59473,-63.43261 a 24.79543,24.79543 0 0 1 27.55933,-28.76172 79.86445,79.86445 0 0 1 9.91284,1.9541 v 0 a 24.59626,24.59626 0 0 1 18.582,24.46777 c -0.47485,18.1543 3.21142,40.80567 4.81836,49.70117 a 4.51862,4.51862 0 0 1 -0.83374,3.51075 4.39229,4.39229 0 0 1 -3.09546,1.75 c -17.80811,1.81738 -37.01221,10.50195 -46.87451,15.5166 a 4.50061,4.50061 0 0 1 -2.04956,0.501 4.42883,4.42883 0 0 1 -2.60593,-0.85842 z"
      fill="#fbbf24" id="path42" />
   <path
      d="m 201.4553,324.63116 a 4.47083,4.47083 0 0 1 -2.47363,-2.39746 l -9.9314,-22.94238 a 11.49973,11.49973 0 1 1 21.10718,-9.13574 l 9.93164,22.94238 a 4.5057,4.5057 0 0 1 -2.342,5.917 l -12.8479,5.56153 a 4.46857,4.46857 0 0 1 -3.44385,0.0547 z"
      fill="#fbbf24" id="path44" />
   <circle cx="173.7028" cy="243.03391" r="24.561029" fill="#a0616a" id="circle46" />
   <path
      d="m 158.86005,264.85459 a 3.97443,3.97443 0 0 1 -5.69016,0.32691 44.42586,44.42586 0 0 1 -12.67228,-16.54878 c -3.19306,-7.611 -3.661,-16.899 -0.027,-24.03305 3.072,-6.03078 8.58662,-9.86968 14.09195,-13.00723 a 22.99349,22.99349 0 0 1 6.84781,-2.89429 8.99361,8.99361 0 0 1 7.154,1.40678 7.54423,7.54423 0 0 1 2.878,7.22723 22.35408,22.35408 0 0 1 9.80208,-7.35654 11.36522,11.36522 0 0 1 7.55375,-0.50594 c 3.53554,1.18009 6.15253,4.75026 7.60882,8.58606 a 19.14076,19.14076 0 0 1 1.25546,9.26373 11.12855,11.12855 0 0 1 -4.2691,7.67142 c -2.88387,1.98989 -6.59927,1.78779 -9.95313,0.90708 -3.35386,-0.88071 -6.60888,-2.37392 -10.02126,-2.79024 -3.41238,-0.41632 -7.19423,0.4863 -9.22732,3.52991 -1.43176,2.14338 -1.7693,4.96687 -2.06144,7.65827 l -1.51947,13.99864 a 18.54788,18.54788 0 0 1 -1.27762,5.83956 3.25084,3.25084 0 0 1 -0.47309,0.72048 z"
      fill="#2f2e41" id="path48" />
   <path
      d="m 211.36253,365.86988 a 11.01884,11.01884 0 0 1 -6.53393,-6.15772 10.25849,10.25849 0 0 1 -0.35913,-1.019 l -52.322,-14.89307 a 10.88006,10.88006 0 0 1 -7.86109,-10.34277 l -0.12768,-20.20166 19.28588,0.51611 1.25684,12.13428 44.74072,20.08691 a 10.56863,10.56863 0 0 1 1.31153,-0.66455 h 2.4e-4 a 11.01,11.01 0 1 1 0.60864,20.54151 z"
      fill="#a0616a" id="path50" />
   <path
      d="m 144.45867,322.12432 a 4.47084,4.47084 0 0 1 -1.11986,-3.2577 l 1.534,-24.9526 a 11.49972,11.49972 0 1 1 22.956,1.41236 l -1.53376,24.95272 a 4.50569,4.50569 0 0 1 -4.76751,4.21506 l -13.97358,-0.85915 a 4.46863,4.46863 0 0 1 -3.09531,-1.51069 z"
      fill="#fbbf24" id="path52" />
   <path
      d="M 280.99936,334.5 H 266.8637 a 1.8178,1.8178 0 0 1 -1.81577,-1.64688 l -2.82949,-29.00177 h 23.42618 l -2.82949,29.00141 A 1.81783,1.81783 0 0 1 280.99936,334.5 Z"
      fill="#fbbf24" id="path54" />
   <path
      d="m 285.60721,307.5 h -23.35136 a 1.82647,1.82647 0 0 1 -1.82432,-1.82432 v -4.37838 a 1.82647,1.82647 0 0 1 1.82432,-1.82433 h 23.35136 a 1.82647,1.82647 0 0 1 1.82432,1.82433 v 4.37838 A 1.82647,1.82647 0 0 1 285.60721,307.5 Z"
      fill="#3f3d56" id="path56" />
   <path
      d="M 68.45808,308.5 H 39.9448 a 3.16815,3.16815 0 0 0 -3.16814,3.16814 v 60.19469 h 4.75222 v -55.44248 a 3.16814,3.16814 0 0 1 3.16814,-3.16814 h 20.59292 a 3.16815,3.16815 0 0 1 3.16814,3.16814 v 55.44248 h 4.75221 V 311.66814 A 3.16814,3.16814 0 0 0 70.04215,308.5 Z"
      fill="#3f3d56" id="path58" />
   <path
      d="m 87.46693,487.5 h -68.115 A 13.47966,13.47966 0 0 1 5.88733,474.0354 v -99.79646 a 13.47966,13.47966 0 0 1 13.4646,-13.4646 h 68.115 a 13.47965,13.47965 0 0 1 13.4646,13.4646 V 474.0354 A 13.47965,13.47965 0 0 1 87.46693,487.5 Z"
      fill="#3f3d56" id="path60" />
   <path
      d="M 7.12832,443.82281 C 2.49832,443.82281 0,434.2333 0,425.20997 c 0,-9.02333 2.49831,-18.61283 7.12832,-18.61283 4.63001,0 7.12832,9.58951 7.12832,18.61283 0,9.02332 -2.49832,18.61284 -7.12832,18.61284 z m 0,-35.6416 c -2.62246,0 -5.54425,6.99374 -5.54425,17.02876 0,10.03502 2.92179,17.02876 5.54425,17.02876 2.62246,0 5.54421,-6.99373 5.54421,-17.02873 0,-10.035 -2.92175,-17.02879 -5.54421,-17.02879 z"
      fill="#3f3d56" id="path62" />
   <path
      d="M 82.71472,428.09735 H 70.04215 a 3.96485,3.96485 0 0 1 -3.96018,-3.96018 v -9.50443 a 3.96484,3.96484 0 0 1 3.96018,-3.96017 h 12.67257 a 3.96483,3.96483 0 0 1 3.96017,3.96017 v 9.50443 a 3.96484,3.96484 0 0 1 -3.96017,3.96018 z"
      fill="#ffffff" id="path64" />
   <path
      d="M 86.67489,480.78936 H 14.25664 a 1.58415,1.58415 0 0 1 -1.58407,-1.58407 v -110.5106 a 1.58414,1.58414 0 0 1 1.58407,-1.58407 h 72.41825 a 1.58407,1.58407 0 1 1 0,3.16814 H 15.84071 v 107.34245 h 70.83418 a 1.58408,1.58408 0 0 1 0,3.16815 z"
      fill="#ffffff" id="path66" />
   <path
      d="m 468.66167,184.45586 a 9.43037,9.43037 0 0 0 -3.17794,-1.80652 21.29964,21.29964 0 0 0 -8.07466,-0.87784 36.50949,36.50949 0 0 0 -5.93465,0.827 L 360.30893,208.39 q -2.58342,0.72549 -5.07875,1.69041 c -5.8763,-2.2998 -22.49062,-8.95257 -24.3115,-11.33953 l -7.14584,2.08948 11.91246,17.7819 a 1.63253,1.63253 0 0 0 0.1231,3.03989 c 13.73393,4.71571 34.476,-1.54536 34.476,-1.54536 l 79.65913,-22.7589 c 0,0 24.0431,-8.13278 18.71814,-12.89203 z"
      fill="#ffffff" style="isolation:isolate" id="path68" />
   <polygon points="384.725,218.814 439.558,198.716 387.784,212.696 " fill="#adc7da" id="polygon70"
      transform="translate(-16.06847)" />
   <path
      d="M 422.43153,87.5 A 14.9415,14.9415 0 0 0 411.47596,92.27753 10.98511,10.98511 0 0 0 396.43153,102.5 h 41 a 15,15 0 0 0 -15,-15 z"
      fill="#ffffff" id="path72" />
   <path
      d="M 202.43153,38.5 A 14.9415,14.9415 0 0 0 191.47596,43.27753 10.98511,10.98511 0 0 0 176.43153,53.5 h 41 a 15,15 0 0 0 -15,-15 z"
      fill="#ffffff" id="path74" />
   <path
      d="M 134.43153,169.5 A 14.9415,14.9415 0 0 0 123.47596,174.27753 10.98511,10.98511 0 0 0 108.43153,184.5 h 41 a 15,15 0 0 0 -15,-15 z"
      fill="#ffffff" id="path76" />
</svg>